<?xml version="1.0" encoding="utf-8" standalone="no"?>
<!DOCTYPE svg PUBLIC "-//W3C//DTD SVG 1.1//EN"
  "http://www.w3.org/Graphics/SVG/1.1/DTD/svg11.dtd">
<svg xmlns:xlink="http://www.w3.org/1999/xlink" width="1167.065pt" height="243.886875pt" viewBox="0 0 1167.065 243.886875" xmlns="http://www.w3.org/2000/svg" version="1.1">
 <metadata>
  <rdf:RDF xmlns:dc="http://purl.org/dc/elements/1.1/" xmlns:cc="http://creativecommons.org/ns#" xmlns:rdf="http://www.w3.org/1999/02/22-rdf-syntax-ns#">
   <cc:Work>
    <dc:type rdf:resource="http://purl.org/dc/dcmitype/StillImage"/>
    <dc:date>2025-10-19T18:58:15.026997</dc:date>
    <dc:format>image/svg+xml</dc:format>
    <dc:creator>
     <cc:Agent>
      <dc:title>Matplotlib v3.9.2, https://matplotlib.org/</dc:title>
     </cc:Agent>
    </dc:creator>
   </cc:Work>
  </rdf:RDF>
 </metadata>
 <defs>
  <style type="text/css">*{stroke-linejoin: round; stroke-linecap: butt}</style>
 </defs>
 <g id="figure_1">
  <g id="patch_1">
   <path d="M 0 243.886875 
L 1167.065 243.886875 
L 1167.065 0 
L 0 0 
z
" style="fill: #ffffff"/>
  </g>
  <g id="axes_1">
   <g id="patch_2">
    <path d="M 43.865 194.716875 
L 1159.865 194.716875 
L 1159.865 28.396875 
L 43.865 28.396875 
z
" style="fill: #ffffff"/>
   </g>
   <g id="PolyCollection_1">
    <defs>
     <path id="m481c25dfa0" d="M 464.901364 -56.73 
L 94.592273 -56.73 
L 94.592273 -207.93 
L 464.901364 -207.93 
L 464.901364 -207.93 
L 464.901364 -56.73 
z
" style="stroke: #d3d3d3; stroke-opacity: 0.4"/>
    </defs>
    <g clip-path="url(#p982a1d2605)">
     <use xlink:href="#m481c25dfa0" x="0" y="243.886875" style="fill: #d3d3d3; fill-opacity: 0.4; stroke: #d3d3d3; stroke-opacity: 0.4"/>
    </g>
   </g>
   <g id="PolyCollection_2">
    <defs>
     <path id="m03f0e7a879" d="M 647.519545 -56.73 
L 464.901364 -56.73 
L 464.901364 -207.93 
L 647.519545 -207.93 
L 647.519545 -207.93 
L 647.519545 -56.73 
z
" style="stroke: #a9a9a9; stroke-opacity: 0.4"/>
    </defs>
    <g clip-path="url(#p982a1d2605)">
     <use xlink:href="#m03f0e7a879" x="0" y="243.886875" style="fill: #a9a9a9; fill-opacity: 0.4; stroke: #a9a9a9; stroke-opacity: 0.4"/>
    </g>
   </g>
   <g id="PolyCollection_3">
    <defs>
     <path id="mcd95108613" d="M 708.392273 -56.73 
L 647.519545 -56.73 
L 647.519545 -207.93 
L 708.392273 -207.93 
L 708.392273 -207.93 
L 708.392273 -56.73 
z
" style="stroke: #d3d3d3; stroke-opacity: 0.4"/>
    </defs>
    <g clip-path="url(#p982a1d2605)">
     <use xlink:href="#mcd95108613" x="0" y="243.886875" style="fill: #d3d3d3; fill-opacity: 0.4; stroke: #d3d3d3; stroke-opacity: 0.4"/>
    </g>
   </g>
   <g id="PolyCollection_4">
    <defs>
     <path id="m32ad31dc4f" d="M 850.428636 -56.73 
L 708.392273 -56.73 
L 708.392273 -207.93 
L 850.428636 -207.93 
L 850.428636 -207.93 
L 850.428636 -56.73 
z
" style="stroke: #a9a9a9; stroke-opacity: 0.4"/>
    </defs>
    <g clip-path="url(#p982a1d2605)">
     <use xlink:href="#m32ad31dc4f" x="0" y="243.886875" style="fill: #a9a9a9; fill-opacity: 0.4; stroke: #a9a9a9; stroke-opacity: 0.4"/>
    </g>
   </g>
   <g id="PolyCollection_5">
    <defs>
     <path id="m3ef7ef6168" d="M 1022.901364 -56.73 
L 850.428636 -56.73 
L 850.428636 -207.93 
L 1022.901364 -207.93 
L 1022.901364 -207.93 
L 1022.901364 -56.73 
z
" style="stroke: #d3d3d3; stroke-opacity: 0.4"/>
    </defs>
    <g clip-path="url(#p982a1d2605)">
     <use xlink:href="#m3ef7ef6168" x="0" y="243.886875" style="fill: #d3d3d3; fill-opacity: 0.4; stroke: #d3d3d3; stroke-opacity: 0.4"/>
    </g>
   </g>
   <g id="PolyCollection_6">
    <defs>
     <path id="me6a7efd0cf" d="M 1109.137727 -56.73 
L 1022.901364 -56.73 
L 1022.901364 -207.93 
L 1109.137727 -207.93 
L 1109.137727 -207.93 
L 1109.137727 -56.73 
z
" style="stroke: #d3d3d3; stroke-opacity: 0.4"/>
    </defs>
    <g clip-path="url(#p982a1d2605)">
     <use xlink:href="#me6a7efd0cf" x="0" y="243.886875" style="fill: #d3d3d3; fill-opacity: 0.4; stroke: #d3d3d3; stroke-opacity: 0.4"/>
    </g>
   </g>
   <g id="matplotlib.axis_1">
    <g id="xtick_1">
     <g id="line2d_1">
      <defs>
       <path id="mb98cc074ee" d="M 0 0 
L 0 3.5 
" style="stroke: #000000; stroke-width: 0.8"/>
      </defs>
      <g>
       <use xlink:href="#mb98cc074ee" x="94.592273" y="194.716875" style="stroke: #000000; stroke-width: 0.8"/>
      </g>
     </g>
     <g id="text_1">
      <!-- 0 -->
      <g transform="translate(89.502273 213.874375) scale(0.16 -0.16)">
       <defs>
        <path id="DejaVuSans-30" d="M 2034 4250 
Q 1547 4250 1301 3770 
Q 1056 3291 1056 2328 
Q 1056 1369 1301 889 
Q 1547 409 2034 409 
Q 2525 409 2770 889 
Q 3016 1369 3016 2328 
Q 3016 3291 2770 3770 
Q 2525 4250 2034 4250 
z
M 2034 4750 
Q 2819 4750 3233 4129 
Q 3647 3509 3647 2328 
Q 3647 1150 3233 529 
Q 2819 -91 2034 -91 
Q 1250 -91 836 529 
Q 422 1150 422 2328 
Q 422 3509 836 4129 
Q 1250 4750 2034 4750 
z
" transform="scale(0.015625)"/>
       </defs>
       <use xlink:href="#DejaVuSans-30"/>
      </g>
     </g>
    </g>
    <g id="xtick_2">
     <g id="line2d_2">
      <g>
       <use xlink:href="#mb98cc074ee" x="221.410455" y="194.716875" style="stroke: #000000; stroke-width: 0.8"/>
      </g>
     </g>
     <g id="text_2">
      <!-- 25 -->
      <g transform="translate(211.230455 213.874375) scale(0.16 -0.16)">
       <defs>
        <path id="DejaVuSans-32" d="M 1228 531 
L 3431 531 
L 3431 0 
L 469 0 
L 469 531 
Q 828 903 1448 1529 
Q 2069 2156 2228 2338 
Q 2531 2678 2651 2914 
Q 2772 3150 2772 3378 
Q 2772 3750 2511 3984 
Q 2250 4219 1831 4219 
Q 1534 4219 1204 4116 
Q 875 4013 500 3803 
L 500 4441 
Q 881 4594 1212 4672 
Q 1544 4750 1819 4750 
Q 2544 4750 2975 4387 
Q 3406 4025 3406 3419 
Q 3406 3131 3298 2873 
Q 3191 2616 2906 2266 
Q 2828 2175 2409 1742 
Q 1991 1309 1228 531 
z
" transform="scale(0.015625)"/>
        <path id="DejaVuSans-35" d="M 691 4666 
L 3169 4666 
L 3169 4134 
L 1269 4134 
L 1269 2991 
Q 1406 3038 1543 3061 
Q 1681 3084 1819 3084 
Q 2600 3084 3056 2656 
Q 3513 2228 3513 1497 
Q 3513 744 3044 326 
Q 2575 -91 1722 -91 
Q 1428 -91 1123 -41 
Q 819 9 494 109 
L 494 744 
Q 775 591 1075 516 
Q 1375 441 1709 441 
Q 2250 441 2565 725 
Q 2881 1009 2881 1497 
Q 2881 1984 2565 2268 
Q 2250 2553 1709 2553 
Q 1456 2553 1204 2497 
Q 953 2441 691 2322 
L 691 4666 
z
" transform="scale(0.015625)"/>
       </defs>
       <use xlink:href="#DejaVuSans-32"/>
       <use xlink:href="#DejaVuSans-35" x="63.623047"/>
      </g>
     </g>
    </g>
    <g id="xtick_3">
     <g id="line2d_3">
      <g>
       <use xlink:href="#mb98cc074ee" x="348.228636" y="194.716875" style="stroke: #000000; stroke-width: 0.8"/>
      </g>
     </g>
     <g id="text_3">
      <!-- 50 -->
      <g transform="translate(338.048636 213.874375) scale(0.16 -0.16)">
       <use xlink:href="#DejaVuSans-35"/>
       <use xlink:href="#DejaVuSans-30" x="63.623047"/>
      </g>
     </g>
    </g>
    <g id="xtick_4">
     <g id="line2d_4">
      <g>
       <use xlink:href="#mb98cc074ee" x="475.046818" y="194.716875" style="stroke: #000000; stroke-width: 0.8"/>
      </g>
     </g>
     <g id="text_4">
      <!-- 75 -->
      <g transform="translate(464.866818 213.874375) scale(0.16 -0.16)">
       <defs>
        <path id="DejaVuSans-37" d="M 525 4666 
L 3525 4666 
L 3525 4397 
L 1831 0 
L 1172 0 
L 2766 4134 
L 525 4134 
L 525 4666 
z
" transform="scale(0.015625)"/>
       </defs>
       <use xlink:href="#DejaVuSans-37"/>
       <use xlink:href="#DejaVuSans-35" x="63.623047"/>
      </g>
     </g>
    </g>
    <g id="xtick_5">
     <g id="line2d_5">
      <g>
       <use xlink:href="#mb98cc074ee" x="601.865" y="194.716875" style="stroke: #000000; stroke-width: 0.8"/>
      </g>
     </g>
     <g id="text_5">
      <!-- 100 -->
      <g transform="translate(586.595 213.874375) scale(0.16 -0.16)">
       <defs>
        <path id="DejaVuSans-31" d="M 794 531 
L 1825 531 
L 1825 4091 
L 703 3866 
L 703 4441 
L 1819 4666 
L 2450 4666 
L 2450 531 
L 3481 531 
L 3481 0 
L 794 0 
L 794 531 
z
" transform="scale(0.015625)"/>
       </defs>
       <use xlink:href="#DejaVuSans-31"/>
       <use xlink:href="#DejaVuSans-30" x="63.623047"/>
       <use xlink:href="#DejaVuSans-30" x="127.246094"/>
      </g>
     </g>
    </g>
    <g id="xtick_6">
     <g id="line2d_6">
      <g>
       <use xlink:href="#mb98cc074ee" x="728.683182" y="194.716875" style="stroke: #000000; stroke-width: 0.8"/>
      </g>
     </g>
     <g id="text_6">
      <!-- 125 -->
      <g transform="translate(713.413182 213.874375) scale(0.16 -0.16)">
       <use xlink:href="#DejaVuSans-31"/>
       <use xlink:href="#DejaVuSans-32" x="63.623047"/>
       <use xlink:href="#DejaVuSans-35" x="127.246094"/>
      </g>
     </g>
    </g>
    <g id="xtick_7">
     <g id="line2d_7">
      <g>
       <use xlink:href="#mb98cc074ee" x="855.501364" y="194.716875" style="stroke: #000000; stroke-width: 0.8"/>
      </g>
     </g>
     <g id="text_7">
      <!-- 150 -->
      <g transform="translate(840.231364 213.874375) scale(0.16 -0.16)">
       <use xlink:href="#DejaVuSans-31"/>
       <use xlink:href="#DejaVuSans-35" x="63.623047"/>
       <use xlink:href="#DejaVuSans-30" x="127.246094"/>
      </g>
     </g>
    </g>
    <g id="xtick_8">
     <g id="line2d_8">
      <g>
       <use xlink:href="#mb98cc074ee" x="982.319545" y="194.716875" style="stroke: #000000; stroke-width: 0.8"/>
      </g>
     </g>
     <g id="text_8">
      <!-- 175 -->
      <g transform="translate(967.049545 213.874375) scale(0.16 -0.16)">
       <use xlink:href="#DejaVuSans-31"/>
       <use xlink:href="#DejaVuSans-37" x="63.623047"/>
       <use xlink:href="#DejaVuSans-35" x="127.246094"/>
      </g>
     </g>
    </g>
    <g id="xtick_9">
     <g id="line2d_9">
      <g>
       <use xlink:href="#mb98cc074ee" x="1109.137727" y="194.716875" style="stroke: #000000; stroke-width: 0.8"/>
      </g>
     </g>
     <g id="text_9">
      <!-- 200 -->
      <g transform="translate(1093.867727 213.874375) scale(0.16 -0.16)">
       <use xlink:href="#DejaVuSans-32"/>
       <use xlink:href="#DejaVuSans-30" x="63.623047"/>
       <use xlink:href="#DejaVuSans-30" x="127.246094"/>
      </g>
     </g>
    </g>
    <g id="text_10">
     <!-- Time -->
     <g transform="translate(582.29125 233.359375) scale(0.16 -0.16)">
      <defs>
       <path id="DejaVuSans-54" d="M -19 4666 
L 3928 4666 
L 3928 4134 
L 2272 4134 
L 2272 0 
L 1638 0 
L 1638 4134 
L -19 4134 
L -19 4666 
z
" transform="scale(0.015625)"/>
       <path id="DejaVuSans-69" d="M 603 3500 
L 1178 3500 
L 1178 0 
L 603 0 
L 603 3500 
z
M 603 4863 
L 1178 4863 
L 1178 4134 
L 603 4134 
L 603 4863 
z
" transform="scale(0.015625)"/>
       <path id="DejaVuSans-6d" d="M 3328 2828 
Q 3544 3216 3844 3400 
Q 4144 3584 4550 3584 
Q 5097 3584 5394 3201 
Q 5691 2819 5691 2113 
L 5691 0 
L 5113 0 
L 5113 2094 
Q 5113 2597 4934 2840 
Q 4756 3084 4391 3084 
Q 3944 3084 3684 2787 
Q 3425 2491 3425 1978 
L 3425 0 
L 2847 0 
L 2847 2094 
Q 2847 2600 2669 2842 
Q 2491 3084 2119 3084 
Q 1678 3084 1418 2786 
Q 1159 2488 1159 1978 
L 1159 0 
L 581 0 
L 581 3500 
L 1159 3500 
L 1159 2956 
Q 1356 3278 1631 3431 
Q 1906 3584 2284 3584 
Q 2666 3584 2933 3390 
Q 3200 3197 3328 2828 
z
" transform="scale(0.015625)"/>
       <path id="DejaVuSans-65" d="M 3597 1894 
L 3597 1613 
L 953 1613 
Q 991 1019 1311 708 
Q 1631 397 2203 397 
Q 2534 397 2845 478 
Q 3156 559 3463 722 
L 3463 178 
Q 3153 47 2828 -22 
Q 2503 -91 2169 -91 
Q 1331 -91 842 396 
Q 353 884 353 1716 
Q 353 2575 817 3079 
Q 1281 3584 2069 3584 
Q 2775 3584 3186 3129 
Q 3597 2675 3597 1894 
z
M 3022 2063 
Q 3016 2534 2758 2815 
Q 2500 3097 2075 3097 
Q 1594 3097 1305 2825 
Q 1016 2553 972 2059 
L 3022 2063 
z
" transform="scale(0.015625)"/>
      </defs>
      <use xlink:href="#DejaVuSans-54"/>
      <use xlink:href="#DejaVuSans-69" x="57.958984"/>
      <use xlink:href="#DejaVuSans-6d" x="85.742188"/>
      <use xlink:href="#DejaVuSans-65" x="183.154297"/>
     </g>
    </g>
   </g>
   <g id="matplotlib.axis_2">
    <g id="ytick_1">
     <g id="line2d_10">
      <defs>
       <path id="m60162d4618" d="M 0 0 
L -3.5 0 
" style="stroke: #000000; stroke-width: 0.8"/>
      </defs>
      <g>
       <use xlink:href="#m60162d4618" x="43.865" y="187.156875" style="stroke: #000000; stroke-width: 0.8"/>
      </g>
     </g>
     <g id="text_11">
      <!-- 0 -->
      <g transform="translate(26.685 193.235625) scale(0.16 -0.16)">
       <use xlink:href="#DejaVuSans-30"/>
      </g>
     </g>
    </g>
    <g id="ytick_2">
     <g id="line2d_11">
      <g>
       <use xlink:href="#m60162d4618" x="43.865" y="129.10821" style="stroke: #000000; stroke-width: 0.8"/>
      </g>
     </g>
     <g id="text_12">
      <!-- 2 -->
      <g transform="translate(26.685 135.18696) scale(0.16 -0.16)">
       <use xlink:href="#DejaVuSans-32"/>
      </g>
     </g>
    </g>
    <g id="ytick_3">
     <g id="line2d_12">
      <g>
       <use xlink:href="#m60162d4618" x="43.865" y="71.059546" style="stroke: #000000; stroke-width: 0.8"/>
      </g>
     </g>
     <g id="text_13">
      <!-- 4 -->
      <g transform="translate(26.685 77.138296) scale(0.16 -0.16)">
       <defs>
        <path id="DejaVuSans-34" d="M 2419 4116 
L 825 1625 
L 2419 1625 
L 2419 4116 
z
M 2253 4666 
L 3047 4666 
L 3047 1625 
L 3713 1625 
L 3713 1100 
L 3047 1100 
L 3047 0 
L 2419 0 
L 2419 1100 
L 313 1100 
L 313 1709 
L 2253 4666 
z
" transform="scale(0.015625)"/>
       </defs>
       <use xlink:href="#DejaVuSans-34"/>
      </g>
     </g>
    </g>
    <g id="text_14">
     <!-- Mean activity -->
     <g transform="translate(19.3575 165.385625) rotate(-90) scale(0.16 -0.16)">
      <defs>
       <path id="DejaVuSans-4d" d="M 628 4666 
L 1569 4666 
L 2759 1491 
L 3956 4666 
L 4897 4666 
L 4897 0 
L 4281 0 
L 4281 4097 
L 3078 897 
L 2444 897 
L 1241 4097 
L 1241 0 
L 628 0 
L 628 4666 
z
" transform="scale(0.015625)"/>
       <path id="DejaVuSans-61" d="M 2194 1759 
Q 1497 1759 1228 1600 
Q 959 1441 959 1056 
Q 959 750 1161 570 
Q 1363 391 1709 391 
Q 2188 391 2477 730 
Q 2766 1069 2766 1631 
L 2766 1759 
L 2194 1759 
z
M 3341 1997 
L 3341 0 
L 2766 0 
L 2766 531 
Q 2569 213 2275 61 
Q 1981 -91 1556 -91 
Q 1019 -91 701 211 
Q 384 513 384 1019 
Q 384 1609 779 1909 
Q 1175 2209 1959 2209 
L 2766 2209 
L 2766 2266 
Q 2766 2663 2505 2880 
Q 2244 3097 1772 3097 
Q 1472 3097 1187 3025 
Q 903 2953 641 2809 
L 641 3341 
Q 956 3463 1253 3523 
Q 1550 3584 1831 3584 
Q 2591 3584 2966 3190 
Q 3341 2797 3341 1997 
z
" transform="scale(0.015625)"/>
       <path id="DejaVuSans-6e" d="M 3513 2113 
L 3513 0 
L 2938 0 
L 2938 2094 
Q 2938 2591 2744 2837 
Q 2550 3084 2163 3084 
Q 1697 3084 1428 2787 
Q 1159 2491 1159 1978 
L 1159 0 
L 581 0 
L 581 3500 
L 1159 3500 
L 1159 2956 
Q 1366 3272 1645 3428 
Q 1925 3584 2291 3584 
Q 2894 3584 3203 3211 
Q 3513 2838 3513 2113 
z
" transform="scale(0.015625)"/>
       <path id="DejaVuSans-20" transform="scale(0.015625)"/>
       <path id="DejaVuSans-63" d="M 3122 3366 
L 3122 2828 
Q 2878 2963 2633 3030 
Q 2388 3097 2138 3097 
Q 1578 3097 1268 2742 
Q 959 2388 959 1747 
Q 959 1106 1268 751 
Q 1578 397 2138 397 
Q 2388 397 2633 464 
Q 2878 531 3122 666 
L 3122 134 
Q 2881 22 2623 -34 
Q 2366 -91 2075 -91 
Q 1284 -91 818 406 
Q 353 903 353 1747 
Q 353 2603 823 3093 
Q 1294 3584 2113 3584 
Q 2378 3584 2631 3529 
Q 2884 3475 3122 3366 
z
" transform="scale(0.015625)"/>
       <path id="DejaVuSans-74" d="M 1172 4494 
L 1172 3500 
L 2356 3500 
L 2356 3053 
L 1172 3053 
L 1172 1153 
Q 1172 725 1289 603 
Q 1406 481 1766 481 
L 2356 481 
L 2356 0 
L 1766 0 
Q 1100 0 847 248 
Q 594 497 594 1153 
L 594 3053 
L 172 3053 
L 172 3500 
L 594 3500 
L 594 4494 
L 1172 4494 
z
" transform="scale(0.015625)"/>
       <path id="DejaVuSans-76" d="M 191 3500 
L 800 3500 
L 1894 563 
L 2988 3500 
L 3597 3500 
L 2284 0 
L 1503 0 
L 191 3500 
z
" transform="scale(0.015625)"/>
       <path id="DejaVuSans-79" d="M 2059 -325 
Q 1816 -950 1584 -1140 
Q 1353 -1331 966 -1331 
L 506 -1331 
L 506 -850 
L 844 -850 
Q 1081 -850 1212 -737 
Q 1344 -625 1503 -206 
L 1606 56 
L 191 3500 
L 800 3500 
L 1894 763 
L 2988 3500 
L 3597 3500 
L 2059 -325 
z
" transform="scale(0.015625)"/>
      </defs>
      <use xlink:href="#DejaVuSans-4d"/>
      <use xlink:href="#DejaVuSans-65" x="86.279297"/>
      <use xlink:href="#DejaVuSans-61" x="147.802734"/>
      <use xlink:href="#DejaVuSans-6e" x="209.082031"/>
      <use xlink:href="#DejaVuSans-20" x="272.460938"/>
      <use xlink:href="#DejaVuSans-61" x="304.248047"/>
      <use xlink:href="#DejaVuSans-63" x="365.527344"/>
      <use xlink:href="#DejaVuSans-74" x="420.507812"/>
      <use xlink:href="#DejaVuSans-69" x="459.716797"/>
      <use xlink:href="#DejaVuSans-76" x="487.5"/>
      <use xlink:href="#DejaVuSans-69" x="546.679688"/>
      <use xlink:href="#DejaVuSans-74" x="574.462891"/>
      <use xlink:href="#DejaVuSans-79" x="613.671875"/>
     </g>
    </g>
   </g>
   <g id="line2d_13">
    <path d="M 94.592273 187.156875 
L 236.628636 187.156875 
L 241.701364 186.122552 
L 246.774091 184.295762 
L 251.846818 187.156875 
L 363.446818 187.156875 
L 368.519545 186.394442 
L 373.592273 187.156875 
L 378.665 187.079266 
L 388.810455 187.156875 
L 429.392273 187.156875 
L 434.465 183.512789 
L 439.537727 173.187668 
L 444.610455 156.525151 
L 449.683182 114.981351 
L 454.755909 124.067582 
L 459.828636 109.432207 
L 464.901364 116.241437 
L 469.974091 115.034334 
L 475.046818 119.863726 
L 480.119545 130.003722 
L 485.192273 115.756069 
L 490.265 117.163084 
L 495.337727 130.819194 
L 500.410455 156.456357 
L 505.483182 154.714253 
L 510.555909 167.462492 
L 515.628636 156.314183 
L 520.701364 156.058749 
L 525.774091 142.226808 
L 530.846818 106.158982 
L 535.919545 79.147314 
L 540.992273 72.676594 
L 546.065 77.84104 
L 551.137727 81.197994 
L 556.210455 86.219973 
L 561.283182 80.331358 
L 566.355909 89.935756 
L 571.428636 109.171913 
L 576.501364 140.074683 
L 581.574091 141.85084 
L 586.646818 137.058142 
L 591.719545 150.295966 
L 596.792273 126.321818 
L 601.865 149.109255 
L 606.937727 161.609269 
L 612.010455 163.823466 
L 617.083182 168.752083 
L 622.155909 168.52972 
L 627.228636 181.605634 
L 632.301364 179.448082 
L 637.374091 181.51614 
L 642.446818 184.708802 
L 647.519545 187.156875 
L 657.665 187.156875 
L 662.737727 184.013311 
L 667.810455 185.434078 
L 672.883182 176.583898 
L 677.955909 158.045197 
L 683.028636 158.414244 
L 688.101364 130.79398 
L 693.174091 106.072356 
L 698.246818 94.175141 
L 703.319545 102.981912 
L 708.392273 103.93522 
L 713.465 117.84156 
L 718.537727 94.80334 
L 723.610455 124.997055 
L 728.683182 130.158179 
L 733.755909 136.654085 
L 738.828636 126.011296 
L 743.901364 123.634618 
L 748.974091 135.107229 
L 754.046818 156.480488 
L 759.119545 164.916356 
L 764.192273 163.398351 
L 769.265 144.343226 
L 774.337727 121.595078 
L 779.410455 127.848078 
L 784.483182 114.714077 
L 789.555909 96.117487 
L 794.628636 80.61504 
L 799.701364 75.624641 
L 804.774091 76.344316 
L 809.846818 75.713054 
L 814.919545 94.542363 
L 819.992273 118.64972 
L 825.065 156.504127 
L 830.137727 167.373119 
L 835.210455 177.606541 
L 840.283182 179.970818 
L 845.355909 181.930517 
L 850.428636 184.968417 
L 855.501364 187.156875 
L 987.392273 187.156875 
L 992.465 181.62515 
L 997.537727 168.472928 
L 1002.610455 158.809668 
L 1007.683182 132.229859 
L 1012.755909 126.822978 
L 1017.828636 130.817226 
L 1022.901364 133.811806 
L 1027.974091 122.034794 
L 1033.046818 106.512454 
L 1038.119545 93.068794 
L 1043.192273 92.065887 
L 1048.265 73.226671 
L 1053.337727 86.470742 
L 1058.410455 106.637342 
L 1063.483182 107.553433 
L 1068.555909 101.531354 
L 1073.628636 88.256615 
L 1078.701364 98.867287 
L 1083.774091 96.783998 
L 1088.846818 98.833075 
L 1093.919545 111.240377 
L 1098.992273 129.688466 
L 1104.065 153.667081 
L 1104.065 153.667081 
" clip-path="url(#p982a1d2605)" style="fill: none; stroke: #000080; stroke-width: 1.5; stroke-linecap: square"/>
   </g>
   <g id="line2d_14">
    <path d="M 94.592273 175.306285 
L 99.665 110.648561 
L 104.737727 85.773791 
L 109.810455 110.833646 
L 119.955909 145.454312 
L 125.028636 131.135072 
L 130.101364 114.043566 
L 135.174091 115.153357 
L 140.246818 122.956098 
L 145.319545 142.96537 
L 150.392273 145.494701 
L 155.465 131.5616 
L 160.537727 123.979865 
L 165.610455 135.85595 
L 170.683182 131.322623 
L 175.755909 145.292456 
L 180.828636 138.450827 
L 185.901364 104.097759 
L 190.974091 66.091961 
L 196.046818 44.664175 
L 201.119545 86.789464 
L 206.192273 113.644219 
L 211.265 137.412221 
L 216.337727 132.605927 
L 221.410455 134.806201 
L 226.483182 135.948361 
L 231.555909 141.3597 
L 236.628636 166.924784 
L 241.701364 164.063259 
L 246.774091 152.914643 
L 251.846818 139.702005 
L 256.919545 127.321912 
L 261.992273 133.307142 
L 267.065 125.797343 
L 272.137727 132.636575 
L 277.210455 119.875765 
L 282.283182 124.581661 
L 287.355909 103.194624 
L 292.428636 115.892482 
L 297.501364 112.49939 
L 302.574091 124.948372 
L 307.646818 103.524266 
L 312.719545 118.090489 
L 317.792273 129.232472 
L 322.865 99.854021 
L 327.937727 101.448146 
L 333.010455 94.60137 
L 343.155909 129.198227 
L 348.228636 140.558628 
L 353.301364 128.216831 
L 358.374091 138.27357 
L 363.446818 131.387215 
L 368.519545 141.294037 
L 373.592273 143.541838 
L 378.665 130.360147 
L 383.737727 133.20181 
L 388.810455 117.099748 
L 393.883182 115.936236 
L 398.955909 90.393785 
L 404.028636 76.413575 
L 409.101364 104.463361 
L 414.174091 115.475045 
L 419.246818 128.954345 
L 424.319545 140.556738 
L 429.392273 139.94967 
L 434.465 161.298857 
L 439.537727 175.993358 
L 444.610455 179.113372 
L 449.683182 185.049043 
L 454.755909 187.156875 
L 490.265 187.156875 
L 495.337727 185.98443 
L 500.410455 175.891946 
L 505.483182 171.107418 
L 510.555909 183.636322 
L 515.628636 187.156875 
L 520.701364 176.725717 
L 525.774091 187.156875 
L 586.646818 187.156875 
L 591.719545 184.92039 
L 596.792273 178.650328 
L 601.865 175.003867 
L 606.937727 170.868946 
L 612.010455 167.500368 
L 617.083182 168.196279 
L 622.155909 171.125741 
L 627.228636 151.871328 
L 632.301364 158.98518 
L 637.374091 157.445471 
L 642.446818 132.183949 
L 647.519545 121.765799 
L 652.592273 149.668192 
L 657.665 152.248052 
L 662.737727 142.116165 
L 667.810455 143.007276 
L 672.883182 158.317068 
L 677.955909 155.582812 
L 683.028636 182.481953 
L 688.101364 186.059418 
L 693.174091 187.156875 
L 748.974091 187.156875 
L 754.046818 185.817462 
L 759.119545 182.548821 
L 764.192273 186.174262 
L 769.265 181.989705 
L 774.337727 187.156875 
L 819.992273 187.156875 
L 825.065 172.061317 
L 830.137727 144.415451 
L 835.210455 141.624815 
L 840.283182 115.625504 
L 845.355909 94.709969 
L 850.428636 74.446686 
L 855.501364 81.291903 
L 860.574091 99.550737 
L 865.646818 123.009898 
L 870.719545 132.695049 
L 875.792273 153.813178 
L 880.865 147.528922 
L 885.937727 146.01121 
L 891.010455 135.6792 
L 896.083182 100.739328 
L 901.155909 66.752256 
L 906.228636 86.105769 
L 911.301364 110.171142 
L 916.374091 99.194032 
L 921.446818 85.121433 
L 926.519545 83.670679 
L 931.592273 86.151453 
L 936.665 91.416783 
L 941.737727 116.762721 
L 946.810455 137.247805 
L 951.883182 139.747899 
L 956.955909 130.535486 
L 962.028636 119.036654 
L 967.101364 127.906237 
L 972.174091 116.51328 
L 977.246818 125.493605 
L 982.319545 129.748235 
L 987.392273 139.060716 
L 992.465 160.113647 
L 997.537727 168.262654 
L 1002.610455 184.73253 
L 1007.683182 187.156875 
L 1017.828636 187.156875 
L 1022.901364 185.469343 
L 1027.974091 187.156875 
L 1093.919545 187.156875 
L 1098.992273 186.522046 
L 1104.065 184.157946 
L 1104.065 184.157946 
" clip-path="url(#p982a1d2605)" style="fill: none; stroke: #8b0000; stroke-width: 1.5; stroke-linecap: square"/>
   </g>
   <g id="line2d_15">
    <path d="M 94.592273 186.131886 
L 99.665 182.64329 
L 104.737727 181.610536 
L 109.810455 182.881837 
L 114.883182 184.343154 
L 119.955909 185.347706 
L 125.028636 183.929849 
L 130.101364 183.471172 
L 140.246818 183.606198 
L 145.319545 184.17379 
L 150.392273 184.9309 
L 155.465 184.592624 
L 160.537727 182.114781 
L 165.610455 184.320284 
L 170.683182 183.795073 
L 180.828636 183.452432 
L 185.901364 183.249926 
L 190.974091 180.315574 
L 196.046818 180.601802 
L 206.192273 183.064809 
L 211.265 183.629675 
L 216.337727 184.462284 
L 221.410455 183.564773 
L 226.483182 182.328816 
L 231.555909 180.213367 
L 236.628636 179.579999 
L 246.774091 183.774456 
L 256.919545 183.360756 
L 261.992273 183.042131 
L 267.065 182.009312 
L 272.137727 182.244867 
L 277.210455 182.900714 
L 282.283182 183.861713 
L 292.428636 183.355418 
L 297.501364 182.199608 
L 302.574091 183.465172 
L 317.792273 183.458922 
L 322.865 183.469994 
L 327.937727 183.842117 
L 333.010455 182.969056 
L 338.083182 181.859342 
L 343.155909 182.887014 
L 348.228636 184.981607 
L 353.301364 184.424986 
L 358.374091 180.63049 
L 363.446818 175.635927 
L 368.519545 181.40144 
L 373.592273 181.040032 
L 378.665 179.034902 
L 383.737727 182.958594 
L 388.810455 183.379223 
L 393.883182 182.633843 
L 398.955909 183.017918 
L 404.028636 181.134207 
L 414.174091 183.100954 
L 419.246818 184.883424 
L 424.319545 183.012232 
L 429.392273 182.317803 
L 434.465 174.903805 
L 439.537727 175.570105 
L 444.610455 163.864345 
L 449.683182 163.310723 
L 454.755909 163.163669 
L 459.828636 161.932291 
L 464.901364 164.941065 
L 469.974091 168.453597 
L 475.046818 171.444297 
L 485.192273 169.161049 
L 490.265 172.687725 
L 495.337727 178.250458 
L 500.410455 180.577792 
L 505.483182 179.542935 
L 510.555909 177.783657 
L 515.628636 178.57872 
L 520.701364 178.892191 
L 525.774091 169.416637 
L 530.846818 163.277438 
L 540.992273 159.536043 
L 546.065 161.941768 
L 551.137727 161.713428 
L 556.210455 159.878598 
L 561.283182 161.678354 
L 566.355909 163.692267 
L 571.428636 172.606477 
L 576.501364 178.296366 
L 581.574091 178.327401 
L 586.646818 176.209858 
L 591.719545 173.735411 
L 596.792273 173.755836 
L 601.865 178.702085 
L 606.937727 178.932808 
L 612.010455 175.546356 
L 617.083182 178.431577 
L 622.155909 180.572308 
L 627.228636 180.665175 
L 632.301364 179.900642 
L 637.374091 182.141478 
L 642.446818 183.507806 
L 647.519545 184.48987 
L 652.592273 183.584276 
L 657.665 178.791851 
L 662.737727 179.485703 
L 667.810455 178.741026 
L 672.883182 170.84969 
L 677.955909 168.392065 
L 683.028636 168.082467 
L 688.101364 161.732799 
L 693.174091 158.803488 
L 698.246818 157.892546 
L 703.319545 162.348786 
L 708.392273 162.660459 
L 713.465 169.240097 
L 718.537727 165.275097 
L 723.610455 174.76399 
L 728.683182 176.638754 
L 733.755909 173.816899 
L 738.828636 174.327117 
L 743.901364 171.677886 
L 748.974091 174.819314 
L 754.046818 179.111 
L 759.119545 182.23323 
L 764.192273 174.463316 
L 769.265 171.030839 
L 774.337727 168.115684 
L 779.410455 170.089028 
L 784.483182 165.80027 
L 789.555909 161.70537 
L 794.628636 160.735363 
L 799.701364 160.496922 
L 804.774091 159.931346 
L 809.846818 162.03923 
L 814.919545 166.873948 
L 819.992273 176.323495 
L 825.065 180.885222 
L 830.137727 180.0985 
L 835.210455 181.501574 
L 840.283182 180.693651 
L 845.355909 180.770791 
L 850.428636 181.20309 
L 855.501364 183.011894 
L 860.574091 183.008174 
L 865.646818 185.009948 
L 870.719545 186.098143 
L 875.792273 183.116737 
L 880.865 183.495885 
L 885.937727 183.526482 
L 891.010455 183.689532 
L 896.083182 182.868114 
L 901.155909 180.964481 
L 906.228636 181.061855 
L 911.301364 183.074996 
L 921.446818 182.351891 
L 926.519545 181.834253 
L 931.592273 181.703367 
L 936.665 182.24362 
L 941.737727 184.435568 
L 946.810455 183.173604 
L 951.883182 184.391105 
L 956.955909 184.784237 
L 962.028636 183.960524 
L 967.101364 183.968732 
L 972.174091 184.902286 
L 977.246818 183.450033 
L 982.319545 183.153045 
L 987.392273 179.717135 
L 997.537727 173.950309 
L 1002.610455 169.13397 
L 1007.683182 165.051349 
L 1012.755909 169.951194 
L 1017.828636 169.775683 
L 1022.901364 174.003183 
L 1027.974091 171.154716 
L 1033.046818 164.008339 
L 1038.119545 161.364841 
L 1043.192273 161.801114 
L 1048.265 159.955744 
L 1053.337727 166.309184 
L 1058.410455 168.270525 
L 1063.483182 166.839173 
L 1068.555909 165.525575 
L 1073.628636 163.241484 
L 1078.701364 167.348357 
L 1083.774091 167.381204 
L 1088.846818 168.126584 
L 1093.919545 171.847727 
L 1098.992273 177.668499 
L 1104.065 179.769776 
L 1104.065 179.769776 
" clip-path="url(#p982a1d2605)" style="fill: none; stroke-dasharray: 5.55,2.4; stroke-dashoffset: 0; stroke: #0000ff; stroke-width: 1.5"/>
   </g>
   <g id="line2d_16">
    <path d="M 94.592273 172.215933 
L 99.665 161.270439 
L 104.737727 161.435757 
L 109.810455 172.131418 
L 114.883182 174.947875 
L 119.955909 177.218391 
L 125.028636 170.719606 
L 130.101364 168.353985 
L 135.174091 167.42717 
L 140.246818 173.453282 
L 145.319545 178.812523 
L 150.392273 176.884024 
L 155.465 167.630555 
L 160.537727 174.880551 
L 165.610455 175.91183 
L 170.683182 175.139547 
L 175.755909 175.124139 
L 180.828636 172.985931 
L 185.901364 159.066028 
L 190.974091 152.690273 
L 196.046818 159.834735 
L 201.119545 165.890997 
L 206.192273 173.614028 
L 211.265 174.951784 
L 216.337727 173.034996 
L 221.410455 175.745012 
L 226.483182 174.302199 
L 231.555909 178.530434 
L 236.628636 181.388154 
L 241.701364 181.375209 
L 246.774091 176.284768 
L 251.846818 176.466223 
L 256.919545 175.022558 
L 261.992273 171.181286 
L 267.065 174.495309 
L 272.137727 172.873455 
L 277.210455 170.236822 
L 282.283182 167.759822 
L 287.355909 168.864531 
L 292.428636 169.590971 
L 297.501364 170.80901 
L 302.574091 168.01943 
L 312.719545 173.583708 
L 317.792273 173.19071 
L 322.865 165.327228 
L 327.937727 163.463131 
L 333.010455 165.903516 
L 338.083182 172.509847 
L 343.155909 175.958079 
L 348.228636 174.75105 
L 353.301364 172.98517 
L 358.374091 173.187548 
L 363.446818 177.992057 
L 368.519545 176.187355 
L 373.592273 174.942842 
L 378.665 174.523017 
L 383.737727 173.493804 
L 388.810455 170.798354 
L 393.883182 167.490247 
L 398.955909 162.773169 
L 404.028636 164.084154 
L 409.101364 171.736196 
L 414.174091 172.611994 
L 419.246818 172.612296 
L 429.392273 179.209107 
L 434.465 181.380281 
L 439.537727 182.139964 
L 444.610455 184.381101 
L 449.683182 185.548529 
L 454.755909 184.901961 
L 459.828636 185.636464 
L 464.901364 186.562151 
L 469.974091 186.422231 
L 475.046818 185.792183 
L 485.192273 186.919177 
L 490.265 187.156045 
L 495.337727 185.195773 
L 500.410455 180.178796 
L 505.483182 180.769737 
L 510.555909 183.12599 
L 515.628636 184.722561 
L 520.701364 181.897103 
L 525.774091 185.342863 
L 530.846818 186.939016 
L 535.919545 186.47383 
L 546.065 187.156875 
L 551.137727 186.193173 
L 556.210455 186.531785 
L 561.283182 186.075143 
L 566.355909 186.991573 
L 571.428636 186.963052 
L 576.501364 186.198073 
L 581.574091 186.43717 
L 586.646818 185.246102 
L 591.719545 184.528312 
L 596.792273 181.35283 
L 601.865 179.584417 
L 606.937727 178.016812 
L 612.010455 177.994971 
L 617.083182 179.192972 
L 622.155909 179.269458 
L 627.228636 180.120039 
L 632.301364 178.35377 
L 637.374091 176.23901 
L 642.446818 172.639048 
L 647.519545 173.104983 
L 652.592273 177.874034 
L 657.665 176.231036 
L 662.737727 177.15138 
L 667.810455 176.930738 
L 672.883182 178.899184 
L 677.955909 180.013995 
L 683.028636 184.788229 
L 688.101364 185.246899 
L 698.246818 185.683216 
L 703.319545 186.099662 
L 708.392273 185.625772 
L 713.465 186.196518 
L 718.537727 185.956404 
L 723.610455 186.134101 
L 728.683182 185.686983 
L 733.755909 186.157943 
L 738.828636 186.797381 
L 743.901364 186.990483 
L 748.974091 186.260508 
L 754.046818 184.928476 
L 759.119545 182.669153 
L 764.192273 183.314724 
L 769.265 186.399707 
L 779.410455 186.877713 
L 784.483182 186.339421 
L 789.555909 187.156875 
L 794.628636 186.375232 
L 799.701364 186.625453 
L 809.846818 186.598533 
L 814.919545 186.525276 
L 819.992273 186.234057 
L 825.065 177.743741 
L 830.137727 172.814849 
L 835.210455 172.319755 
L 840.283182 164.391499 
L 845.355909 159.794438 
L 850.428636 161.304148 
L 855.501364 161.536 
L 860.574091 167.477099 
L 865.646818 171.170768 
L 870.719545 175.045513 
L 875.792273 177.959309 
L 880.865 176.034683 
L 885.937727 177.484441 
L 891.010455 173.882442 
L 896.083182 156.654833 
L 901.155909 155.392091 
L 906.228636 168.087164 
L 911.301364 169.172853 
L 916.374091 165.693584 
L 921.446818 162.788026 
L 926.519545 162.425607 
L 931.592273 161.809849 
L 936.665 168.02945 
L 941.737727 174.620617 
L 946.810455 177.816546 
L 951.883182 175.033997 
L 956.955909 170.267673 
L 962.028636 171.621086 
L 967.101364 171.324722 
L 972.174091 172.771646 
L 977.246818 169.766007 
L 987.392273 180.142258 
L 992.465 182.435257 
L 997.537727 182.205058 
L 1002.610455 185.496751 
L 1007.683182 185.367132 
L 1012.755909 187.072687 
L 1017.828636 185.312924 
L 1022.901364 185.518875 
L 1027.974091 185.373524 
L 1033.046818 186.422196 
L 1038.119545 187.000947 
L 1043.192273 185.659494 
L 1053.337727 186.551758 
L 1058.410455 186.314953 
L 1063.483182 186.536547 
L 1068.555909 187.099804 
L 1073.628636 187.156875 
L 1078.701364 186.659275 
L 1083.774091 186.930095 
L 1088.846818 186.59058 
L 1093.919545 187.118086 
L 1098.992273 185.287043 
L 1104.065 182.156601 
L 1104.065 182.156601 
" clip-path="url(#p982a1d2605)" style="fill: none; stroke-dasharray: 5.55,2.4; stroke-dashoffset: 0; stroke: #ff0000; stroke-width: 1.5"/>
   </g>
   <g id="patch_3">
    <path d="M 43.865 194.716875 
L 43.865 28.396875 
" style="fill: none; stroke: #000000; stroke-width: 0.8; stroke-linejoin: miter; stroke-linecap: square"/>
   </g>
   <g id="patch_4">
    <path d="M 1159.865 194.716875 
L 1159.865 28.396875 
" style="fill: none; stroke: #000000; stroke-width: 0.8; stroke-linejoin: miter; stroke-linecap: square"/>
   </g>
   <g id="patch_5">
    <path d="M 43.865 194.716875 
L 1159.865 194.716875 
" style="fill: none; stroke: #000000; stroke-width: 0.8; stroke-linejoin: miter; stroke-linecap: square"/>
   </g>
   <g id="patch_6">
    <path d="M 43.865 28.396875 
L 1159.865 28.396875 
" style="fill: none; stroke: #000000; stroke-width: 0.8; stroke-linejoin: miter; stroke-linecap: square"/>
   </g>
   <g id="text_15">
    <!-- Mean activity of Kick Neurons and Noise Integrating Populations -->
    <g transform="translate(280.915 22.396875) scale(0.2 -0.2)">
     <defs>
      <path id="DejaVuSans-6f" d="M 1959 3097 
Q 1497 3097 1228 2736 
Q 959 2375 959 1747 
Q 959 1119 1226 758 
Q 1494 397 1959 397 
Q 2419 397 2687 759 
Q 2956 1122 2956 1747 
Q 2956 2369 2687 2733 
Q 2419 3097 1959 3097 
z
M 1959 3584 
Q 2709 3584 3137 3096 
Q 3566 2609 3566 1747 
Q 3566 888 3137 398 
Q 2709 -91 1959 -91 
Q 1206 -91 779 398 
Q 353 888 353 1747 
Q 353 2609 779 3096 
Q 1206 3584 1959 3584 
z
" transform="scale(0.015625)"/>
      <path id="DejaVuSans-66" d="M 2375 4863 
L 2375 4384 
L 1825 4384 
Q 1516 4384 1395 4259 
Q 1275 4134 1275 3809 
L 1275 3500 
L 2222 3500 
L 2222 3053 
L 1275 3053 
L 1275 0 
L 697 0 
L 697 3053 
L 147 3053 
L 147 3500 
L 697 3500 
L 697 3744 
Q 697 4328 969 4595 
Q 1241 4863 1831 4863 
L 2375 4863 
z
" transform="scale(0.015625)"/>
      <path id="DejaVuSans-4b" d="M 628 4666 
L 1259 4666 
L 1259 2694 
L 3353 4666 
L 4166 4666 
L 1850 2491 
L 4331 0 
L 3500 0 
L 1259 2247 
L 1259 0 
L 628 0 
L 628 4666 
z
" transform="scale(0.015625)"/>
      <path id="DejaVuSans-6b" d="M 581 4863 
L 1159 4863 
L 1159 1991 
L 2875 3500 
L 3609 3500 
L 1753 1863 
L 3688 0 
L 2938 0 
L 1159 1709 
L 1159 0 
L 581 0 
L 581 4863 
z
" transform="scale(0.015625)"/>
      <path id="DejaVuSans-4e" d="M 628 4666 
L 1478 4666 
L 3547 763 
L 3547 4666 
L 4159 4666 
L 4159 0 
L 3309 0 
L 1241 3903 
L 1241 0 
L 628 0 
L 628 4666 
z
" transform="scale(0.015625)"/>
      <path id="DejaVuSans-75" d="M 544 1381 
L 544 3500 
L 1119 3500 
L 1119 1403 
Q 1119 906 1312 657 
Q 1506 409 1894 409 
Q 2359 409 2629 706 
Q 2900 1003 2900 1516 
L 2900 3500 
L 3475 3500 
L 3475 0 
L 2900 0 
L 2900 538 
Q 2691 219 2414 64 
Q 2138 -91 1772 -91 
Q 1169 -91 856 284 
Q 544 659 544 1381 
z
M 1991 3584 
L 1991 3584 
z
" transform="scale(0.015625)"/>
      <path id="DejaVuSans-72" d="M 2631 2963 
Q 2534 3019 2420 3045 
Q 2306 3072 2169 3072 
Q 1681 3072 1420 2755 
Q 1159 2438 1159 1844 
L 1159 0 
L 581 0 
L 581 3500 
L 1159 3500 
L 1159 2956 
Q 1341 3275 1631 3429 
Q 1922 3584 2338 3584 
Q 2397 3584 2469 3576 
Q 2541 3569 2628 3553 
L 2631 2963 
z
" transform="scale(0.015625)"/>
      <path id="DejaVuSans-73" d="M 2834 3397 
L 2834 2853 
Q 2591 2978 2328 3040 
Q 2066 3103 1784 3103 
Q 1356 3103 1142 2972 
Q 928 2841 928 2578 
Q 928 2378 1081 2264 
Q 1234 2150 1697 2047 
L 1894 2003 
Q 2506 1872 2764 1633 
Q 3022 1394 3022 966 
Q 3022 478 2636 193 
Q 2250 -91 1575 -91 
Q 1294 -91 989 -36 
Q 684 19 347 128 
L 347 722 
Q 666 556 975 473 
Q 1284 391 1588 391 
Q 1994 391 2212 530 
Q 2431 669 2431 922 
Q 2431 1156 2273 1281 
Q 2116 1406 1581 1522 
L 1381 1569 
Q 847 1681 609 1914 
Q 372 2147 372 2553 
Q 372 3047 722 3315 
Q 1072 3584 1716 3584 
Q 2034 3584 2315 3537 
Q 2597 3491 2834 3397 
z
" transform="scale(0.015625)"/>
      <path id="DejaVuSans-64" d="M 2906 2969 
L 2906 4863 
L 3481 4863 
L 3481 0 
L 2906 0 
L 2906 525 
Q 2725 213 2448 61 
Q 2172 -91 1784 -91 
Q 1150 -91 751 415 
Q 353 922 353 1747 
Q 353 2572 751 3078 
Q 1150 3584 1784 3584 
Q 2172 3584 2448 3432 
Q 2725 3281 2906 2969 
z
M 947 1747 
Q 947 1113 1208 752 
Q 1469 391 1925 391 
Q 2381 391 2643 752 
Q 2906 1113 2906 1747 
Q 2906 2381 2643 2742 
Q 2381 3103 1925 3103 
Q 1469 3103 1208 2742 
Q 947 2381 947 1747 
z
" transform="scale(0.015625)"/>
      <path id="DejaVuSans-49" d="M 628 4666 
L 1259 4666 
L 1259 0 
L 628 0 
L 628 4666 
z
" transform="scale(0.015625)"/>
      <path id="DejaVuSans-67" d="M 2906 1791 
Q 2906 2416 2648 2759 
Q 2391 3103 1925 3103 
Q 1463 3103 1205 2759 
Q 947 2416 947 1791 
Q 947 1169 1205 825 
Q 1463 481 1925 481 
Q 2391 481 2648 825 
Q 2906 1169 2906 1791 
z
M 3481 434 
Q 3481 -459 3084 -895 
Q 2688 -1331 1869 -1331 
Q 1566 -1331 1297 -1286 
Q 1028 -1241 775 -1147 
L 775 -588 
Q 1028 -725 1275 -790 
Q 1522 -856 1778 -856 
Q 2344 -856 2625 -561 
Q 2906 -266 2906 331 
L 2906 616 
Q 2728 306 2450 153 
Q 2172 0 1784 0 
Q 1141 0 747 490 
Q 353 981 353 1791 
Q 353 2603 747 3093 
Q 1141 3584 1784 3584 
Q 2172 3584 2450 3431 
Q 2728 3278 2906 2969 
L 2906 3500 
L 3481 3500 
L 3481 434 
z
" transform="scale(0.015625)"/>
      <path id="DejaVuSans-50" d="M 1259 4147 
L 1259 2394 
L 2053 2394 
Q 2494 2394 2734 2622 
Q 2975 2850 2975 3272 
Q 2975 3691 2734 3919 
Q 2494 4147 2053 4147 
L 1259 4147 
z
M 628 4666 
L 2053 4666 
Q 2838 4666 3239 4311 
Q 3641 3956 3641 3272 
Q 3641 2581 3239 2228 
Q 2838 1875 2053 1875 
L 1259 1875 
L 1259 0 
L 628 0 
L 628 4666 
z
" transform="scale(0.015625)"/>
      <path id="DejaVuSans-70" d="M 1159 525 
L 1159 -1331 
L 581 -1331 
L 581 3500 
L 1159 3500 
L 1159 2969 
Q 1341 3281 1617 3432 
Q 1894 3584 2278 3584 
Q 2916 3584 3314 3078 
Q 3713 2572 3713 1747 
Q 3713 922 3314 415 
Q 2916 -91 2278 -91 
Q 1894 -91 1617 61 
Q 1341 213 1159 525 
z
M 3116 1747 
Q 3116 2381 2855 2742 
Q 2594 3103 2138 3103 
Q 1681 3103 1420 2742 
Q 1159 2381 1159 1747 
Q 1159 1113 1420 752 
Q 1681 391 2138 391 
Q 2594 391 2855 752 
Q 3116 1113 3116 1747 
z
" transform="scale(0.015625)"/>
      <path id="DejaVuSans-6c" d="M 603 4863 
L 1178 4863 
L 1178 0 
L 603 0 
L 603 4863 
z
" transform="scale(0.015625)"/>
     </defs>
     <use xlink:href="#DejaVuSans-4d"/>
     <use xlink:href="#DejaVuSans-65" x="86.279297"/>
     <use xlink:href="#DejaVuSans-61" x="147.802734"/>
     <use xlink:href="#DejaVuSans-6e" x="209.082031"/>
     <use xlink:href="#DejaVuSans-20" x="272.460938"/>
     <use xlink:href="#DejaVuSans-61" x="304.248047"/>
     <use xlink:href="#DejaVuSans-63" x="365.527344"/>
     <use xlink:href="#DejaVuSans-74" x="420.507812"/>
     <use xlink:href="#DejaVuSans-69" x="459.716797"/>
     <use xlink:href="#DejaVuSans-76" x="487.5"/>
     <use xlink:href="#DejaVuSans-69" x="546.679688"/>
     <use xlink:href="#DejaVuSans-74" x="574.462891"/>
     <use xlink:href="#DejaVuSans-79" x="613.671875"/>
     <use xlink:href="#DejaVuSans-20" x="672.851562"/>
     <use xlink:href="#DejaVuSans-6f" x="704.638672"/>
     <use xlink:href="#DejaVuSans-66" x="765.820312"/>
     <use xlink:href="#DejaVuSans-20" x="801.025391"/>
     <use xlink:href="#DejaVuSans-4b" x="832.8125"/>
     <use xlink:href="#DejaVuSans-69" x="898.388672"/>
     <use xlink:href="#DejaVuSans-63" x="926.171875"/>
     <use xlink:href="#DejaVuSans-6b" x="981.152344"/>
     <use xlink:href="#DejaVuSans-20" x="1039.0625"/>
     <use xlink:href="#DejaVuSans-4e" x="1070.849609"/>
     <use xlink:href="#DejaVuSans-65" x="1145.654297"/>
     <use xlink:href="#DejaVuSans-75" x="1207.177734"/>
     <use xlink:href="#DejaVuSans-72" x="1270.556641"/>
     <use xlink:href="#DejaVuSans-6f" x="1309.419922"/>
     <use xlink:href="#DejaVuSans-6e" x="1370.601562"/>
     <use xlink:href="#DejaVuSans-73" x="1433.980469"/>
     <use xlink:href="#DejaVuSans-20" x="1486.080078"/>
     <use xlink:href="#DejaVuSans-61" x="1517.867188"/>
     <use xlink:href="#DejaVuSans-6e" x="1579.146484"/>
     <use xlink:href="#DejaVuSans-64" x="1642.525391"/>
     <use xlink:href="#DejaVuSans-20" x="1706.001953"/>
     <use xlink:href="#DejaVuSans-4e" x="1737.789062"/>
     <use xlink:href="#DejaVuSans-6f" x="1812.59375"/>
     <use xlink:href="#DejaVuSans-69" x="1873.775391"/>
     <use xlink:href="#DejaVuSans-73" x="1901.558594"/>
     <use xlink:href="#DejaVuSans-65" x="1953.658203"/>
     <use xlink:href="#DejaVuSans-20" x="2015.181641"/>
     <use xlink:href="#DejaVuSans-49" x="2046.96875"/>
     <use xlink:href="#DejaVuSans-6e" x="2076.460938"/>
     <use xlink:href="#DejaVuSans-74" x="2139.839844"/>
     <use xlink:href="#DejaVuSans-65" x="2179.048828"/>
     <use xlink:href="#DejaVuSans-67" x="2240.572266"/>
     <use xlink:href="#DejaVuSans-72" x="2304.048828"/>
     <use xlink:href="#DejaVuSans-61" x="2345.162109"/>
     <use xlink:href="#DejaVuSans-74" x="2406.441406"/>
     <use xlink:href="#DejaVuSans-69" x="2445.650391"/>
     <use xlink:href="#DejaVuSans-6e" x="2473.433594"/>
     <use xlink:href="#DejaVuSans-67" x="2536.8125"/>
     <use xlink:href="#DejaVuSans-20" x="2600.289062"/>
     <use xlink:href="#DejaVuSans-50" x="2632.076172"/>
     <use xlink:href="#DejaVuSans-6f" x="2688.753906"/>
     <use xlink:href="#DejaVuSans-70" x="2749.935547"/>
     <use xlink:href="#DejaVuSans-75" x="2813.412109"/>
     <use xlink:href="#DejaVuSans-6c" x="2876.791016"/>
     <use xlink:href="#DejaVuSans-61" x="2904.574219"/>
     <use xlink:href="#DejaVuSans-74" x="2965.853516"/>
     <use xlink:href="#DejaVuSans-69" x="3005.0625"/>
     <use xlink:href="#DejaVuSans-6f" x="3032.845703"/>
     <use xlink:href="#DejaVuSans-6e" x="3094.027344"/>
     <use xlink:href="#DejaVuSans-73" x="3157.40625"/>
    </g>
   </g>
   <g id="legend_1">
    <g id="patch_7">
     <path d="M 1009.641875 108.451875 
L 1151.465 108.451875 
Q 1153.865 108.451875 1153.865 106.051875 
L 1153.865 36.796875 
Q 1153.865 34.396875 1151.465 34.396875 
L 1009.641875 34.396875 
Q 1007.241875 34.396875 1007.241875 36.796875 
L 1007.241875 106.051875 
Q 1007.241875 108.451875 1009.641875 108.451875 
z
" style="fill: #ffffff; opacity: 0.8; stroke: #cccccc; stroke-linejoin: miter"/>
    </g>
    <g id="line2d_17">
     <path d="M 1012.041875 44.115 
L 1024.041875 44.115 
L 1036.041875 44.115 
" style="fill: none; stroke: #000080; stroke-width: 1.5; stroke-linecap: square"/>
    </g>
    <g id="text_16">
     <!-- Kick Group 1 -->
     <g transform="translate(1045.641875 48.315) scale(0.12 -0.12)">
      <defs>
       <path id="DejaVuSans-47" d="M 3809 666 
L 3809 1919 
L 2778 1919 
L 2778 2438 
L 4434 2438 
L 4434 434 
Q 4069 175 3628 42 
Q 3188 -91 2688 -91 
Q 1594 -91 976 548 
Q 359 1188 359 2328 
Q 359 3472 976 4111 
Q 1594 4750 2688 4750 
Q 3144 4750 3555 4637 
Q 3966 4525 4313 4306 
L 4313 3634 
Q 3963 3931 3569 4081 
Q 3175 4231 2741 4231 
Q 1884 4231 1454 3753 
Q 1025 3275 1025 2328 
Q 1025 1384 1454 906 
Q 1884 428 2741 428 
Q 3075 428 3337 486 
Q 3600 544 3809 666 
z
" transform="scale(0.015625)"/>
      </defs>
      <use xlink:href="#DejaVuSans-4b"/>
      <use xlink:href="#DejaVuSans-69" x="65.576172"/>
      <use xlink:href="#DejaVuSans-63" x="93.359375"/>
      <use xlink:href="#DejaVuSans-6b" x="148.339844"/>
      <use xlink:href="#DejaVuSans-20" x="206.25"/>
      <use xlink:href="#DejaVuSans-47" x="238.037109"/>
      <use xlink:href="#DejaVuSans-72" x="315.527344"/>
      <use xlink:href="#DejaVuSans-6f" x="354.390625"/>
      <use xlink:href="#DejaVuSans-75" x="415.572266"/>
      <use xlink:href="#DejaVuSans-70" x="478.951172"/>
      <use xlink:href="#DejaVuSans-20" x="542.427734"/>
      <use xlink:href="#DejaVuSans-31" x="574.214844"/>
     </g>
    </g>
    <g id="line2d_18">
     <path d="M 1012.041875 61.72875 
L 1024.041875 61.72875 
L 1036.041875 61.72875 
" style="fill: none; stroke: #8b0000; stroke-width: 1.5; stroke-linecap: square"/>
    </g>
    <g id="text_17">
     <!-- Kick Group 2 -->
     <g transform="translate(1045.641875 65.92875) scale(0.12 -0.12)">
      <use xlink:href="#DejaVuSans-4b"/>
      <use xlink:href="#DejaVuSans-69" x="65.576172"/>
      <use xlink:href="#DejaVuSans-63" x="93.359375"/>
      <use xlink:href="#DejaVuSans-6b" x="148.339844"/>
      <use xlink:href="#DejaVuSans-20" x="206.25"/>
      <use xlink:href="#DejaVuSans-47" x="238.037109"/>
      <use xlink:href="#DejaVuSans-72" x="315.527344"/>
      <use xlink:href="#DejaVuSans-6f" x="354.390625"/>
      <use xlink:href="#DejaVuSans-75" x="415.572266"/>
      <use xlink:href="#DejaVuSans-70" x="478.951172"/>
      <use xlink:href="#DejaVuSans-20" x="542.427734"/>
      <use xlink:href="#DejaVuSans-32" x="574.214844"/>
     </g>
    </g>
    <g id="line2d_19">
     <path d="M 1012.041875 79.3425 
L 1024.041875 79.3425 
L 1036.041875 79.3425 
" style="fill: none; stroke-dasharray: 5.55,2.4; stroke-dashoffset: 0; stroke: #0000ff; stroke-width: 1.5"/>
    </g>
    <g id="text_18">
     <!-- Integrating Pop 1 -->
     <g transform="translate(1045.641875 83.5425) scale(0.12 -0.12)">
      <use xlink:href="#DejaVuSans-49"/>
      <use xlink:href="#DejaVuSans-6e" x="29.492188"/>
      <use xlink:href="#DejaVuSans-74" x="92.871094"/>
      <use xlink:href="#DejaVuSans-65" x="132.080078"/>
      <use xlink:href="#DejaVuSans-67" x="193.603516"/>
      <use xlink:href="#DejaVuSans-72" x="257.080078"/>
      <use xlink:href="#DejaVuSans-61" x="298.193359"/>
      <use xlink:href="#DejaVuSans-74" x="359.472656"/>
      <use xlink:href="#DejaVuSans-69" x="398.681641"/>
      <use xlink:href="#DejaVuSans-6e" x="426.464844"/>
      <use xlink:href="#DejaVuSans-67" x="489.84375"/>
      <use xlink:href="#DejaVuSans-20" x="553.320312"/>
      <use xlink:href="#DejaVuSans-50" x="585.107422"/>
      <use xlink:href="#DejaVuSans-6f" x="641.785156"/>
      <use xlink:href="#DejaVuSans-70" x="702.966797"/>
      <use xlink:href="#DejaVuSans-20" x="766.443359"/>
      <use xlink:href="#DejaVuSans-31" x="798.230469"/>
     </g>
    </g>
    <g id="line2d_20">
     <path d="M 1012.041875 96.95625 
L 1024.041875 96.95625 
L 1036.041875 96.95625 
" style="fill: none; stroke-dasharray: 5.55,2.4; stroke-dashoffset: 0; stroke: #ff0000; stroke-width: 1.5"/>
    </g>
    <g id="text_19">
     <!-- Integrating Pop 2 -->
     <g transform="translate(1045.641875 101.15625) scale(0.12 -0.12)">
      <use xlink:href="#DejaVuSans-49"/>
      <use xlink:href="#DejaVuSans-6e" x="29.492188"/>
      <use xlink:href="#DejaVuSans-74" x="92.871094"/>
      <use xlink:href="#DejaVuSans-65" x="132.080078"/>
      <use xlink:href="#DejaVuSans-67" x="193.603516"/>
      <use xlink:href="#DejaVuSans-72" x="257.080078"/>
      <use xlink:href="#DejaVuSans-61" x="298.193359"/>
      <use xlink:href="#DejaVuSans-74" x="359.472656"/>
      <use xlink:href="#DejaVuSans-69" x="398.681641"/>
      <use xlink:href="#DejaVuSans-6e" x="426.464844"/>
      <use xlink:href="#DejaVuSans-67" x="489.84375"/>
      <use xlink:href="#DejaVuSans-20" x="553.320312"/>
      <use xlink:href="#DejaVuSans-50" x="585.107422"/>
      <use xlink:href="#DejaVuSans-6f" x="641.785156"/>
      <use xlink:href="#DejaVuSans-70" x="702.966797"/>
      <use xlink:href="#DejaVuSans-20" x="766.443359"/>
      <use xlink:href="#DejaVuSans-32" x="798.230469"/>
     </g>
    </g>
   </g>
  </g>
 </g>
 <defs>
  <clipPath id="p982a1d2605">
   <rect x="43.865" y="28.396875" width="1116" height="166.32"/>
  </clipPath>
 </defs>
</svg>
