<?xml version="1.0" encoding="utf-8" standalone="no"?>
<!DOCTYPE svg PUBLIC "-//W3C//DTD SVG 1.1//EN"
  "http://www.w3.org/Graphics/SVG/1.1/DTD/svg11.dtd">
<svg xmlns:xlink="http://www.w3.org/1999/xlink" width="1167.065pt" height="243.886875pt" viewBox="0 0 1167.065 243.886875" xmlns="http://www.w3.org/2000/svg" version="1.1">
 <metadata>
  <rdf:RDF xmlns:dc="http://purl.org/dc/elements/1.1/" xmlns:cc="http://creativecommons.org/ns#" xmlns:rdf="http://www.w3.org/1999/02/22-rdf-syntax-ns#">
   <cc:Work>
    <dc:type rdf:resource="http://purl.org/dc/dcmitype/StillImage"/>
    <dc:date>2025-10-19T18:58:21.476393</dc:date>
    <dc:format>image/svg+xml</dc:format>
    <dc:creator>
     <cc:Agent>
      <dc:title>Matplotlib v3.9.2, https://matplotlib.org/</dc:title>
     </cc:Agent>
    </dc:creator>
   </cc:Work>
  </rdf:RDF>
 </metadata>
 <defs>
  <style type="text/css">*{stroke-linejoin: round; stroke-linecap: butt}</style>
 </defs>
 <g id="figure_1">
  <g id="patch_1">
   <path d="M 0 243.886875 
L 1167.065 243.886875 
L 1167.065 0 
L 0 0 
z
" style="fill: #ffffff"/>
  </g>
  <g id="axes_1">
   <g id="patch_2">
    <path d="M 43.865 194.716875 
L 1159.865 194.716875 
L 1159.865 28.396875 
L 43.865 28.396875 
z
" style="fill: #ffffff"/>
   </g>
   <g id="PolyCollection_1">
    <defs>
     <path id="ma9985bfa65" d="M 185.901364 -56.73 
L 94.592273 -56.73 
L 94.592273 -207.93 
L 185.901364 -207.93 
L 185.901364 -207.93 
L 185.901364 -56.73 
z
" style="stroke: #d3d3d3; stroke-opacity: 0.4"/>
    </defs>
    <g clip-path="url(#p85db842e4e)">
     <use xlink:href="#ma9985bfa65" x="0" y="243.886875" style="fill: #d3d3d3; fill-opacity: 0.4; stroke: #d3d3d3; stroke-opacity: 0.4"/>
    </g>
   </g>
   <g id="PolyCollection_2">
    <defs>
     <path id="m35b1c4f194" d="M 267.065 -56.73 
L 185.901364 -56.73 
L 185.901364 -207.93 
L 267.065 -207.93 
L 267.065 -207.93 
L 267.065 -56.73 
z
" style="stroke: #a9a9a9; stroke-opacity: 0.4"/>
    </defs>
    <g clip-path="url(#p85db842e4e)">
     <use xlink:href="#m35b1c4f194" x="0" y="243.886875" style="fill: #a9a9a9; fill-opacity: 0.4; stroke: #a9a9a9; stroke-opacity: 0.4"/>
    </g>
   </g>
   <g id="PolyCollection_3">
    <defs>
     <path id="m859e4f84eb" d="M 373.592273 -56.73 
L 267.065 -56.73 
L 267.065 -207.93 
L 373.592273 -207.93 
L 373.592273 -207.93 
L 373.592273 -56.73 
z
" style="stroke: #d3d3d3; stroke-opacity: 0.4"/>
    </defs>
    <g clip-path="url(#p85db842e4e)">
     <use xlink:href="#m859e4f84eb" x="0" y="243.886875" style="fill: #d3d3d3; fill-opacity: 0.4; stroke: #d3d3d3; stroke-opacity: 0.4"/>
    </g>
   </g>
   <g id="PolyCollection_4">
    <defs>
     <path id="m5bff8d3ad1" d="M 632.301364 -56.73 
L 373.592273 -56.73 
L 373.592273 -207.93 
L 632.301364 -207.93 
L 632.301364 -207.93 
L 632.301364 -56.73 
z
" style="stroke: #a9a9a9; stroke-opacity: 0.4"/>
    </defs>
    <g clip-path="url(#p85db842e4e)">
     <use xlink:href="#m5bff8d3ad1" x="0" y="243.886875" style="fill: #a9a9a9; fill-opacity: 0.4; stroke: #a9a9a9; stroke-opacity: 0.4"/>
    </g>
   </g>
   <g id="PolyCollection_5">
    <defs>
     <path id="m19ed112433" d="M 891.010455 -56.73 
L 632.301364 -56.73 
L 632.301364 -207.93 
L 891.010455 -207.93 
L 891.010455 -207.93 
L 891.010455 -56.73 
z
" style="stroke: #d3d3d3; stroke-opacity: 0.4"/>
    </defs>
    <g clip-path="url(#p85db842e4e)">
     <use xlink:href="#m19ed112433" x="0" y="243.886875" style="fill: #d3d3d3; fill-opacity: 0.4; stroke: #d3d3d3; stroke-opacity: 0.4"/>
    </g>
   </g>
   <g id="PolyCollection_6">
    <defs>
     <path id="mb42ff214f2" d="M 1109.137727 -56.73 
L 891.010455 -56.73 
L 891.010455 -207.93 
L 1109.137727 -207.93 
L 1109.137727 -207.93 
L 1109.137727 -56.73 
z
" style="stroke: #d3d3d3; stroke-opacity: 0.4"/>
    </defs>
    <g clip-path="url(#p85db842e4e)">
     <use xlink:href="#mb42ff214f2" x="0" y="243.886875" style="fill: #d3d3d3; fill-opacity: 0.4; stroke: #d3d3d3; stroke-opacity: 0.4"/>
    </g>
   </g>
   <g id="matplotlib.axis_1">
    <g id="xtick_1">
     <g id="line2d_1">
      <defs>
       <path id="m23bcedf6a6" d="M 0 0 
L 0 3.5 
" style="stroke: #000000; stroke-width: 0.8"/>
      </defs>
      <g>
       <use xlink:href="#m23bcedf6a6" x="94.592273" y="194.716875" style="stroke: #000000; stroke-width: 0.8"/>
      </g>
     </g>
     <g id="text_1">
      <!-- 0 -->
      <g transform="translate(89.502273 213.874375) scale(0.16 -0.16)">
       <defs>
        <path id="DejaVuSans-30" d="M 2034 4250 
Q 1547 4250 1301 3770 
Q 1056 3291 1056 2328 
Q 1056 1369 1301 889 
Q 1547 409 2034 409 
Q 2525 409 2770 889 
Q 3016 1369 3016 2328 
Q 3016 3291 2770 3770 
Q 2525 4250 2034 4250 
z
M 2034 4750 
Q 2819 4750 3233 4129 
Q 3647 3509 3647 2328 
Q 3647 1150 3233 529 
Q 2819 -91 2034 -91 
Q 1250 -91 836 529 
Q 422 1150 422 2328 
Q 422 3509 836 4129 
Q 1250 4750 2034 4750 
z
" transform="scale(0.015625)"/>
       </defs>
       <use xlink:href="#DejaVuSans-30"/>
      </g>
     </g>
    </g>
    <g id="xtick_2">
     <g id="line2d_2">
      <g>
       <use xlink:href="#m23bcedf6a6" x="221.410455" y="194.716875" style="stroke: #000000; stroke-width: 0.8"/>
      </g>
     </g>
     <g id="text_2">
      <!-- 25 -->
      <g transform="translate(211.230455 213.874375) scale(0.16 -0.16)">
       <defs>
        <path id="DejaVuSans-32" d="M 1228 531 
L 3431 531 
L 3431 0 
L 469 0 
L 469 531 
Q 828 903 1448 1529 
Q 2069 2156 2228 2338 
Q 2531 2678 2651 2914 
Q 2772 3150 2772 3378 
Q 2772 3750 2511 3984 
Q 2250 4219 1831 4219 
Q 1534 4219 1204 4116 
Q 875 4013 500 3803 
L 500 4441 
Q 881 4594 1212 4672 
Q 1544 4750 1819 4750 
Q 2544 4750 2975 4387 
Q 3406 4025 3406 3419 
Q 3406 3131 3298 2873 
Q 3191 2616 2906 2266 
Q 2828 2175 2409 1742 
Q 1991 1309 1228 531 
z
" transform="scale(0.015625)"/>
        <path id="DejaVuSans-35" d="M 691 4666 
L 3169 4666 
L 3169 4134 
L 1269 4134 
L 1269 2991 
Q 1406 3038 1543 3061 
Q 1681 3084 1819 3084 
Q 2600 3084 3056 2656 
Q 3513 2228 3513 1497 
Q 3513 744 3044 326 
Q 2575 -91 1722 -91 
Q 1428 -91 1123 -41 
Q 819 9 494 109 
L 494 744 
Q 775 591 1075 516 
Q 1375 441 1709 441 
Q 2250 441 2565 725 
Q 2881 1009 2881 1497 
Q 2881 1984 2565 2268 
Q 2250 2553 1709 2553 
Q 1456 2553 1204 2497 
Q 953 2441 691 2322 
L 691 4666 
z
" transform="scale(0.015625)"/>
       </defs>
       <use xlink:href="#DejaVuSans-32"/>
       <use xlink:href="#DejaVuSans-35" x="63.623047"/>
      </g>
     </g>
    </g>
    <g id="xtick_3">
     <g id="line2d_3">
      <g>
       <use xlink:href="#m23bcedf6a6" x="348.228636" y="194.716875" style="stroke: #000000; stroke-width: 0.8"/>
      </g>
     </g>
     <g id="text_3">
      <!-- 50 -->
      <g transform="translate(338.048636 213.874375) scale(0.16 -0.16)">
       <use xlink:href="#DejaVuSans-35"/>
       <use xlink:href="#DejaVuSans-30" x="63.623047"/>
      </g>
     </g>
    </g>
    <g id="xtick_4">
     <g id="line2d_4">
      <g>
       <use xlink:href="#m23bcedf6a6" x="475.046818" y="194.716875" style="stroke: #000000; stroke-width: 0.8"/>
      </g>
     </g>
     <g id="text_4">
      <!-- 75 -->
      <g transform="translate(464.866818 213.874375) scale(0.16 -0.16)">
       <defs>
        <path id="DejaVuSans-37" d="M 525 4666 
L 3525 4666 
L 3525 4397 
L 1831 0 
L 1172 0 
L 2766 4134 
L 525 4134 
L 525 4666 
z
" transform="scale(0.015625)"/>
       </defs>
       <use xlink:href="#DejaVuSans-37"/>
       <use xlink:href="#DejaVuSans-35" x="63.623047"/>
      </g>
     </g>
    </g>
    <g id="xtick_5">
     <g id="line2d_5">
      <g>
       <use xlink:href="#m23bcedf6a6" x="601.865" y="194.716875" style="stroke: #000000; stroke-width: 0.8"/>
      </g>
     </g>
     <g id="text_5">
      <!-- 100 -->
      <g transform="translate(586.595 213.874375) scale(0.16 -0.16)">
       <defs>
        <path id="DejaVuSans-31" d="M 794 531 
L 1825 531 
L 1825 4091 
L 703 3866 
L 703 4441 
L 1819 4666 
L 2450 4666 
L 2450 531 
L 3481 531 
L 3481 0 
L 794 0 
L 794 531 
z
" transform="scale(0.015625)"/>
       </defs>
       <use xlink:href="#DejaVuSans-31"/>
       <use xlink:href="#DejaVuSans-30" x="63.623047"/>
       <use xlink:href="#DejaVuSans-30" x="127.246094"/>
      </g>
     </g>
    </g>
    <g id="xtick_6">
     <g id="line2d_6">
      <g>
       <use xlink:href="#m23bcedf6a6" x="728.683182" y="194.716875" style="stroke: #000000; stroke-width: 0.8"/>
      </g>
     </g>
     <g id="text_6">
      <!-- 125 -->
      <g transform="translate(713.413182 213.874375) scale(0.16 -0.16)">
       <use xlink:href="#DejaVuSans-31"/>
       <use xlink:href="#DejaVuSans-32" x="63.623047"/>
       <use xlink:href="#DejaVuSans-35" x="127.246094"/>
      </g>
     </g>
    </g>
    <g id="xtick_7">
     <g id="line2d_7">
      <g>
       <use xlink:href="#m23bcedf6a6" x="855.501364" y="194.716875" style="stroke: #000000; stroke-width: 0.8"/>
      </g>
     </g>
     <g id="text_7">
      <!-- 150 -->
      <g transform="translate(840.231364 213.874375) scale(0.16 -0.16)">
       <use xlink:href="#DejaVuSans-31"/>
       <use xlink:href="#DejaVuSans-35" x="63.623047"/>
       <use xlink:href="#DejaVuSans-30" x="127.246094"/>
      </g>
     </g>
    </g>
    <g id="xtick_8">
     <g id="line2d_8">
      <g>
       <use xlink:href="#m23bcedf6a6" x="982.319545" y="194.716875" style="stroke: #000000; stroke-width: 0.8"/>
      </g>
     </g>
     <g id="text_8">
      <!-- 175 -->
      <g transform="translate(967.049545 213.874375) scale(0.16 -0.16)">
       <use xlink:href="#DejaVuSans-31"/>
       <use xlink:href="#DejaVuSans-37" x="63.623047"/>
       <use xlink:href="#DejaVuSans-35" x="127.246094"/>
      </g>
     </g>
    </g>
    <g id="xtick_9">
     <g id="line2d_9">
      <g>
       <use xlink:href="#m23bcedf6a6" x="1109.137727" y="194.716875" style="stroke: #000000; stroke-width: 0.8"/>
      </g>
     </g>
     <g id="text_9">
      <!-- 200 -->
      <g transform="translate(1093.867727 213.874375) scale(0.16 -0.16)">
       <use xlink:href="#DejaVuSans-32"/>
       <use xlink:href="#DejaVuSans-30" x="63.623047"/>
       <use xlink:href="#DejaVuSans-30" x="127.246094"/>
      </g>
     </g>
    </g>
    <g id="text_10">
     <!-- Time -->
     <g transform="translate(582.29125 233.359375) scale(0.16 -0.16)">
      <defs>
       <path id="DejaVuSans-54" d="M -19 4666 
L 3928 4666 
L 3928 4134 
L 2272 4134 
L 2272 0 
L 1638 0 
L 1638 4134 
L -19 4134 
L -19 4666 
z
" transform="scale(0.015625)"/>
       <path id="DejaVuSans-69" d="M 603 3500 
L 1178 3500 
L 1178 0 
L 603 0 
L 603 3500 
z
M 603 4863 
L 1178 4863 
L 1178 4134 
L 603 4134 
L 603 4863 
z
" transform="scale(0.015625)"/>
       <path id="DejaVuSans-6d" d="M 3328 2828 
Q 3544 3216 3844 3400 
Q 4144 3584 4550 3584 
Q 5097 3584 5394 3201 
Q 5691 2819 5691 2113 
L 5691 0 
L 5113 0 
L 5113 2094 
Q 5113 2597 4934 2840 
Q 4756 3084 4391 3084 
Q 3944 3084 3684 2787 
Q 3425 2491 3425 1978 
L 3425 0 
L 2847 0 
L 2847 2094 
Q 2847 2600 2669 2842 
Q 2491 3084 2119 3084 
Q 1678 3084 1418 2786 
Q 1159 2488 1159 1978 
L 1159 0 
L 581 0 
L 581 3500 
L 1159 3500 
L 1159 2956 
Q 1356 3278 1631 3431 
Q 1906 3584 2284 3584 
Q 2666 3584 2933 3390 
Q 3200 3197 3328 2828 
z
" transform="scale(0.015625)"/>
       <path id="DejaVuSans-65" d="M 3597 1894 
L 3597 1613 
L 953 1613 
Q 991 1019 1311 708 
Q 1631 397 2203 397 
Q 2534 397 2845 478 
Q 3156 559 3463 722 
L 3463 178 
Q 3153 47 2828 -22 
Q 2503 -91 2169 -91 
Q 1331 -91 842 396 
Q 353 884 353 1716 
Q 353 2575 817 3079 
Q 1281 3584 2069 3584 
Q 2775 3584 3186 3129 
Q 3597 2675 3597 1894 
z
M 3022 2063 
Q 3016 2534 2758 2815 
Q 2500 3097 2075 3097 
Q 1594 3097 1305 2825 
Q 1016 2553 972 2059 
L 3022 2063 
z
" transform="scale(0.015625)"/>
      </defs>
      <use xlink:href="#DejaVuSans-54"/>
      <use xlink:href="#DejaVuSans-69" x="57.958984"/>
      <use xlink:href="#DejaVuSans-6d" x="85.742188"/>
      <use xlink:href="#DejaVuSans-65" x="183.154297"/>
     </g>
    </g>
   </g>
   <g id="matplotlib.axis_2">
    <g id="ytick_1">
     <g id="line2d_10">
      <defs>
       <path id="m5cc63582a5" d="M 0 0 
L -3.5 0 
" style="stroke: #000000; stroke-width: 0.8"/>
      </defs>
      <g>
       <use xlink:href="#m5cc63582a5" x="43.865" y="187.156875" style="stroke: #000000; stroke-width: 0.8"/>
      </g>
     </g>
     <g id="text_11">
      <!-- 0 -->
      <g transform="translate(26.685 193.235625) scale(0.16 -0.16)">
       <use xlink:href="#DejaVuSans-30"/>
      </g>
     </g>
    </g>
    <g id="ytick_2">
     <g id="line2d_11">
      <g>
       <use xlink:href="#m5cc63582a5" x="43.865" y="140.649795" style="stroke: #000000; stroke-width: 0.8"/>
      </g>
     </g>
     <g id="text_12">
      <!-- 2 -->
      <g transform="translate(26.685 146.728545) scale(0.16 -0.16)">
       <use xlink:href="#DejaVuSans-32"/>
      </g>
     </g>
    </g>
    <g id="ytick_3">
     <g id="line2d_12">
      <g>
       <use xlink:href="#m5cc63582a5" x="43.865" y="94.142715" style="stroke: #000000; stroke-width: 0.8"/>
      </g>
     </g>
     <g id="text_13">
      <!-- 4 -->
      <g transform="translate(26.685 100.221465) scale(0.16 -0.16)">
       <defs>
        <path id="DejaVuSans-34" d="M 2419 4116 
L 825 1625 
L 2419 1625 
L 2419 4116 
z
M 2253 4666 
L 3047 4666 
L 3047 1625 
L 3713 1625 
L 3713 1100 
L 3047 1100 
L 3047 0 
L 2419 0 
L 2419 1100 
L 313 1100 
L 313 1709 
L 2253 4666 
z
" transform="scale(0.015625)"/>
       </defs>
       <use xlink:href="#DejaVuSans-34"/>
      </g>
     </g>
    </g>
    <g id="ytick_4">
     <g id="line2d_13">
      <g>
       <use xlink:href="#m5cc63582a5" x="43.865" y="47.635635" style="stroke: #000000; stroke-width: 0.8"/>
      </g>
     </g>
     <g id="text_14">
      <!-- 6 -->
      <g transform="translate(26.685 53.714385) scale(0.16 -0.16)">
       <defs>
        <path id="DejaVuSans-36" d="M 2113 2584 
Q 1688 2584 1439 2293 
Q 1191 2003 1191 1497 
Q 1191 994 1439 701 
Q 1688 409 2113 409 
Q 2538 409 2786 701 
Q 3034 994 3034 1497 
Q 3034 2003 2786 2293 
Q 2538 2584 2113 2584 
z
M 3366 4563 
L 3366 3988 
Q 3128 4100 2886 4159 
Q 2644 4219 2406 4219 
Q 1781 4219 1451 3797 
Q 1122 3375 1075 2522 
Q 1259 2794 1537 2939 
Q 1816 3084 2150 3084 
Q 2853 3084 3261 2657 
Q 3669 2231 3669 1497 
Q 3669 778 3244 343 
Q 2819 -91 2113 -91 
Q 1303 -91 875 529 
Q 447 1150 447 2328 
Q 447 3434 972 4092 
Q 1497 4750 2381 4750 
Q 2619 4750 2861 4703 
Q 3103 4656 3366 4563 
z
" transform="scale(0.015625)"/>
       </defs>
       <use xlink:href="#DejaVuSans-36"/>
      </g>
     </g>
    </g>
    <g id="text_15">
     <!-- Mean activity -->
     <g transform="translate(19.3575 165.385625) rotate(-90) scale(0.16 -0.16)">
      <defs>
       <path id="DejaVuSans-4d" d="M 628 4666 
L 1569 4666 
L 2759 1491 
L 3956 4666 
L 4897 4666 
L 4897 0 
L 4281 0 
L 4281 4097 
L 3078 897 
L 2444 897 
L 1241 4097 
L 1241 0 
L 628 0 
L 628 4666 
z
" transform="scale(0.015625)"/>
       <path id="DejaVuSans-61" d="M 2194 1759 
Q 1497 1759 1228 1600 
Q 959 1441 959 1056 
Q 959 750 1161 570 
Q 1363 391 1709 391 
Q 2188 391 2477 730 
Q 2766 1069 2766 1631 
L 2766 1759 
L 2194 1759 
z
M 3341 1997 
L 3341 0 
L 2766 0 
L 2766 531 
Q 2569 213 2275 61 
Q 1981 -91 1556 -91 
Q 1019 -91 701 211 
Q 384 513 384 1019 
Q 384 1609 779 1909 
Q 1175 2209 1959 2209 
L 2766 2209 
L 2766 2266 
Q 2766 2663 2505 2880 
Q 2244 3097 1772 3097 
Q 1472 3097 1187 3025 
Q 903 2953 641 2809 
L 641 3341 
Q 956 3463 1253 3523 
Q 1550 3584 1831 3584 
Q 2591 3584 2966 3190 
Q 3341 2797 3341 1997 
z
" transform="scale(0.015625)"/>
       <path id="DejaVuSans-6e" d="M 3513 2113 
L 3513 0 
L 2938 0 
L 2938 2094 
Q 2938 2591 2744 2837 
Q 2550 3084 2163 3084 
Q 1697 3084 1428 2787 
Q 1159 2491 1159 1978 
L 1159 0 
L 581 0 
L 581 3500 
L 1159 3500 
L 1159 2956 
Q 1366 3272 1645 3428 
Q 1925 3584 2291 3584 
Q 2894 3584 3203 3211 
Q 3513 2838 3513 2113 
z
" transform="scale(0.015625)"/>
       <path id="DejaVuSans-20" transform="scale(0.015625)"/>
       <path id="DejaVuSans-63" d="M 3122 3366 
L 3122 2828 
Q 2878 2963 2633 3030 
Q 2388 3097 2138 3097 
Q 1578 3097 1268 2742 
Q 959 2388 959 1747 
Q 959 1106 1268 751 
Q 1578 397 2138 397 
Q 2388 397 2633 464 
Q 2878 531 3122 666 
L 3122 134 
Q 2881 22 2623 -34 
Q 2366 -91 2075 -91 
Q 1284 -91 818 406 
Q 353 903 353 1747 
Q 353 2603 823 3093 
Q 1294 3584 2113 3584 
Q 2378 3584 2631 3529 
Q 2884 3475 3122 3366 
z
" transform="scale(0.015625)"/>
       <path id="DejaVuSans-74" d="M 1172 4494 
L 1172 3500 
L 2356 3500 
L 2356 3053 
L 1172 3053 
L 1172 1153 
Q 1172 725 1289 603 
Q 1406 481 1766 481 
L 2356 481 
L 2356 0 
L 1766 0 
Q 1100 0 847 248 
Q 594 497 594 1153 
L 594 3053 
L 172 3053 
L 172 3500 
L 594 3500 
L 594 4494 
L 1172 4494 
z
" transform="scale(0.015625)"/>
       <path id="DejaVuSans-76" d="M 191 3500 
L 800 3500 
L 1894 563 
L 2988 3500 
L 3597 3500 
L 2284 0 
L 1503 0 
L 191 3500 
z
" transform="scale(0.015625)"/>
       <path id="DejaVuSans-79" d="M 2059 -325 
Q 1816 -950 1584 -1140 
Q 1353 -1331 966 -1331 
L 506 -1331 
L 506 -850 
L 844 -850 
Q 1081 -850 1212 -737 
Q 1344 -625 1503 -206 
L 1606 56 
L 191 3500 
L 800 3500 
L 1894 763 
L 2988 3500 
L 3597 3500 
L 2059 -325 
z
" transform="scale(0.015625)"/>
      </defs>
      <use xlink:href="#DejaVuSans-4d"/>
      <use xlink:href="#DejaVuSans-65" x="86.279297"/>
      <use xlink:href="#DejaVuSans-61" x="147.802734"/>
      <use xlink:href="#DejaVuSans-6e" x="209.082031"/>
      <use xlink:href="#DejaVuSans-20" x="272.460938"/>
      <use xlink:href="#DejaVuSans-61" x="304.248047"/>
      <use xlink:href="#DejaVuSans-63" x="365.527344"/>
      <use xlink:href="#DejaVuSans-74" x="420.507812"/>
      <use xlink:href="#DejaVuSans-69" x="459.716797"/>
      <use xlink:href="#DejaVuSans-76" x="487.5"/>
      <use xlink:href="#DejaVuSans-69" x="546.679688"/>
      <use xlink:href="#DejaVuSans-74" x="574.462891"/>
      <use xlink:href="#DejaVuSans-79" x="613.671875"/>
     </g>
    </g>
   </g>
   <g id="line2d_14">
    <path d="M 94.592273 187.156875 
L 99.665 135.539997 
L 104.737727 100.774422 
L 109.810455 51.376184 
L 114.883182 42.932937 
L 119.955909 49.178121 
L 125.028636 67.902398 
L 130.101364 85.057885 
L 135.174091 116.37262 
L 140.246818 126.114925 
L 145.319545 132.50059 
L 150.392273 139.355696 
L 155.465 159.288433 
L 160.537727 162.485791 
L 165.610455 175.048206 
L 170.683182 174.506601 
L 175.755909 186.952855 
L 180.828636 185.635161 
L 185.901364 187.156875 
L 190.974091 185.93132 
L 196.046818 187.156875 
L 236.628636 187.156875 
L 241.701364 162.099593 
L 246.774091 157.446422 
L 251.846818 144.466834 
L 256.919545 121.00213 
L 261.992273 107.411145 
L 267.065 113.30676 
L 272.137727 108.208285 
L 277.210455 99.227753 
L 282.283182 108.394572 
L 287.355909 112.473926 
L 292.428636 107.974515 
L 297.501364 106.963744 
L 302.574091 115.85363 
L 307.646818 118.550884 
L 312.719545 115.63612 
L 317.792273 117.501765 
L 322.865 114.35169 
L 327.937727 104.124407 
L 333.010455 110.196068 
L 338.083182 133.62522 
L 343.155909 146.681822 
L 348.228636 164.7592 
L 353.301364 168.621628 
L 358.374091 176.004211 
L 363.446818 173.219 
L 368.519545 179.491452 
L 373.592273 187.156875 
L 378.665 186.919013 
L 383.737727 187.156875 
L 546.065 187.156875 
L 551.137727 186.528539 
L 556.210455 187.156875 
L 596.792273 187.156875 
L 601.865 173.896977 
L 606.937727 154.704615 
L 612.010455 150.54435 
L 617.083182 142.42097 
L 622.155909 144.870224 
L 627.228636 148.296305 
L 632.301364 134.604059 
L 637.374091 112.081329 
L 642.446818 109.256261 
L 647.519545 110.80806 
L 652.592273 103.724052 
L 657.665 114.591554 
L 662.737727 127.873198 
L 667.810455 137.315943 
L 672.883182 145.691561 
L 677.955909 156.547547 
L 683.028636 143.377242 
L 693.174091 110.917464 
L 698.246818 100.162732 
L 703.319545 85.113631 
L 708.392273 101.061104 
L 713.465 106.059742 
L 718.537727 110.518131 
L 723.610455 126.63057 
L 728.683182 143.928444 
L 733.755909 154.686579 
L 738.828636 175.139361 
L 743.901364 180.380759 
L 748.974091 180.853478 
L 754.046818 163.064116 
L 759.119545 171.909407 
L 764.192273 170.420119 
L 769.265 156.399445 
L 774.337727 127.381646 
L 779.410455 118.991552 
L 784.483182 124.995684 
L 789.555909 131.397991 
L 794.628636 133.701727 
L 799.701364 156.233488 
L 804.774091 163.797048 
L 809.846818 156.763185 
L 814.919545 157.242585 
L 819.992273 137.035498 
L 825.065 125.961537 
L 830.137727 128.873118 
L 835.210455 130.504632 
L 840.283182 139.862131 
L 845.355909 134.654686 
L 850.428636 110.708852 
L 855.501364 123.961769 
L 860.574091 133.353558 
L 865.646818 145.517757 
L 870.719545 168.590545 
L 875.792273 171.317828 
L 880.865 172.552899 
L 885.937727 183.027391 
L 891.010455 187.156875 
L 951.883182 187.156875 
L 956.955909 184.792677 
L 962.028636 177.528767 
L 967.101364 171.652671 
L 972.174091 171.318266 
L 977.246818 167.743594 
L 982.319545 179.48672 
L 987.392273 187.156875 
L 992.465 179.138546 
L 997.537727 187.156875 
L 1002.610455 182.357887 
L 1007.683182 187.156875 
L 1104.065 187.156875 
L 1104.065 187.156875 
" clip-path="url(#p85db842e4e)" style="fill: none; stroke: #000080; stroke-width: 1.5; stroke-linecap: square"/>
   </g>
   <g id="line2d_15">
    <path d="M 94.592273 187.156875 
L 99.665 182.770715 
L 104.737727 187.156875 
L 145.319545 187.156875 
L 150.392273 181.341653 
L 155.465 180.680612 
L 160.537727 183.095502 
L 165.610455 177.883575 
L 170.683182 160.837822 
L 175.755909 166.614292 
L 180.828636 161.323556 
L 185.901364 153.718639 
L 190.974091 135.21528 
L 196.046818 119.739498 
L 201.119545 109.752832 
L 206.192273 117.094455 
L 211.265 112.632609 
L 216.337727 125.490114 
L 221.410455 131.231927 
L 231.555909 152.826772 
L 236.628636 159.338028 
L 241.701364 170.994626 
L 246.774091 184.980509 
L 251.846818 187.156875 
L 338.083182 187.156875 
L 343.155909 184.505648 
L 348.228636 181.488277 
L 353.301364 168.989586 
L 358.374091 158.81538 
L 363.446818 134.33657 
L 368.519545 133.070026 
L 373.592273 145.068734 
L 378.665 149.342578 
L 383.737727 160.926338 
L 388.810455 152.294936 
L 393.883182 133.948295 
L 398.955909 121.929227 
L 404.028636 96.267935 
L 409.101364 92.131613 
L 414.174091 95.734375 
L 419.246818 99.852107 
L 424.319545 113.413351 
L 429.392273 118.520957 
L 434.465 115.160907 
L 439.537727 123.894786 
L 444.610455 114.381631 
L 449.683182 111.903855 
L 454.755909 101.920181 
L 459.828636 113.01277 
L 464.901364 129.896933 
L 469.974091 132.064919 
L 475.046818 124.142546 
L 480.119545 119.56814 
L 485.192273 131.479526 
L 490.265 132.751792 
L 495.337727 143.06773 
L 500.410455 134.610292 
L 505.483182 142.117409 
L 510.555909 126.229885 
L 515.628636 125.143553 
L 520.701364 141.193649 
L 525.774091 147.347425 
L 530.846818 144.372594 
L 535.919545 153.871986 
L 540.992273 157.170621 
L 546.065 163.857761 
L 551.137727 163.219951 
L 556.210455 151.086634 
L 561.283182 122.73651 
L 566.355909 112.796237 
L 571.428636 118.520671 
L 576.501364 129.951723 
L 581.574091 149.691818 
L 586.646818 154.005439 
L 591.719545 156.120803 
L 596.792273 154.23451 
L 601.865 173.839074 
L 606.937727 176.447074 
L 617.083182 187.156875 
L 723.610455 187.156875 
L 728.683182 185.820705 
L 733.755909 166.949 
L 738.828636 177.886109 
L 743.901364 178.552683 
L 748.974091 173.587251 
L 754.046818 177.291725 
L 759.119545 165.064691 
L 764.192273 177.866548 
L 769.265 182.894638 
L 774.337727 187.156875 
L 799.701364 187.156875 
L 804.774091 185.688803 
L 809.846818 183.113502 
L 814.919545 187.156875 
L 865.646818 187.156875 
L 870.719545 180.306208 
L 875.792273 149.058387 
L 880.865 116.923846 
L 885.937727 114.528613 
L 891.010455 105.342109 
L 896.083182 102.610796 
L 901.155909 116.157394 
L 906.228636 125.387753 
L 911.301364 127.159381 
L 916.374091 132.93921 
L 921.446818 143.382207 
L 926.519545 149.538171 
L 931.592273 151.09932 
L 936.665 136.073243 
L 941.737727 131.218706 
L 946.810455 148.420878 
L 951.883182 154.842458 
L 956.955909 159.25592 
L 962.028636 174.241454 
L 967.101364 180.608779 
L 972.174091 183.259668 
L 977.246818 179.186042 
L 982.319545 178.572814 
L 987.392273 173.776622 
L 992.465 161.570155 
L 997.537727 159.407899 
L 1002.610455 167.712267 
L 1007.683182 168.765048 
L 1012.755909 165.066891 
L 1017.828636 149.284529 
L 1022.901364 137.60269 
L 1027.974091 134.830221 
L 1033.046818 133.379815 
L 1038.119545 144.216418 
L 1043.192273 149.137765 
L 1053.337727 126.453923 
L 1058.410455 89.24848 
L 1063.483182 90.118968 
L 1068.555909 106.119775 
L 1073.628636 143.192767 
L 1078.701364 156.346341 
L 1083.774091 161.660457 
L 1088.846818 165.646305 
L 1093.919545 153.038873 
L 1098.992273 145.567244 
L 1104.065 149.873618 
L 1104.065 149.873618 
" clip-path="url(#p85db842e4e)" style="fill: none; stroke: #8b0000; stroke-width: 1.5; stroke-linecap: square"/>
   </g>
   <g id="line2d_16">
    <path d="M 94.592273 177.890688 
L 99.665 166.769759 
L 104.737727 155.071501 
L 109.810455 150.287481 
L 114.883182 150.513669 
L 119.955909 154.639793 
L 125.028636 158.585105 
L 130.101364 169.762589 
L 135.174091 173.617929 
L 140.246818 173.17302 
L 145.319545 176.045673 
L 150.392273 177.843318 
L 155.465 180.906487 
L 160.537727 182.46825 
L 165.610455 182.444541 
L 170.683182 183.011276 
L 175.755909 184.48209 
L 185.901364 185.179374 
L 190.974091 184.320355 
L 196.046818 184.036491 
L 201.119545 184.505808 
L 206.192273 184.358043 
L 211.265 184.048057 
L 216.337727 183.504478 
L 221.410455 184.515077 
L 226.483182 184.417081 
L 231.555909 183.81787 
L 236.628636 177.171539 
L 241.701364 168.909636 
L 246.774091 172.898447 
L 251.846818 170.197331 
L 256.919545 165.33134 
L 261.992273 163.184657 
L 267.065 167.893153 
L 272.137727 165.462238 
L 277.210455 162.103369 
L 282.283182 168.494783 
L 287.355909 169.714711 
L 292.428636 169.034574 
L 297.501364 168.972838 
L 302.574091 172.245341 
L 307.646818 168.567744 
L 312.719545 168.002955 
L 317.792273 169.811098 
L 322.865 169.3451 
L 327.937727 167.654821 
L 333.010455 172.392861 
L 338.083182 177.470175 
L 343.155909 179.663878 
L 348.228636 182.302883 
L 353.301364 182.182323 
L 358.374091 181.804971 
L 363.446818 181.795143 
L 368.519545 182.599468 
L 373.592273 184.84989 
L 378.665 184.452694 
L 383.737727 185.261942 
L 388.810455 185.305476 
L 398.955909 183.741246 
L 409.101364 182.506641 
L 419.246818 183.671834 
L 424.319545 182.824961 
L 429.392273 184.015778 
L 434.465 183.878322 
L 439.537727 184.683897 
L 444.610455 183.713575 
L 449.683182 183.675722 
L 454.755909 182.442082 
L 459.828636 184.070202 
L 464.901364 183.502033 
L 469.974091 184.657722 
L 475.046818 184.889859 
L 480.119545 183.790045 
L 485.192273 184.580356 
L 490.265 185.178022 
L 495.337727 184.019954 
L 500.410455 185.536655 
L 505.483182 185.117408 
L 510.555909 184.435729 
L 515.628636 183.562664 
L 520.701364 185.32942 
L 525.774091 185.891917 
L 530.846818 185.044543 
L 535.919545 182.647316 
L 540.992273 183.333637 
L 546.065 181.551947 
L 551.137727 184.01743 
L 556.210455 184.858335 
L 561.283182 183.051815 
L 566.355909 183.756688 
L 571.428636 183.679421 
L 576.501364 184.28843 
L 581.574091 184.521465 
L 586.646818 184.319528 
L 591.719545 183.509235 
L 596.792273 180.791792 
L 601.865 172.530722 
L 606.937727 170.06339 
L 612.010455 170.545624 
L 617.083182 170.58346 
L 622.155909 177.003865 
L 627.228636 174.14926 
L 632.301364 167.754396 
L 637.374091 168.236929 
L 642.446818 166.583234 
L 647.519545 166.399946 
L 652.592273 165.034497 
L 657.665 172.563531 
L 662.737727 176.248006 
L 667.810455 178.667438 
L 672.883182 179.690185 
L 677.955909 179.928773 
L 683.028636 174.120214 
L 688.101364 168.6163 
L 693.174091 166.999633 
L 698.246818 160.566461 
L 703.319545 161.501887 
L 708.392273 167.910449 
L 713.465 169.335383 
L 718.537727 169.018401 
L 723.610455 176.856065 
L 728.683182 181.297019 
L 733.755909 182.053589 
L 738.828636 184.102813 
L 743.901364 182.594402 
L 748.974091 181.579676 
L 754.046818 177.316563 
L 759.119545 181.945665 
L 764.192273 179.30477 
L 769.265 171.646287 
L 774.337727 168.463884 
L 779.410455 170.596193 
L 784.483182 171.639221 
L 789.555909 172.001043 
L 794.628636 177.005154 
L 799.701364 181.377299 
L 804.774091 180.293223 
L 809.846818 177.995151 
L 814.919545 176.761642 
L 819.992273 172.439416 
L 825.065 170.528508 
L 830.137727 173.628235 
L 835.210455 175.479536 
L 840.283182 175.134916 
L 845.355909 170.689158 
L 850.428636 168.517737 
L 855.501364 172.253314 
L 860.574091 178.780696 
L 865.646818 179.662115 
L 870.719545 182.52515 
L 875.792273 182.337862 
L 880.865 181.067875 
L 885.937727 181.812691 
L 891.010455 182.299928 
L 896.083182 183.442772 
L 906.228636 184.890131 
L 916.374091 183.923297 
L 921.446818 184.993015 
L 926.519545 184.712561 
L 931.592273 183.245802 
L 936.665 185.04632 
L 941.737727 183.738788 
L 946.810455 181.665576 
L 951.883182 179.811283 
L 956.955909 177.025608 
L 962.028636 176.933204 
L 967.101364 179.157249 
L 972.174091 177.831753 
L 977.246818 179.779681 
L 982.319545 183.418009 
L 987.392273 182.036272 
L 992.465 182.392576 
L 997.537727 183.235232 
L 1002.610455 182.180214 
L 1007.683182 183.573164 
L 1012.755909 185.265372 
L 1022.901364 184.815046 
L 1027.974091 183.575678 
L 1033.046818 184.334688 
L 1038.119545 184.174063 
L 1043.192273 184.693307 
L 1048.265 185.699777 
L 1053.337727 184.645644 
L 1058.410455 182.745857 
L 1063.483182 183.649406 
L 1068.555909 183.14095 
L 1073.628636 184.475708 
L 1078.701364 181.789742 
L 1083.774091 183.675646 
L 1088.846818 185.728251 
L 1093.919545 182.532684 
L 1098.992273 184.140645 
L 1104.065 183.528674 
L 1104.065 183.528674 
" clip-path="url(#p85db842e4e)" style="fill: none; stroke-dasharray: 5.55,2.4; stroke-dashoffset: 0; stroke: #0000ff; stroke-width: 1.5"/>
   </g>
   <g id="line2d_17">
    <path d="M 94.592273 184.156222 
L 99.665 183.84294 
L 104.737727 186.655657 
L 109.810455 187.156875 
L 114.883182 187.156875 
L 125.028636 186.605978 
L 130.101364 186.501092 
L 135.174091 186.230106 
L 140.246818 186.208143 
L 145.319545 185.872329 
L 150.392273 184.666243 
L 155.465 185.860627 
L 160.537727 181.684794 
L 165.610455 179.433486 
L 170.683182 179.951791 
L 175.755909 181.360324 
L 180.828636 180.170484 
L 185.901364 175.610252 
L 190.974091 169.637243 
L 196.046818 168.302989 
L 201.119545 171.013597 
L 206.192273 168.197815 
L 211.265 170.500072 
L 216.337727 175.006179 
L 221.410455 173.338768 
L 226.483182 176.102482 
L 231.555909 179.212671 
L 236.628636 181.972455 
L 241.701364 182.672162 
L 246.774091 185.414557 
L 251.846818 185.475924 
L 256.919545 185.929702 
L 261.992273 186.558316 
L 267.065 185.770251 
L 272.137727 186.328005 
L 277.210455 186.102673 
L 282.283182 186.868968 
L 287.355909 186.161409 
L 292.428636 186.888204 
L 302.574091 186.808472 
L 307.646818 187.156875 
L 312.719545 186.858055 
L 322.865 187.156875 
L 333.010455 187.156875 
L 338.083182 186.596904 
L 343.155909 184.597575 
L 348.228636 180.800072 
L 353.301364 177.62529 
L 358.374091 175.367587 
L 363.446818 171.96897 
L 368.519545 174.476715 
L 378.665 178.495786 
L 383.737727 178.482174 
L 388.810455 174.736105 
L 393.883182 172.621972 
L 404.028636 162.088669 
L 409.101364 167.372224 
L 414.174091 166.727336 
L 419.246818 170.074096 
L 424.319545 169.714224 
L 429.392273 171.648362 
L 434.465 171.296247 
L 439.537727 171.991084 
L 444.610455 168.727342 
L 449.683182 166.343737 
L 454.755909 169.359602 
L 459.828636 171.299921 
L 464.901364 173.966706 
L 469.974091 172.806812 
L 475.046818 171.397222 
L 480.119545 170.778773 
L 485.192273 176.379732 
L 490.265 175.401704 
L 495.337727 177.701882 
L 500.410455 173.688284 
L 505.483182 176.503472 
L 510.555909 171.796276 
L 515.628636 175.216711 
L 520.701364 178.127966 
L 525.774091 176.520208 
L 530.846818 178.188349 
L 535.919545 180.444051 
L 540.992273 181.612176 
L 546.065 181.625985 
L 551.137727 180.52236 
L 556.210455 174.660177 
L 561.283182 168.611277 
L 566.355909 170.968059 
L 571.428636 170.780165 
L 576.501364 177.332824 
L 581.574091 178.460862 
L 586.646818 178.875776 
L 591.719545 178.280478 
L 596.792273 180.258061 
L 601.865 183.020071 
L 606.937727 184.560637 
L 612.010455 185.540727 
L 617.083182 186.319612 
L 627.228636 185.818097 
L 632.301364 186.383682 
L 637.374091 186.556468 
L 642.446818 186.201705 
L 647.519545 186.042039 
L 652.592273 186.302685 
L 657.665 185.21516 
L 662.737727 186.732634 
L 667.810455 186.577351 
L 672.883182 185.510586 
L 677.955909 186.234884 
L 683.028636 185.782748 
L 688.101364 187.044758 
L 693.174091 187.156875 
L 698.246818 186.774072 
L 703.319545 186.698341 
L 708.392273 187.156875 
L 718.537727 187.156875 
L 723.610455 186.105614 
L 728.683182 184.847483 
L 733.755909 179.45502 
L 738.828636 184.444577 
L 743.901364 181.227087 
L 748.974091 184.364402 
L 754.046818 180.785418 
L 759.119545 182.496591 
L 764.192273 183.265123 
L 769.265 185.737198 
L 774.337727 185.57077 
L 779.410455 186.909025 
L 784.483182 186.881814 
L 789.555909 187.156875 
L 794.628636 186.830899 
L 799.701364 186.382137 
L 804.774091 183.938611 
L 809.846818 182.642717 
L 814.919545 186.430184 
L 819.992273 186.948095 
L 825.065 186.81562 
L 830.137727 187.073797 
L 835.210455 185.811783 
L 840.283182 187.113426 
L 845.355909 186.632299 
L 850.428636 185.922231 
L 855.501364 186.835367 
L 860.574091 185.910223 
L 865.646818 185.384083 
L 870.719545 179.834675 
L 875.792273 172.804988 
L 880.865 166.205247 
L 885.937727 166.657512 
L 891.010455 165.254048 
L 896.083182 168.216954 
L 901.155909 171.787692 
L 906.228636 171.134045 
L 911.301364 173.253222 
L 916.374091 174.614432 
L 921.446818 176.919413 
L 926.519545 174.690396 
L 931.592273 175.947084 
L 936.665 174.355533 
L 941.737727 175.220051 
L 946.810455 178.71961 
L 951.883182 179.236452 
L 956.955909 182.975966 
L 962.028636 183.677482 
L 967.101364 185.188905 
L 972.174091 184.696438 
L 977.246818 183.494083 
L 982.319545 181.884069 
L 987.392273 183.868758 
L 992.465 179.739425 
L 997.537727 181.59479 
L 1007.683182 182.120751 
L 1012.755909 178.446121 
L 1017.828636 177.895922 
L 1022.901364 172.815758 
L 1027.974091 174.113331 
L 1033.046818 177.686 
L 1038.119545 177.729681 
L 1043.192273 176.621851 
L 1048.265 174.912505 
L 1053.337727 162.840158 
L 1058.410455 163.447353 
L 1063.483182 165.49596 
L 1068.555909 172.220751 
L 1073.628636 179.64013 
L 1078.701364 182.202277 
L 1083.774091 181.481109 
L 1088.846818 181.142357 
L 1093.919545 175.986691 
L 1098.992273 177.695188 
L 1104.065 172.564245 
L 1104.065 172.564245 
" clip-path="url(#p85db842e4e)" style="fill: none; stroke-dasharray: 5.55,2.4; stroke-dashoffset: 0; stroke: #ff0000; stroke-width: 1.5"/>
   </g>
   <g id="patch_3">
    <path d="M 43.865 194.716875 
L 43.865 28.396875 
" style="fill: none; stroke: #000000; stroke-width: 0.8; stroke-linejoin: miter; stroke-linecap: square"/>
   </g>
   <g id="patch_4">
    <path d="M 1159.865 194.716875 
L 1159.865 28.396875 
" style="fill: none; stroke: #000000; stroke-width: 0.8; stroke-linejoin: miter; stroke-linecap: square"/>
   </g>
   <g id="patch_5">
    <path d="M 43.865 194.716875 
L 1159.865 194.716875 
" style="fill: none; stroke: #000000; stroke-width: 0.8; stroke-linejoin: miter; stroke-linecap: square"/>
   </g>
   <g id="patch_6">
    <path d="M 43.865 28.396875 
L 1159.865 28.396875 
" style="fill: none; stroke: #000000; stroke-width: 0.8; stroke-linejoin: miter; stroke-linecap: square"/>
   </g>
   <g id="text_16">
    <!-- Mean activity of Kick Neurons and Noise Integrating Populations -->
    <g transform="translate(280.915 22.396875) scale(0.2 -0.2)">
     <defs>
      <path id="DejaVuSans-6f" d="M 1959 3097 
Q 1497 3097 1228 2736 
Q 959 2375 959 1747 
Q 959 1119 1226 758 
Q 1494 397 1959 397 
Q 2419 397 2687 759 
Q 2956 1122 2956 1747 
Q 2956 2369 2687 2733 
Q 2419 3097 1959 3097 
z
M 1959 3584 
Q 2709 3584 3137 3096 
Q 3566 2609 3566 1747 
Q 3566 888 3137 398 
Q 2709 -91 1959 -91 
Q 1206 -91 779 398 
Q 353 888 353 1747 
Q 353 2609 779 3096 
Q 1206 3584 1959 3584 
z
" transform="scale(0.015625)"/>
      <path id="DejaVuSans-66" d="M 2375 4863 
L 2375 4384 
L 1825 4384 
Q 1516 4384 1395 4259 
Q 1275 4134 1275 3809 
L 1275 3500 
L 2222 3500 
L 2222 3053 
L 1275 3053 
L 1275 0 
L 697 0 
L 697 3053 
L 147 3053 
L 147 3500 
L 697 3500 
L 697 3744 
Q 697 4328 969 4595 
Q 1241 4863 1831 4863 
L 2375 4863 
z
" transform="scale(0.015625)"/>
      <path id="DejaVuSans-4b" d="M 628 4666 
L 1259 4666 
L 1259 2694 
L 3353 4666 
L 4166 4666 
L 1850 2491 
L 4331 0 
L 3500 0 
L 1259 2247 
L 1259 0 
L 628 0 
L 628 4666 
z
" transform="scale(0.015625)"/>
      <path id="DejaVuSans-6b" d="M 581 4863 
L 1159 4863 
L 1159 1991 
L 2875 3500 
L 3609 3500 
L 1753 1863 
L 3688 0 
L 2938 0 
L 1159 1709 
L 1159 0 
L 581 0 
L 581 4863 
z
" transform="scale(0.015625)"/>
      <path id="DejaVuSans-4e" d="M 628 4666 
L 1478 4666 
L 3547 763 
L 3547 4666 
L 4159 4666 
L 4159 0 
L 3309 0 
L 1241 3903 
L 1241 0 
L 628 0 
L 628 4666 
z
" transform="scale(0.015625)"/>
      <path id="DejaVuSans-75" d="M 544 1381 
L 544 3500 
L 1119 3500 
L 1119 1403 
Q 1119 906 1312 657 
Q 1506 409 1894 409 
Q 2359 409 2629 706 
Q 2900 1003 2900 1516 
L 2900 3500 
L 3475 3500 
L 3475 0 
L 2900 0 
L 2900 538 
Q 2691 219 2414 64 
Q 2138 -91 1772 -91 
Q 1169 -91 856 284 
Q 544 659 544 1381 
z
M 1991 3584 
L 1991 3584 
z
" transform="scale(0.015625)"/>
      <path id="DejaVuSans-72" d="M 2631 2963 
Q 2534 3019 2420 3045 
Q 2306 3072 2169 3072 
Q 1681 3072 1420 2755 
Q 1159 2438 1159 1844 
L 1159 0 
L 581 0 
L 581 3500 
L 1159 3500 
L 1159 2956 
Q 1341 3275 1631 3429 
Q 1922 3584 2338 3584 
Q 2397 3584 2469 3576 
Q 2541 3569 2628 3553 
L 2631 2963 
z
" transform="scale(0.015625)"/>
      <path id="DejaVuSans-73" d="M 2834 3397 
L 2834 2853 
Q 2591 2978 2328 3040 
Q 2066 3103 1784 3103 
Q 1356 3103 1142 2972 
Q 928 2841 928 2578 
Q 928 2378 1081 2264 
Q 1234 2150 1697 2047 
L 1894 2003 
Q 2506 1872 2764 1633 
Q 3022 1394 3022 966 
Q 3022 478 2636 193 
Q 2250 -91 1575 -91 
Q 1294 -91 989 -36 
Q 684 19 347 128 
L 347 722 
Q 666 556 975 473 
Q 1284 391 1588 391 
Q 1994 391 2212 530 
Q 2431 669 2431 922 
Q 2431 1156 2273 1281 
Q 2116 1406 1581 1522 
L 1381 1569 
Q 847 1681 609 1914 
Q 372 2147 372 2553 
Q 372 3047 722 3315 
Q 1072 3584 1716 3584 
Q 2034 3584 2315 3537 
Q 2597 3491 2834 3397 
z
" transform="scale(0.015625)"/>
      <path id="DejaVuSans-64" d="M 2906 2969 
L 2906 4863 
L 3481 4863 
L 3481 0 
L 2906 0 
L 2906 525 
Q 2725 213 2448 61 
Q 2172 -91 1784 -91 
Q 1150 -91 751 415 
Q 353 922 353 1747 
Q 353 2572 751 3078 
Q 1150 3584 1784 3584 
Q 2172 3584 2448 3432 
Q 2725 3281 2906 2969 
z
M 947 1747 
Q 947 1113 1208 752 
Q 1469 391 1925 391 
Q 2381 391 2643 752 
Q 2906 1113 2906 1747 
Q 2906 2381 2643 2742 
Q 2381 3103 1925 3103 
Q 1469 3103 1208 2742 
Q 947 2381 947 1747 
z
" transform="scale(0.015625)"/>
      <path id="DejaVuSans-49" d="M 628 4666 
L 1259 4666 
L 1259 0 
L 628 0 
L 628 4666 
z
" transform="scale(0.015625)"/>
      <path id="DejaVuSans-67" d="M 2906 1791 
Q 2906 2416 2648 2759 
Q 2391 3103 1925 3103 
Q 1463 3103 1205 2759 
Q 947 2416 947 1791 
Q 947 1169 1205 825 
Q 1463 481 1925 481 
Q 2391 481 2648 825 
Q 2906 1169 2906 1791 
z
M 3481 434 
Q 3481 -459 3084 -895 
Q 2688 -1331 1869 -1331 
Q 1566 -1331 1297 -1286 
Q 1028 -1241 775 -1147 
L 775 -588 
Q 1028 -725 1275 -790 
Q 1522 -856 1778 -856 
Q 2344 -856 2625 -561 
Q 2906 -266 2906 331 
L 2906 616 
Q 2728 306 2450 153 
Q 2172 0 1784 0 
Q 1141 0 747 490 
Q 353 981 353 1791 
Q 353 2603 747 3093 
Q 1141 3584 1784 3584 
Q 2172 3584 2450 3431 
Q 2728 3278 2906 2969 
L 2906 3500 
L 3481 3500 
L 3481 434 
z
" transform="scale(0.015625)"/>
      <path id="DejaVuSans-50" d="M 1259 4147 
L 1259 2394 
L 2053 2394 
Q 2494 2394 2734 2622 
Q 2975 2850 2975 3272 
Q 2975 3691 2734 3919 
Q 2494 4147 2053 4147 
L 1259 4147 
z
M 628 4666 
L 2053 4666 
Q 2838 4666 3239 4311 
Q 3641 3956 3641 3272 
Q 3641 2581 3239 2228 
Q 2838 1875 2053 1875 
L 1259 1875 
L 1259 0 
L 628 0 
L 628 4666 
z
" transform="scale(0.015625)"/>
      <path id="DejaVuSans-70" d="M 1159 525 
L 1159 -1331 
L 581 -1331 
L 581 3500 
L 1159 3500 
L 1159 2969 
Q 1341 3281 1617 3432 
Q 1894 3584 2278 3584 
Q 2916 3584 3314 3078 
Q 3713 2572 3713 1747 
Q 3713 922 3314 415 
Q 2916 -91 2278 -91 
Q 1894 -91 1617 61 
Q 1341 213 1159 525 
z
M 3116 1747 
Q 3116 2381 2855 2742 
Q 2594 3103 2138 3103 
Q 1681 3103 1420 2742 
Q 1159 2381 1159 1747 
Q 1159 1113 1420 752 
Q 1681 391 2138 391 
Q 2594 391 2855 752 
Q 3116 1113 3116 1747 
z
" transform="scale(0.015625)"/>
      <path id="DejaVuSans-6c" d="M 603 4863 
L 1178 4863 
L 1178 0 
L 603 0 
L 603 4863 
z
" transform="scale(0.015625)"/>
     </defs>
     <use xlink:href="#DejaVuSans-4d"/>
     <use xlink:href="#DejaVuSans-65" x="86.279297"/>
     <use xlink:href="#DejaVuSans-61" x="147.802734"/>
     <use xlink:href="#DejaVuSans-6e" x="209.082031"/>
     <use xlink:href="#DejaVuSans-20" x="272.460938"/>
     <use xlink:href="#DejaVuSans-61" x="304.248047"/>
     <use xlink:href="#DejaVuSans-63" x="365.527344"/>
     <use xlink:href="#DejaVuSans-74" x="420.507812"/>
     <use xlink:href="#DejaVuSans-69" x="459.716797"/>
     <use xlink:href="#DejaVuSans-76" x="487.5"/>
     <use xlink:href="#DejaVuSans-69" x="546.679688"/>
     <use xlink:href="#DejaVuSans-74" x="574.462891"/>
     <use xlink:href="#DejaVuSans-79" x="613.671875"/>
     <use xlink:href="#DejaVuSans-20" x="672.851562"/>
     <use xlink:href="#DejaVuSans-6f" x="704.638672"/>
     <use xlink:href="#DejaVuSans-66" x="765.820312"/>
     <use xlink:href="#DejaVuSans-20" x="801.025391"/>
     <use xlink:href="#DejaVuSans-4b" x="832.8125"/>
     <use xlink:href="#DejaVuSans-69" x="898.388672"/>
     <use xlink:href="#DejaVuSans-63" x="926.171875"/>
     <use xlink:href="#DejaVuSans-6b" x="981.152344"/>
     <use xlink:href="#DejaVuSans-20" x="1039.0625"/>
     <use xlink:href="#DejaVuSans-4e" x="1070.849609"/>
     <use xlink:href="#DejaVuSans-65" x="1145.654297"/>
     <use xlink:href="#DejaVuSans-75" x="1207.177734"/>
     <use xlink:href="#DejaVuSans-72" x="1270.556641"/>
     <use xlink:href="#DejaVuSans-6f" x="1309.419922"/>
     <use xlink:href="#DejaVuSans-6e" x="1370.601562"/>
     <use xlink:href="#DejaVuSans-73" x="1433.980469"/>
     <use xlink:href="#DejaVuSans-20" x="1486.080078"/>
     <use xlink:href="#DejaVuSans-61" x="1517.867188"/>
     <use xlink:href="#DejaVuSans-6e" x="1579.146484"/>
     <use xlink:href="#DejaVuSans-64" x="1642.525391"/>
     <use xlink:href="#DejaVuSans-20" x="1706.001953"/>
     <use xlink:href="#DejaVuSans-4e" x="1737.789062"/>
     <use xlink:href="#DejaVuSans-6f" x="1812.59375"/>
     <use xlink:href="#DejaVuSans-69" x="1873.775391"/>
     <use xlink:href="#DejaVuSans-73" x="1901.558594"/>
     <use xlink:href="#DejaVuSans-65" x="1953.658203"/>
     <use xlink:href="#DejaVuSans-20" x="2015.181641"/>
     <use xlink:href="#DejaVuSans-49" x="2046.96875"/>
     <use xlink:href="#DejaVuSans-6e" x="2076.460938"/>
     <use xlink:href="#DejaVuSans-74" x="2139.839844"/>
     <use xlink:href="#DejaVuSans-65" x="2179.048828"/>
     <use xlink:href="#DejaVuSans-67" x="2240.572266"/>
     <use xlink:href="#DejaVuSans-72" x="2304.048828"/>
     <use xlink:href="#DejaVuSans-61" x="2345.162109"/>
     <use xlink:href="#DejaVuSans-74" x="2406.441406"/>
     <use xlink:href="#DejaVuSans-69" x="2445.650391"/>
     <use xlink:href="#DejaVuSans-6e" x="2473.433594"/>
     <use xlink:href="#DejaVuSans-67" x="2536.8125"/>
     <use xlink:href="#DejaVuSans-20" x="2600.289062"/>
     <use xlink:href="#DejaVuSans-50" x="2632.076172"/>
     <use xlink:href="#DejaVuSans-6f" x="2688.753906"/>
     <use xlink:href="#DejaVuSans-70" x="2749.935547"/>
     <use xlink:href="#DejaVuSans-75" x="2813.412109"/>
     <use xlink:href="#DejaVuSans-6c" x="2876.791016"/>
     <use xlink:href="#DejaVuSans-61" x="2904.574219"/>
     <use xlink:href="#DejaVuSans-74" x="2965.853516"/>
     <use xlink:href="#DejaVuSans-69" x="3005.0625"/>
     <use xlink:href="#DejaVuSans-6f" x="3032.845703"/>
     <use xlink:href="#DejaVuSans-6e" x="3094.027344"/>
     <use xlink:href="#DejaVuSans-73" x="3157.40625"/>
    </g>
   </g>
   <g id="legend_1">
    <g id="patch_7">
     <path d="M 1009.641875 108.451875 
L 1151.465 108.451875 
Q 1153.865 108.451875 1153.865 106.051875 
L 1153.865 36.796875 
Q 1153.865 34.396875 1151.465 34.396875 
L 1009.641875 34.396875 
Q 1007.241875 34.396875 1007.241875 36.796875 
L 1007.241875 106.051875 
Q 1007.241875 108.451875 1009.641875 108.451875 
z
" style="fill: #ffffff; opacity: 0.8; stroke: #cccccc; stroke-linejoin: miter"/>
    </g>
    <g id="line2d_18">
     <path d="M 1012.041875 44.115 
L 1024.041875 44.115 
L 1036.041875 44.115 
" style="fill: none; stroke: #000080; stroke-width: 1.5; stroke-linecap: square"/>
    </g>
    <g id="text_17">
     <!-- Kick Group 1 -->
     <g transform="translate(1045.641875 48.315) scale(0.12 -0.12)">
      <defs>
       <path id="DejaVuSans-47" d="M 3809 666 
L 3809 1919 
L 2778 1919 
L 2778 2438 
L 4434 2438 
L 4434 434 
Q 4069 175 3628 42 
Q 3188 -91 2688 -91 
Q 1594 -91 976 548 
Q 359 1188 359 2328 
Q 359 3472 976 4111 
Q 1594 4750 2688 4750 
Q 3144 4750 3555 4637 
Q 3966 4525 4313 4306 
L 4313 3634 
Q 3963 3931 3569 4081 
Q 3175 4231 2741 4231 
Q 1884 4231 1454 3753 
Q 1025 3275 1025 2328 
Q 1025 1384 1454 906 
Q 1884 428 2741 428 
Q 3075 428 3337 486 
Q 3600 544 3809 666 
z
" transform="scale(0.015625)"/>
      </defs>
      <use xlink:href="#DejaVuSans-4b"/>
      <use xlink:href="#DejaVuSans-69" x="65.576172"/>
      <use xlink:href="#DejaVuSans-63" x="93.359375"/>
      <use xlink:href="#DejaVuSans-6b" x="148.339844"/>
      <use xlink:href="#DejaVuSans-20" x="206.25"/>
      <use xlink:href="#DejaVuSans-47" x="238.037109"/>
      <use xlink:href="#DejaVuSans-72" x="315.527344"/>
      <use xlink:href="#DejaVuSans-6f" x="354.390625"/>
      <use xlink:href="#DejaVuSans-75" x="415.572266"/>
      <use xlink:href="#DejaVuSans-70" x="478.951172"/>
      <use xlink:href="#DejaVuSans-20" x="542.427734"/>
      <use xlink:href="#DejaVuSans-31" x="574.214844"/>
     </g>
    </g>
    <g id="line2d_19">
     <path d="M 1012.041875 61.72875 
L 1024.041875 61.72875 
L 1036.041875 61.72875 
" style="fill: none; stroke: #8b0000; stroke-width: 1.5; stroke-linecap: square"/>
    </g>
    <g id="text_18">
     <!-- Kick Group 2 -->
     <g transform="translate(1045.641875 65.92875) scale(0.12 -0.12)">
      <use xlink:href="#DejaVuSans-4b"/>
      <use xlink:href="#DejaVuSans-69" x="65.576172"/>
      <use xlink:href="#DejaVuSans-63" x="93.359375"/>
      <use xlink:href="#DejaVuSans-6b" x="148.339844"/>
      <use xlink:href="#DejaVuSans-20" x="206.25"/>
      <use xlink:href="#DejaVuSans-47" x="238.037109"/>
      <use xlink:href="#DejaVuSans-72" x="315.527344"/>
      <use xlink:href="#DejaVuSans-6f" x="354.390625"/>
      <use xlink:href="#DejaVuSans-75" x="415.572266"/>
      <use xlink:href="#DejaVuSans-70" x="478.951172"/>
      <use xlink:href="#DejaVuSans-20" x="542.427734"/>
      <use xlink:href="#DejaVuSans-32" x="574.214844"/>
     </g>
    </g>
    <g id="line2d_20">
     <path d="M 1012.041875 79.3425 
L 1024.041875 79.3425 
L 1036.041875 79.3425 
" style="fill: none; stroke-dasharray: 5.55,2.4; stroke-dashoffset: 0; stroke: #0000ff; stroke-width: 1.5"/>
    </g>
    <g id="text_19">
     <!-- Integrating Pop 1 -->
     <g transform="translate(1045.641875 83.5425) scale(0.12 -0.12)">
      <use xlink:href="#DejaVuSans-49"/>
      <use xlink:href="#DejaVuSans-6e" x="29.492188"/>
      <use xlink:href="#DejaVuSans-74" x="92.871094"/>
      <use xlink:href="#DejaVuSans-65" x="132.080078"/>
      <use xlink:href="#DejaVuSans-67" x="193.603516"/>
      <use xlink:href="#DejaVuSans-72" x="257.080078"/>
      <use xlink:href="#DejaVuSans-61" x="298.193359"/>
      <use xlink:href="#DejaVuSans-74" x="359.472656"/>
      <use xlink:href="#DejaVuSans-69" x="398.681641"/>
      <use xlink:href="#DejaVuSans-6e" x="426.464844"/>
      <use xlink:href="#DejaVuSans-67" x="489.84375"/>
      <use xlink:href="#DejaVuSans-20" x="553.320312"/>
      <use xlink:href="#DejaVuSans-50" x="585.107422"/>
      <use xlink:href="#DejaVuSans-6f" x="641.785156"/>
      <use xlink:href="#DejaVuSans-70" x="702.966797"/>
      <use xlink:href="#DejaVuSans-20" x="766.443359"/>
      <use xlink:href="#DejaVuSans-31" x="798.230469"/>
     </g>
    </g>
    <g id="line2d_21">
     <path d="M 1012.041875 96.95625 
L 1024.041875 96.95625 
L 1036.041875 96.95625 
" style="fill: none; stroke-dasharray: 5.55,2.4; stroke-dashoffset: 0; stroke: #ff0000; stroke-width: 1.5"/>
    </g>
    <g id="text_20">
     <!-- Integrating Pop 2 -->
     <g transform="translate(1045.641875 101.15625) scale(0.12 -0.12)">
      <use xlink:href="#DejaVuSans-49"/>
      <use xlink:href="#DejaVuSans-6e" x="29.492188"/>
      <use xlink:href="#DejaVuSans-74" x="92.871094"/>
      <use xlink:href="#DejaVuSans-65" x="132.080078"/>
      <use xlink:href="#DejaVuSans-67" x="193.603516"/>
      <use xlink:href="#DejaVuSans-72" x="257.080078"/>
      <use xlink:href="#DejaVuSans-61" x="298.193359"/>
      <use xlink:href="#DejaVuSans-74" x="359.472656"/>
      <use xlink:href="#DejaVuSans-69" x="398.681641"/>
      <use xlink:href="#DejaVuSans-6e" x="426.464844"/>
      <use xlink:href="#DejaVuSans-67" x="489.84375"/>
      <use xlink:href="#DejaVuSans-20" x="553.320312"/>
      <use xlink:href="#DejaVuSans-50" x="585.107422"/>
      <use xlink:href="#DejaVuSans-6f" x="641.785156"/>
      <use xlink:href="#DejaVuSans-70" x="702.966797"/>
      <use xlink:href="#DejaVuSans-20" x="766.443359"/>
      <use xlink:href="#DejaVuSans-32" x="798.230469"/>
     </g>
    </g>
   </g>
  </g>
 </g>
 <defs>
  <clipPath id="p85db842e4e">
   <rect x="43.865" y="28.396875" width="1116" height="166.32"/>
  </clipPath>
 </defs>
</svg>
