<?xml version="1.0" encoding="utf-8" standalone="no"?>
<!DOCTYPE svg PUBLIC "-//W3C//DTD SVG 1.1//EN"
  "http://www.w3.org/Graphics/SVG/1.1/DTD/svg11.dtd">
<svg xmlns:xlink="http://www.w3.org/1999/xlink" width="1167.065pt" height="243.886875pt" viewBox="0 0 1167.065 243.886875" xmlns="http://www.w3.org/2000/svg" version="1.1">
 <metadata>
  <rdf:RDF xmlns:dc="http://purl.org/dc/elements/1.1/" xmlns:cc="http://creativecommons.org/ns#" xmlns:rdf="http://www.w3.org/1999/02/22-rdf-syntax-ns#">
   <cc:Work>
    <dc:type rdf:resource="http://purl.org/dc/dcmitype/StillImage"/>
    <dc:date>2025-10-19T18:57:41.781204</dc:date>
    <dc:format>image/svg+xml</dc:format>
    <dc:creator>
     <cc:Agent>
      <dc:title>Matplotlib v3.9.2, https://matplotlib.org/</dc:title>
     </cc:Agent>
    </dc:creator>
   </cc:Work>
  </rdf:RDF>
 </metadata>
 <defs>
  <style type="text/css">*{stroke-linejoin: round; stroke-linecap: butt}</style>
 </defs>
 <g id="figure_1">
  <g id="patch_1">
   <path d="M 0 243.886875 
L 1167.065 243.886875 
L 1167.065 0 
L 0 0 
z
" style="fill: #ffffff"/>
  </g>
  <g id="axes_1">
   <g id="patch_2">
    <path d="M 43.865 194.716875 
L 1159.865 194.716875 
L 1159.865 28.396875 
L 43.865 28.396875 
z
" style="fill: #ffffff"/>
   </g>
   <g id="PolyCollection_1">
    <defs>
     <path id="med8b33b8ba" d="M 99.665 -56.73 
L 94.592273 -56.73 
L 94.592273 -207.93 
L 99.665 -207.93 
L 99.665 -207.93 
L 99.665 -56.73 
z
" style="stroke: #d3d3d3; stroke-opacity: 0.4"/>
    </defs>
    <g clip-path="url(#pf7c5077973)">
     <use xlink:href="#med8b33b8ba" x="0" y="243.886875" style="fill: #d3d3d3; fill-opacity: 0.4; stroke: #d3d3d3; stroke-opacity: 0.4"/>
    </g>
   </g>
   <g id="PolyCollection_2">
    <defs>
     <path id="m0765a29111" d="M 130.101364 -56.73 
L 99.665 -56.73 
L 99.665 -207.93 
L 130.101364 -207.93 
L 130.101364 -207.93 
L 130.101364 -56.73 
z
" style="stroke: #a9a9a9; stroke-opacity: 0.4"/>
    </defs>
    <g clip-path="url(#pf7c5077973)">
     <use xlink:href="#m0765a29111" x="0" y="243.886875" style="fill: #a9a9a9; fill-opacity: 0.4; stroke: #a9a9a9; stroke-opacity: 0.4"/>
    </g>
   </g>
   <g id="PolyCollection_3">
    <defs>
     <path id="m741d99b417" d="M 221.410455 -56.73 
L 130.101364 -56.73 
L 130.101364 -207.93 
L 221.410455 -207.93 
L 221.410455 -207.93 
L 221.410455 -56.73 
z
" style="stroke: #d3d3d3; stroke-opacity: 0.4"/>
    </defs>
    <g clip-path="url(#pf7c5077973)">
     <use xlink:href="#m741d99b417" x="0" y="243.886875" style="fill: #d3d3d3; fill-opacity: 0.4; stroke: #d3d3d3; stroke-opacity: 0.4"/>
    </g>
   </g>
   <g id="PolyCollection_4">
    <defs>
     <path id="ma055cf9252" d="M 353.301364 -56.73 
L 221.410455 -56.73 
L 221.410455 -207.93 
L 353.301364 -207.93 
L 353.301364 -207.93 
L 353.301364 -56.73 
z
" style="stroke: #a9a9a9; stroke-opacity: 0.4"/>
    </defs>
    <g clip-path="url(#pf7c5077973)">
     <use xlink:href="#ma055cf9252" x="0" y="243.886875" style="fill: #a9a9a9; fill-opacity: 0.4; stroke: #a9a9a9; stroke-opacity: 0.4"/>
    </g>
   </g>
   <g id="PolyCollection_5">
    <defs>
     <path id="m1b6fb2b4f7" d="M 571.428636 -56.73 
L 353.301364 -56.73 
L 353.301364 -207.93 
L 571.428636 -207.93 
L 571.428636 -207.93 
L 571.428636 -56.73 
z
" style="stroke: #d3d3d3; stroke-opacity: 0.4"/>
    </defs>
    <g clip-path="url(#pf7c5077973)">
     <use xlink:href="#m1b6fb2b4f7" x="0" y="243.886875" style="fill: #d3d3d3; fill-opacity: 0.4; stroke: #d3d3d3; stroke-opacity: 0.4"/>
    </g>
   </g>
   <g id="PolyCollection_6">
    <defs>
     <path id="mebb3b803dd" d="M 632.301364 -56.73 
L 571.428636 -56.73 
L 571.428636 -207.93 
L 632.301364 -207.93 
L 632.301364 -207.93 
L 632.301364 -56.73 
z
" style="stroke: #a9a9a9; stroke-opacity: 0.4"/>
    </defs>
    <g clip-path="url(#pf7c5077973)">
     <use xlink:href="#mebb3b803dd" x="0" y="243.886875" style="fill: #a9a9a9; fill-opacity: 0.4; stroke: #a9a9a9; stroke-opacity: 0.4"/>
    </g>
   </g>
   <g id="PolyCollection_7">
    <defs>
     <path id="m8fdbd06eb2" d="M 718.537727 -56.73 
L 632.301364 -56.73 
L 632.301364 -207.93 
L 718.537727 -207.93 
L 718.537727 -207.93 
L 718.537727 -56.73 
z
" style="stroke: #d3d3d3; stroke-opacity: 0.4"/>
    </defs>
    <g clip-path="url(#pf7c5077973)">
     <use xlink:href="#m8fdbd06eb2" x="0" y="243.886875" style="fill: #d3d3d3; fill-opacity: 0.4; stroke: #d3d3d3; stroke-opacity: 0.4"/>
    </g>
   </g>
   <g id="PolyCollection_8">
    <defs>
     <path id="mce074deb1a" d="M 906.228636 -56.73 
L 718.537727 -56.73 
L 718.537727 -207.93 
L 906.228636 -207.93 
L 906.228636 -207.93 
L 906.228636 -56.73 
z
" style="stroke: #a9a9a9; stroke-opacity: 0.4"/>
    </defs>
    <g clip-path="url(#pf7c5077973)">
     <use xlink:href="#mce074deb1a" x="0" y="243.886875" style="fill: #a9a9a9; fill-opacity: 0.4; stroke: #a9a9a9; stroke-opacity: 0.4"/>
    </g>
   </g>
   <g id="PolyCollection_9">
    <defs>
     <path id="m5508d0db51" d="M 1063.483182 -56.73 
L 906.228636 -56.73 
L 906.228636 -207.93 
L 1063.483182 -207.93 
L 1063.483182 -207.93 
L 1063.483182 -56.73 
z
" style="stroke: #d3d3d3; stroke-opacity: 0.4"/>
    </defs>
    <g clip-path="url(#pf7c5077973)">
     <use xlink:href="#m5508d0db51" x="0" y="243.886875" style="fill: #d3d3d3; fill-opacity: 0.4; stroke: #d3d3d3; stroke-opacity: 0.4"/>
    </g>
   </g>
   <g id="PolyCollection_10">
    <defs>
     <path id="mf5762f23a3" d="M 1104.065 -56.73 
L 1063.483182 -56.73 
L 1063.483182 -207.93 
L 1104.065 -207.93 
L 1104.065 -207.93 
L 1104.065 -56.73 
z
" style="stroke: #a9a9a9; stroke-opacity: 0.4"/>
    </defs>
    <g clip-path="url(#pf7c5077973)">
     <use xlink:href="#mf5762f23a3" x="0" y="243.886875" style="fill: #a9a9a9; fill-opacity: 0.4; stroke: #a9a9a9; stroke-opacity: 0.4"/>
    </g>
   </g>
   <g id="PolyCollection_11">
    <defs>
     <path id="m449a9f3a31" d="M 1109.137727 -56.73 
L 1104.065 -56.73 
L 1104.065 -207.93 
L 1109.137727 -207.93 
L 1109.137727 -207.93 
L 1109.137727 -56.73 
z
" style="stroke: #a9a9a9; stroke-opacity: 0.4"/>
    </defs>
    <g clip-path="url(#pf7c5077973)">
     <use xlink:href="#m449a9f3a31" x="0" y="243.886875" style="fill: #a9a9a9; fill-opacity: 0.4; stroke: #a9a9a9; stroke-opacity: 0.4"/>
    </g>
   </g>
   <g id="matplotlib.axis_1">
    <g id="xtick_1">
     <g id="line2d_1">
      <defs>
       <path id="md601587fc8" d="M 0 0 
L 0 3.5 
" style="stroke: #000000; stroke-width: 0.8"/>
      </defs>
      <g>
       <use xlink:href="#md601587fc8" x="94.592273" y="194.716875" style="stroke: #000000; stroke-width: 0.8"/>
      </g>
     </g>
     <g id="text_1">
      <!-- 0 -->
      <g transform="translate(89.502273 213.874375) scale(0.16 -0.16)">
       <defs>
        <path id="DejaVuSans-30" d="M 2034 4250 
Q 1547 4250 1301 3770 
Q 1056 3291 1056 2328 
Q 1056 1369 1301 889 
Q 1547 409 2034 409 
Q 2525 409 2770 889 
Q 3016 1369 3016 2328 
Q 3016 3291 2770 3770 
Q 2525 4250 2034 4250 
z
M 2034 4750 
Q 2819 4750 3233 4129 
Q 3647 3509 3647 2328 
Q 3647 1150 3233 529 
Q 2819 -91 2034 -91 
Q 1250 -91 836 529 
Q 422 1150 422 2328 
Q 422 3509 836 4129 
Q 1250 4750 2034 4750 
z
" transform="scale(0.015625)"/>
       </defs>
       <use xlink:href="#DejaVuSans-30"/>
      </g>
     </g>
    </g>
    <g id="xtick_2">
     <g id="line2d_2">
      <g>
       <use xlink:href="#md601587fc8" x="221.410455" y="194.716875" style="stroke: #000000; stroke-width: 0.8"/>
      </g>
     </g>
     <g id="text_2">
      <!-- 25 -->
      <g transform="translate(211.230455 213.874375) scale(0.16 -0.16)">
       <defs>
        <path id="DejaVuSans-32" d="M 1228 531 
L 3431 531 
L 3431 0 
L 469 0 
L 469 531 
Q 828 903 1448 1529 
Q 2069 2156 2228 2338 
Q 2531 2678 2651 2914 
Q 2772 3150 2772 3378 
Q 2772 3750 2511 3984 
Q 2250 4219 1831 4219 
Q 1534 4219 1204 4116 
Q 875 4013 500 3803 
L 500 4441 
Q 881 4594 1212 4672 
Q 1544 4750 1819 4750 
Q 2544 4750 2975 4387 
Q 3406 4025 3406 3419 
Q 3406 3131 3298 2873 
Q 3191 2616 2906 2266 
Q 2828 2175 2409 1742 
Q 1991 1309 1228 531 
z
" transform="scale(0.015625)"/>
        <path id="DejaVuSans-35" d="M 691 4666 
L 3169 4666 
L 3169 4134 
L 1269 4134 
L 1269 2991 
Q 1406 3038 1543 3061 
Q 1681 3084 1819 3084 
Q 2600 3084 3056 2656 
Q 3513 2228 3513 1497 
Q 3513 744 3044 326 
Q 2575 -91 1722 -91 
Q 1428 -91 1123 -41 
Q 819 9 494 109 
L 494 744 
Q 775 591 1075 516 
Q 1375 441 1709 441 
Q 2250 441 2565 725 
Q 2881 1009 2881 1497 
Q 2881 1984 2565 2268 
Q 2250 2553 1709 2553 
Q 1456 2553 1204 2497 
Q 953 2441 691 2322 
L 691 4666 
z
" transform="scale(0.015625)"/>
       </defs>
       <use xlink:href="#DejaVuSans-32"/>
       <use xlink:href="#DejaVuSans-35" x="63.623047"/>
      </g>
     </g>
    </g>
    <g id="xtick_3">
     <g id="line2d_3">
      <g>
       <use xlink:href="#md601587fc8" x="348.228636" y="194.716875" style="stroke: #000000; stroke-width: 0.8"/>
      </g>
     </g>
     <g id="text_3">
      <!-- 50 -->
      <g transform="translate(338.048636 213.874375) scale(0.16 -0.16)">
       <use xlink:href="#DejaVuSans-35"/>
       <use xlink:href="#DejaVuSans-30" x="63.623047"/>
      </g>
     </g>
    </g>
    <g id="xtick_4">
     <g id="line2d_4">
      <g>
       <use xlink:href="#md601587fc8" x="475.046818" y="194.716875" style="stroke: #000000; stroke-width: 0.8"/>
      </g>
     </g>
     <g id="text_4">
      <!-- 75 -->
      <g transform="translate(464.866818 213.874375) scale(0.16 -0.16)">
       <defs>
        <path id="DejaVuSans-37" d="M 525 4666 
L 3525 4666 
L 3525 4397 
L 1831 0 
L 1172 0 
L 2766 4134 
L 525 4134 
L 525 4666 
z
" transform="scale(0.015625)"/>
       </defs>
       <use xlink:href="#DejaVuSans-37"/>
       <use xlink:href="#DejaVuSans-35" x="63.623047"/>
      </g>
     </g>
    </g>
    <g id="xtick_5">
     <g id="line2d_5">
      <g>
       <use xlink:href="#md601587fc8" x="601.865" y="194.716875" style="stroke: #000000; stroke-width: 0.8"/>
      </g>
     </g>
     <g id="text_5">
      <!-- 100 -->
      <g transform="translate(586.595 213.874375) scale(0.16 -0.16)">
       <defs>
        <path id="DejaVuSans-31" d="M 794 531 
L 1825 531 
L 1825 4091 
L 703 3866 
L 703 4441 
L 1819 4666 
L 2450 4666 
L 2450 531 
L 3481 531 
L 3481 0 
L 794 0 
L 794 531 
z
" transform="scale(0.015625)"/>
       </defs>
       <use xlink:href="#DejaVuSans-31"/>
       <use xlink:href="#DejaVuSans-30" x="63.623047"/>
       <use xlink:href="#DejaVuSans-30" x="127.246094"/>
      </g>
     </g>
    </g>
    <g id="xtick_6">
     <g id="line2d_6">
      <g>
       <use xlink:href="#md601587fc8" x="728.683182" y="194.716875" style="stroke: #000000; stroke-width: 0.8"/>
      </g>
     </g>
     <g id="text_6">
      <!-- 125 -->
      <g transform="translate(713.413182 213.874375) scale(0.16 -0.16)">
       <use xlink:href="#DejaVuSans-31"/>
       <use xlink:href="#DejaVuSans-32" x="63.623047"/>
       <use xlink:href="#DejaVuSans-35" x="127.246094"/>
      </g>
     </g>
    </g>
    <g id="xtick_7">
     <g id="line2d_7">
      <g>
       <use xlink:href="#md601587fc8" x="855.501364" y="194.716875" style="stroke: #000000; stroke-width: 0.8"/>
      </g>
     </g>
     <g id="text_7">
      <!-- 150 -->
      <g transform="translate(840.231364 213.874375) scale(0.16 -0.16)">
       <use xlink:href="#DejaVuSans-31"/>
       <use xlink:href="#DejaVuSans-35" x="63.623047"/>
       <use xlink:href="#DejaVuSans-30" x="127.246094"/>
      </g>
     </g>
    </g>
    <g id="xtick_8">
     <g id="line2d_8">
      <g>
       <use xlink:href="#md601587fc8" x="982.319545" y="194.716875" style="stroke: #000000; stroke-width: 0.8"/>
      </g>
     </g>
     <g id="text_8">
      <!-- 175 -->
      <g transform="translate(967.049545 213.874375) scale(0.16 -0.16)">
       <use xlink:href="#DejaVuSans-31"/>
       <use xlink:href="#DejaVuSans-37" x="63.623047"/>
       <use xlink:href="#DejaVuSans-35" x="127.246094"/>
      </g>
     </g>
    </g>
    <g id="xtick_9">
     <g id="line2d_9">
      <g>
       <use xlink:href="#md601587fc8" x="1109.137727" y="194.716875" style="stroke: #000000; stroke-width: 0.8"/>
      </g>
     </g>
     <g id="text_9">
      <!-- 200 -->
      <g transform="translate(1093.867727 213.874375) scale(0.16 -0.16)">
       <use xlink:href="#DejaVuSans-32"/>
       <use xlink:href="#DejaVuSans-30" x="63.623047"/>
       <use xlink:href="#DejaVuSans-30" x="127.246094"/>
      </g>
     </g>
    </g>
    <g id="text_10">
     <!-- Time -->
     <g transform="translate(582.29125 233.359375) scale(0.16 -0.16)">
      <defs>
       <path id="DejaVuSans-54" d="M -19 4666 
L 3928 4666 
L 3928 4134 
L 2272 4134 
L 2272 0 
L 1638 0 
L 1638 4134 
L -19 4134 
L -19 4666 
z
" transform="scale(0.015625)"/>
       <path id="DejaVuSans-69" d="M 603 3500 
L 1178 3500 
L 1178 0 
L 603 0 
L 603 3500 
z
M 603 4863 
L 1178 4863 
L 1178 4134 
L 603 4134 
L 603 4863 
z
" transform="scale(0.015625)"/>
       <path id="DejaVuSans-6d" d="M 3328 2828 
Q 3544 3216 3844 3400 
Q 4144 3584 4550 3584 
Q 5097 3584 5394 3201 
Q 5691 2819 5691 2113 
L 5691 0 
L 5113 0 
L 5113 2094 
Q 5113 2597 4934 2840 
Q 4756 3084 4391 3084 
Q 3944 3084 3684 2787 
Q 3425 2491 3425 1978 
L 3425 0 
L 2847 0 
L 2847 2094 
Q 2847 2600 2669 2842 
Q 2491 3084 2119 3084 
Q 1678 3084 1418 2786 
Q 1159 2488 1159 1978 
L 1159 0 
L 581 0 
L 581 3500 
L 1159 3500 
L 1159 2956 
Q 1356 3278 1631 3431 
Q 1906 3584 2284 3584 
Q 2666 3584 2933 3390 
Q 3200 3197 3328 2828 
z
" transform="scale(0.015625)"/>
       <path id="DejaVuSans-65" d="M 3597 1894 
L 3597 1613 
L 953 1613 
Q 991 1019 1311 708 
Q 1631 397 2203 397 
Q 2534 397 2845 478 
Q 3156 559 3463 722 
L 3463 178 
Q 3153 47 2828 -22 
Q 2503 -91 2169 -91 
Q 1331 -91 842 396 
Q 353 884 353 1716 
Q 353 2575 817 3079 
Q 1281 3584 2069 3584 
Q 2775 3584 3186 3129 
Q 3597 2675 3597 1894 
z
M 3022 2063 
Q 3016 2534 2758 2815 
Q 2500 3097 2075 3097 
Q 1594 3097 1305 2825 
Q 1016 2553 972 2059 
L 3022 2063 
z
" transform="scale(0.015625)"/>
      </defs>
      <use xlink:href="#DejaVuSans-54"/>
      <use xlink:href="#DejaVuSans-69" x="57.958984"/>
      <use xlink:href="#DejaVuSans-6d" x="85.742188"/>
      <use xlink:href="#DejaVuSans-65" x="183.154297"/>
     </g>
    </g>
   </g>
   <g id="matplotlib.axis_2">
    <g id="ytick_1">
     <g id="line2d_10">
      <defs>
       <path id="m80004b2893" d="M 0 0 
L -3.5 0 
" style="stroke: #000000; stroke-width: 0.8"/>
      </defs>
      <g>
       <use xlink:href="#m80004b2893" x="43.865" y="187.156875" style="stroke: #000000; stroke-width: 0.8"/>
      </g>
     </g>
     <g id="text_11">
      <!-- 0 -->
      <g transform="translate(26.685 193.235625) scale(0.16 -0.16)">
       <use xlink:href="#DejaVuSans-30"/>
      </g>
     </g>
    </g>
    <g id="ytick_2">
     <g id="line2d_11">
      <g>
       <use xlink:href="#m80004b2893" x="43.865" y="139.273613" style="stroke: #000000; stroke-width: 0.8"/>
      </g>
     </g>
     <g id="text_12">
      <!-- 2 -->
      <g transform="translate(26.685 145.352363) scale(0.16 -0.16)">
       <use xlink:href="#DejaVuSans-32"/>
      </g>
     </g>
    </g>
    <g id="ytick_3">
     <g id="line2d_12">
      <g>
       <use xlink:href="#m80004b2893" x="43.865" y="91.390351" style="stroke: #000000; stroke-width: 0.8"/>
      </g>
     </g>
     <g id="text_13">
      <!-- 4 -->
      <g transform="translate(26.685 97.469101) scale(0.16 -0.16)">
       <defs>
        <path id="DejaVuSans-34" d="M 2419 4116 
L 825 1625 
L 2419 1625 
L 2419 4116 
z
M 2253 4666 
L 3047 4666 
L 3047 1625 
L 3713 1625 
L 3713 1100 
L 3047 1100 
L 3047 0 
L 2419 0 
L 2419 1100 
L 313 1100 
L 313 1709 
L 2253 4666 
z
" transform="scale(0.015625)"/>
       </defs>
       <use xlink:href="#DejaVuSans-34"/>
      </g>
     </g>
    </g>
    <g id="ytick_4">
     <g id="line2d_13">
      <g>
       <use xlink:href="#m80004b2893" x="43.865" y="43.507089" style="stroke: #000000; stroke-width: 0.8"/>
      </g>
     </g>
     <g id="text_14">
      <!-- 6 -->
      <g transform="translate(26.685 49.585839) scale(0.16 -0.16)">
       <defs>
        <path id="DejaVuSans-36" d="M 2113 2584 
Q 1688 2584 1439 2293 
Q 1191 2003 1191 1497 
Q 1191 994 1439 701 
Q 1688 409 2113 409 
Q 2538 409 2786 701 
Q 3034 994 3034 1497 
Q 3034 2003 2786 2293 
Q 2538 2584 2113 2584 
z
M 3366 4563 
L 3366 3988 
Q 3128 4100 2886 4159 
Q 2644 4219 2406 4219 
Q 1781 4219 1451 3797 
Q 1122 3375 1075 2522 
Q 1259 2794 1537 2939 
Q 1816 3084 2150 3084 
Q 2853 3084 3261 2657 
Q 3669 2231 3669 1497 
Q 3669 778 3244 343 
Q 2819 -91 2113 -91 
Q 1303 -91 875 529 
Q 447 1150 447 2328 
Q 447 3434 972 4092 
Q 1497 4750 2381 4750 
Q 2619 4750 2861 4703 
Q 3103 4656 3366 4563 
z
" transform="scale(0.015625)"/>
       </defs>
       <use xlink:href="#DejaVuSans-36"/>
      </g>
     </g>
    </g>
    <g id="text_15">
     <!-- Mean activity -->
     <g transform="translate(19.3575 165.385625) rotate(-90) scale(0.16 -0.16)">
      <defs>
       <path id="DejaVuSans-4d" d="M 628 4666 
L 1569 4666 
L 2759 1491 
L 3956 4666 
L 4897 4666 
L 4897 0 
L 4281 0 
L 4281 4097 
L 3078 897 
L 2444 897 
L 1241 4097 
L 1241 0 
L 628 0 
L 628 4666 
z
" transform="scale(0.015625)"/>
       <path id="DejaVuSans-61" d="M 2194 1759 
Q 1497 1759 1228 1600 
Q 959 1441 959 1056 
Q 959 750 1161 570 
Q 1363 391 1709 391 
Q 2188 391 2477 730 
Q 2766 1069 2766 1631 
L 2766 1759 
L 2194 1759 
z
M 3341 1997 
L 3341 0 
L 2766 0 
L 2766 531 
Q 2569 213 2275 61 
Q 1981 -91 1556 -91 
Q 1019 -91 701 211 
Q 384 513 384 1019 
Q 384 1609 779 1909 
Q 1175 2209 1959 2209 
L 2766 2209 
L 2766 2266 
Q 2766 2663 2505 2880 
Q 2244 3097 1772 3097 
Q 1472 3097 1187 3025 
Q 903 2953 641 2809 
L 641 3341 
Q 956 3463 1253 3523 
Q 1550 3584 1831 3584 
Q 2591 3584 2966 3190 
Q 3341 2797 3341 1997 
z
" transform="scale(0.015625)"/>
       <path id="DejaVuSans-6e" d="M 3513 2113 
L 3513 0 
L 2938 0 
L 2938 2094 
Q 2938 2591 2744 2837 
Q 2550 3084 2163 3084 
Q 1697 3084 1428 2787 
Q 1159 2491 1159 1978 
L 1159 0 
L 581 0 
L 581 3500 
L 1159 3500 
L 1159 2956 
Q 1366 3272 1645 3428 
Q 1925 3584 2291 3584 
Q 2894 3584 3203 3211 
Q 3513 2838 3513 2113 
z
" transform="scale(0.015625)"/>
       <path id="DejaVuSans-20" transform="scale(0.015625)"/>
       <path id="DejaVuSans-63" d="M 3122 3366 
L 3122 2828 
Q 2878 2963 2633 3030 
Q 2388 3097 2138 3097 
Q 1578 3097 1268 2742 
Q 959 2388 959 1747 
Q 959 1106 1268 751 
Q 1578 397 2138 397 
Q 2388 397 2633 464 
Q 2878 531 3122 666 
L 3122 134 
Q 2881 22 2623 -34 
Q 2366 -91 2075 -91 
Q 1284 -91 818 406 
Q 353 903 353 1747 
Q 353 2603 823 3093 
Q 1294 3584 2113 3584 
Q 2378 3584 2631 3529 
Q 2884 3475 3122 3366 
z
" transform="scale(0.015625)"/>
       <path id="DejaVuSans-74" d="M 1172 4494 
L 1172 3500 
L 2356 3500 
L 2356 3053 
L 1172 3053 
L 1172 1153 
Q 1172 725 1289 603 
Q 1406 481 1766 481 
L 2356 481 
L 2356 0 
L 1766 0 
Q 1100 0 847 248 
Q 594 497 594 1153 
L 594 3053 
L 172 3053 
L 172 3500 
L 594 3500 
L 594 4494 
L 1172 4494 
z
" transform="scale(0.015625)"/>
       <path id="DejaVuSans-76" d="M 191 3500 
L 800 3500 
L 1894 563 
L 2988 3500 
L 3597 3500 
L 2284 0 
L 1503 0 
L 191 3500 
z
" transform="scale(0.015625)"/>
       <path id="DejaVuSans-79" d="M 2059 -325 
Q 1816 -950 1584 -1140 
Q 1353 -1331 966 -1331 
L 506 -1331 
L 506 -850 
L 844 -850 
Q 1081 -850 1212 -737 
Q 1344 -625 1503 -206 
L 1606 56 
L 191 3500 
L 800 3500 
L 1894 763 
L 2988 3500 
L 3597 3500 
L 2059 -325 
z
" transform="scale(0.015625)"/>
      </defs>
      <use xlink:href="#DejaVuSans-4d"/>
      <use xlink:href="#DejaVuSans-65" x="86.279297"/>
      <use xlink:href="#DejaVuSans-61" x="147.802734"/>
      <use xlink:href="#DejaVuSans-6e" x="209.082031"/>
      <use xlink:href="#DejaVuSans-20" x="272.460938"/>
      <use xlink:href="#DejaVuSans-61" x="304.248047"/>
      <use xlink:href="#DejaVuSans-63" x="365.527344"/>
      <use xlink:href="#DejaVuSans-74" x="420.507812"/>
      <use xlink:href="#DejaVuSans-69" x="459.716797"/>
      <use xlink:href="#DejaVuSans-76" x="487.5"/>
      <use xlink:href="#DejaVuSans-69" x="546.679688"/>
      <use xlink:href="#DejaVuSans-74" x="574.462891"/>
      <use xlink:href="#DejaVuSans-79" x="613.671875"/>
     </g>
    </g>
   </g>
   <g id="line2d_14">
    <path d="M 94.592273 183.560574 
L 99.665 169.597183 
L 104.737727 181.59465 
L 109.810455 184.581817 
L 114.883182 179.975187 
L 119.955909 185.203019 
L 125.028636 173.289024 
L 130.101364 122.504948 
L 135.174091 97.190138 
L 140.246818 78.284954 
L 145.319545 75.624221 
L 150.392273 76.822699 
L 155.465 83.69708 
L 160.537727 79.824848 
L 165.610455 87.4436 
L 170.683182 110.143635 
L 175.755909 114.835003 
L 180.828636 113.738235 
L 185.901364 115.555375 
L 190.974091 135.501631 
L 196.046818 154.886881 
L 201.119545 173.602538 
L 206.192273 173.532185 
L 211.265 177.815474 
L 216.337727 175.918798 
L 221.410455 186.822528 
L 226.483182 187.156875 
L 302.574091 187.156875 
L 307.646818 181.168738 
L 312.719545 187.156875 
L 317.792273 184.082436 
L 322.865 177.505075 
L 327.937727 173.974723 
L 333.010455 159.998551 
L 338.083182 157.964998 
L 343.155909 146.397059 
L 348.228636 132.82285 
L 353.301364 134.526628 
L 358.374091 123.674376 
L 363.446818 107.823965 
L 368.519545 110.964299 
L 373.592273 108.595862 
L 378.665 97.741896 
L 383.737727 77.058835 
L 388.810455 58.245613 
L 393.883182 76.954428 
L 398.955909 96.929023 
L 404.028636 94.119452 
L 409.101364 98.921765 
L 414.174091 112.985877 
L 419.246818 127.650544 
L 424.319545 133.992886 
L 429.392273 133.418883 
L 434.465 137.189802 
L 439.537727 117.642379 
L 444.610455 104.317428 
L 449.683182 102.187933 
L 454.755909 94.450644 
L 459.828636 102.127249 
L 464.901364 104.621151 
L 469.974091 95.436037 
L 475.046818 82.710811 
L 480.119545 82.175864 
L 485.192273 92.340846 
L 490.265 84.484178 
L 495.337727 104.621582 
L 500.410455 120.033751 
L 505.483182 133.247084 
L 510.555909 151.163807 
L 515.628636 146.15775 
L 520.701364 139.458878 
L 525.774091 131.39962 
L 530.846818 137.988701 
L 535.919545 151.176901 
L 540.992273 160.107944 
L 546.065 172.969666 
L 551.137727 173.928187 
L 556.210455 186.087251 
L 561.283182 184.135281 
L 566.355909 187.156875 
L 581.574091 187.156875 
L 586.646818 187.007945 
L 591.719545 187.156875 
L 596.792273 183.867342 
L 601.865 175.967534 
L 606.937727 168.448242 
L 612.010455 150.590198 
L 617.083182 131.740208 
L 622.155909 130.321325 
L 627.228636 121.055499 
L 632.301364 110.542763 
L 637.374091 97.708122 
L 642.446818 91.237786 
L 647.519545 94.590459 
L 652.592273 99.302973 
L 657.665 100.076558 
L 662.737727 92.408511 
L 667.810455 90.126561 
L 677.955909 127.799011 
L 683.028636 129.763402 
L 688.101364 129.026668 
L 693.174091 145.424879 
L 698.246818 170.639194 
L 703.319545 177.61435 
L 708.392273 179.833338 
L 713.465 183.034371 
L 718.537727 187.156875 
L 870.719545 187.156875 
L 875.792273 183.255508 
L 880.865 179.778751 
L 885.937727 160.558617 
L 891.010455 147.849945 
L 896.083182 161.121444 
L 901.155909 141.960325 
L 906.228636 151.069266 
L 911.301364 152.936946 
L 916.374091 149.616899 
L 921.446818 153.360752 
L 926.519545 163.557543 
L 931.592273 149.856023 
L 936.665 131.826618 
L 941.737727 127.990156 
L 946.810455 135.097835 
L 951.883182 144.303349 
L 956.955909 144.014644 
L 962.028636 128.891859 
L 967.101364 99.616723 
L 972.174091 75.939687 
L 977.246818 65.185115 
L 982.319545 74.689427 
L 987.392273 94.082494 
L 992.465 101.973021 
L 997.537727 112.069459 
L 1002.610455 126.318024 
L 1007.683182 132.721864 
L 1012.755909 130.123777 
L 1017.828636 141.803501 
L 1022.901364 155.70134 
L 1027.974091 156.021674 
L 1033.046818 161.193019 
L 1038.119545 173.648903 
L 1043.192273 174.481931 
L 1048.265 176.478816 
L 1053.337727 180.210236 
L 1063.483182 187.156875 
L 1068.555909 186.831661 
L 1073.628636 181.143148 
L 1078.701364 161.976861 
L 1083.774091 148.528128 
L 1088.846818 154.28684 
L 1093.919545 152.729786 
L 1098.992273 164.515242 
L 1104.065 155.477145 
L 1104.065 155.477145 
" clip-path="url(#pf7c5077973)" style="fill: none; stroke: #000080; stroke-width: 1.5; stroke-linecap: square"/>
   </g>
   <g id="line2d_15">
    <path d="M 94.592273 187.156875 
L 99.665 165.322225 
L 104.737727 161.873582 
L 109.810455 174.990777 
L 114.883182 176.515907 
L 119.955909 181.480435 
L 125.028636 184.618173 
L 130.101364 185.829932 
L 135.174091 187.156875 
L 190.974091 187.156875 
L 196.046818 176.302284 
L 201.119545 165.877093 
L 206.192273 146.279592 
L 211.265 135.489678 
L 216.337727 108.663097 
L 221.410455 95.136251 
L 226.483182 74.945081 
L 231.555909 52.254542 
L 236.628636 50.434293 
L 241.701364 43.139364 
L 246.774091 46.600043 
L 251.846818 70.68595 
L 256.919545 85.378326 
L 261.992273 72.317759 
L 267.065 81.906163 
L 272.137727 89.572871 
L 277.210455 127.302444 
L 282.283182 131.045597 
L 287.355909 129.118367 
L 292.428636 132.146969 
L 297.501364 154.15524 
L 302.574091 165.592438 
L 307.646818 163.599221 
L 312.719545 153.905982 
L 317.792273 161.535831 
L 322.865 164.679817 
L 327.937727 173.220213 
L 333.010455 182.482527 
L 338.083182 183.738185 
L 343.155909 187.156875 
L 530.846818 187.156875 
L 535.919545 184.957746 
L 540.992273 179.89237 
L 546.065 182.220578 
L 551.137727 158.29119 
L 556.210455 140.411725 
L 561.283182 135.679259 
L 566.355909 150.608778 
L 571.428636 152.855986 
L 576.501364 159.747275 
L 581.574091 138.924929 
L 586.646818 152.123824 
L 591.719545 153.716349 
L 596.792273 158.108285 
L 601.865 168.831103 
L 606.937727 174.710836 
L 612.010455 186.032328 
L 617.083182 187.156875 
L 693.174091 187.156875 
L 698.246818 183.558724 
L 703.319545 150.562683 
L 708.392273 138.085225 
L 713.465 121.688973 
L 718.537727 135.245586 
L 723.610455 139.069201 
L 728.683182 128.896704 
L 733.755909 141.684348 
L 738.828636 139.675679 
L 743.901364 129.637328 
L 748.974091 126.532173 
L 754.046818 150.079761 
L 759.119545 145.093 
L 764.192273 144.154042 
L 769.265 138.613445 
L 774.337727 121.92119 
L 779.410455 123.974354 
L 784.483182 116.415854 
L 789.555909 129.992007 
L 794.628636 137.937 
L 799.701364 149.491331 
L 804.774091 148.013062 
L 809.846818 125.802409 
L 814.919545 114.245364 
L 819.992273 105.04424 
L 825.065 96.875856 
L 830.137727 113.882204 
L 835.210455 124.500901 
L 840.283182 143.808759 
L 845.355909 152.207027 
L 850.428636 143.17766 
L 855.501364 156.561237 
L 860.574091 163.367251 
L 865.646818 148.060181 
L 870.719545 152.220662 
L 875.792273 161.099657 
L 880.865 171.393735 
L 885.937727 184.021816 
L 891.010455 187.156875 
L 951.883182 187.156875 
L 956.955909 186.187723 
L 962.028636 187.156875 
L 1022.901364 187.156875 
L 1027.974091 178.751948 
L 1033.046818 183.281171 
L 1038.119545 177.382387 
L 1043.192273 167.559106 
L 1048.265 173.093054 
L 1053.337727 140.874204 
L 1058.410455 144.908855 
L 1063.483182 150.168218 
L 1068.555909 158.601675 
L 1073.628636 171.527254 
L 1078.701364 177.956778 
L 1083.774091 184.851865 
L 1088.846818 187.156875 
L 1093.919545 185.829049 
L 1098.992273 187.156875 
L 1104.065 178.799212 
L 1104.065 178.799212 
" clip-path="url(#pf7c5077973)" style="fill: none; stroke: #8b0000; stroke-width: 1.5; stroke-linecap: square"/>
   </g>
   <g id="line2d_16">
    <path d="M 94.592273 180.856157 
L 99.665 175.97065 
L 104.737727 180.670179 
L 109.810455 181.697528 
L 114.883182 182.276276 
L 119.955909 181.843351 
L 125.028636 174.482729 
L 130.101364 162.640654 
L 135.174091 156.113886 
L 140.246818 153.613933 
L 145.319545 156.356198 
L 150.392273 159.621848 
L 155.465 160.119288 
L 160.537727 164.465418 
L 165.610455 166.655407 
L 170.683182 170.16739 
L 175.755909 169.831055 
L 180.828636 171.238098 
L 185.901364 169.993078 
L 190.974091 180.075077 
L 196.046818 181.546621 
L 211.265 182.226454 
L 216.337727 180.218751 
L 221.410455 181.962488 
L 226.483182 181.163718 
L 231.555909 180.087873 
L 236.628636 180.813958 
L 241.701364 180.278092 
L 246.774091 181.540885 
L 251.846818 181.896871 
L 256.919545 182.507837 
L 261.992273 181.928811 
L 267.065 182.185897 
L 272.137727 183.262078 
L 277.210455 183.806231 
L 282.283182 184.599371 
L 287.355909 184.477296 
L 292.428636 184.656683 
L 297.501364 182.465276 
L 302.574091 180.482822 
L 307.646818 179.48512 
L 312.719545 182.528918 
L 317.792273 177.915407 
L 322.865 175.380378 
L 327.937727 173.490862 
L 333.010455 173.331659 
L 338.083182 175.46262 
L 343.155909 172.042196 
L 348.228636 173.784506 
L 353.301364 172.642083 
L 358.374091 167.214578 
L 363.446818 164.595167 
L 368.519545 171.389551 
L 373.592273 167.190055 
L 378.665 162.807999 
L 383.737727 154.339449 
L 388.810455 158.738959 
L 393.883182 163.910051 
L 398.955909 164.795909 
L 404.028636 166.422573 
L 409.101364 166.736552 
L 414.174091 172.738354 
L 419.246818 173.160575 
L 424.319545 173.144927 
L 429.392273 176.219438 
L 434.465 172.552596 
L 439.537727 168.235394 
L 444.610455 164.682583 
L 449.683182 166.326998 
L 454.755909 164.778851 
L 459.828636 168.886367 
L 464.901364 163.87679 
L 469.974091 163.507681 
L 475.046818 160.582442 
L 480.119545 164.486109 
L 485.192273 163.38055 
L 490.265 162.577437 
L 495.337727 167.969092 
L 500.410455 173.617096 
L 505.483182 177.593624 
L 510.555909 178.691407 
L 515.628636 175.928681 
L 520.701364 174.02379 
L 525.774091 175.748265 
L 530.846818 178.047703 
L 535.919545 179.030712 
L 546.065 182.587337 
L 551.137727 182.757552 
L 556.210455 183.066944 
L 561.283182 183.822796 
L 566.355909 183.931588 
L 571.428636 184.668256 
L 576.501364 182.046307 
L 581.574091 183.956052 
L 586.646818 184.18462 
L 591.719545 181.805036 
L 596.792273 178.960874 
L 601.865 176.357147 
L 606.937727 172.420707 
L 612.010455 168.29937 
L 617.083182 167.004661 
L 622.155909 166.43009 
L 627.228636 166.724745 
L 632.301364 164.182511 
L 637.374091 161.41718 
L 642.446818 161.567094 
L 647.519545 165.751944 
L 652.592273 167.166022 
L 657.665 166.44697 
L 662.737727 165.297286 
L 667.810455 165.691322 
L 672.883182 171.224045 
L 677.955909 172.707483 
L 683.028636 173.387937 
L 688.101364 174.577691 
L 693.174091 181.168902 
L 698.246818 183.707012 
L 703.319545 181.50356 
L 708.392273 182.817721 
L 713.465 182.467324 
L 718.537727 184.125479 
L 723.610455 185.186117 
L 728.683182 184.69649 
L 733.755909 185.236257 
L 738.828636 184.292366 
L 743.901364 184.278573 
L 748.974091 184.676906 
L 754.046818 183.784531 
L 759.119545 184.308717 
L 764.192273 184.7203 
L 769.265 184.410977 
L 774.337727 183.61543 
L 779.410455 183.750187 
L 784.483182 184.592522 
L 789.555909 184.131902 
L 794.628636 184.749243 
L 799.701364 185.505127 
L 809.846818 184.635004 
L 814.919545 183.270796 
L 819.992273 183.771332 
L 825.065 183.378342 
L 830.137727 184.03365 
L 835.210455 183.205362 
L 840.283182 183.828149 
L 845.355909 179.520799 
L 850.428636 179.430199 
L 855.501364 180.001585 
L 860.574091 184.876848 
L 865.646818 184.978264 
L 870.719545 182.325147 
L 875.792273 177.953298 
L 880.865 175.242843 
L 885.937727 173.413788 
L 891.010455 173.506377 
L 896.083182 175.275775 
L 901.155909 175.272694 
L 906.228636 176.956205 
L 911.301364 181.553725 
L 916.374091 178.306907 
L 921.446818 180.922003 
L 926.519545 181.191788 
L 931.592273 175.028576 
L 936.665 172.473148 
L 941.737727 172.313302 
L 946.810455 177.504206 
L 951.883182 176.826363 
L 956.955909 177.206595 
L 962.028636 166.933636 
L 967.101364 163.094203 
L 972.174091 155.946328 
L 982.319545 160.418184 
L 987.392273 166.466323 
L 997.537727 169.946949 
L 1002.610455 172.808492 
L 1007.683182 177.529705 
L 1012.755909 175.011258 
L 1017.828636 177.780564 
L 1022.901364 181.152732 
L 1027.974091 182.340462 
L 1033.046818 179.184144 
L 1038.119545 181.977762 
L 1043.192273 181.676888 
L 1048.265 183.978487 
L 1053.337727 183.209731 
L 1058.410455 182.645121 
L 1063.483182 184.46178 
L 1068.555909 181.645446 
L 1073.628636 179.148266 
L 1078.701364 171.628335 
L 1083.774091 170.889966 
L 1088.846818 175.357747 
L 1098.992273 180.567924 
L 1104.065 179.507787 
L 1104.065 179.507787 
" clip-path="url(#pf7c5077973)" style="fill: none; stroke-dasharray: 5.55,2.4; stroke-dashoffset: 0; stroke: #0000ff; stroke-width: 1.5"/>
   </g>
   <g id="line2d_17">
    <path d="M 94.592273 181.103076 
L 99.665 177.35135 
L 104.737727 177.882408 
L 109.810455 184.429092 
L 114.883182 184.643521 
L 119.955909 183.91068 
L 125.028636 183.810669 
L 130.101364 184.538707 
L 135.174091 185.942761 
L 140.246818 185.405812 
L 145.319545 185.774887 
L 150.392273 185.830906 
L 155.465 186.608624 
L 160.537727 186.619592 
L 170.683182 186.037753 
L 175.755909 186.650614 
L 180.828636 186.966461 
L 185.901364 187.088864 
L 190.974091 184.889922 
L 196.046818 178.211469 
L 201.119545 179.339512 
L 211.265 169.626304 
L 216.337727 163.896309 
L 221.410455 162.573661 
L 226.483182 154.530428 
L 231.555909 152.605167 
L 236.628636 150.85151 
L 241.701364 152.307455 
L 246.774091 156.14089 
L 251.846818 161.759354 
L 256.919545 161.185292 
L 261.992273 161.356247 
L 267.065 163.039251 
L 272.137727 167.652631 
L 277.210455 175.143954 
L 282.283182 175.350913 
L 287.355909 172.800354 
L 292.428636 176.845877 
L 297.501364 182.166244 
L 302.574091 183.009667 
L 307.646818 182.225436 
L 312.719545 178.24871 
L 317.792273 181.156033 
L 322.865 181.141082 
L 327.937727 184.596406 
L 338.083182 185.445565 
L 343.155909 186.738221 
L 348.228636 186.725099 
L 353.301364 186.371345 
L 358.374091 186.637375 
L 363.446818 186.531651 
L 368.519545 187.135699 
L 373.592273 185.995541 
L 378.665 187.156875 
L 383.737727 186.764396 
L 388.810455 187.156875 
L 398.955909 187.112693 
L 409.101364 186.371475 
L 419.246818 186.860914 
L 424.319545 187.156875 
L 429.392273 186.658115 
L 434.465 187.025828 
L 439.537727 186.547106 
L 444.610455 187.156875 
L 449.683182 186.668173 
L 454.755909 187.156875 
L 459.828636 187.077182 
L 464.901364 185.700398 
L 469.974091 187.156875 
L 475.046818 185.848326 
L 480.119545 186.667799 
L 485.192273 187.156875 
L 490.265 186.671363 
L 495.337727 186.805566 
L 500.410455 187.156875 
L 510.555909 187.132804 
L 515.628636 185.98023 
L 520.701364 186.62709 
L 525.774091 187.139246 
L 530.846818 186.295656 
L 535.919545 185.281308 
L 540.992273 183.361176 
L 546.065 181.288563 
L 551.137727 172.620744 
L 556.210455 172.236859 
L 566.355909 174.781663 
L 571.428636 178.011372 
L 576.501364 178.426989 
L 581.574091 178.356179 
L 586.646818 176.535368 
L 591.719545 178.78073 
L 596.792273 182.467867 
L 601.865 182.849579 
L 606.937727 184.022591 
L 617.083182 185.538559 
L 622.155909 186.197503 
L 627.228636 185.636745 
L 632.301364 185.876333 
L 637.374091 185.756763 
L 642.446818 186.183355 
L 647.519545 186.187577 
L 652.592273 186.809612 
L 657.665 186.507495 
L 662.737727 185.874551 
L 667.810455 186.885348 
L 672.883182 186.342175 
L 677.955909 187.156875 
L 683.028636 187.005213 
L 688.101364 187.123117 
L 693.174091 185.626262 
L 698.246818 179.057815 
L 703.319545 173.411223 
L 708.392273 171.089429 
L 713.465 169.805483 
L 718.537727 174.621035 
L 723.610455 171.711975 
L 728.683182 173.572229 
L 733.755909 174.929346 
L 738.828636 175.111137 
L 743.901364 169.451449 
L 748.974091 174.967223 
L 754.046818 180.084482 
L 759.119545 177.989747 
L 764.192273 174.954797 
L 769.265 168.483951 
L 774.337727 172.249708 
L 779.410455 171.699537 
L 784.483182 171.395261 
L 789.555909 174.336833 
L 799.701364 178.859918 
L 804.774091 175.360886 
L 809.846818 169.434181 
L 814.919545 167.218082 
L 819.992273 165.667396 
L 825.065 166.007107 
L 830.137727 173.515565 
L 835.210455 174.43526 
L 840.283182 178.647886 
L 845.355909 175.797847 
L 850.428636 176.377305 
L 855.501364 183.025389 
L 860.574091 180.024691 
L 865.646818 178.150393 
L 870.719545 180.24603 
L 875.792273 181.371011 
L 880.865 184.002515 
L 885.937727 186.088055 
L 891.010455 185.733723 
L 896.083182 186.146351 
L 901.155909 186.11499 
L 906.228636 185.571303 
L 911.301364 185.57127 
L 916.374091 185.035744 
L 921.446818 185.675873 
L 926.519545 184.618048 
L 931.592273 186.329138 
L 936.665 186.946992 
L 941.737727 186.821633 
L 946.810455 185.927567 
L 951.883182 187.136718 
L 956.955909 186.424685 
L 962.028636 187.029198 
L 977.246818 187.156875 
L 982.319545 186.851644 
L 987.392273 186.937164 
L 992.465 187.156875 
L 997.537727 187.156875 
L 1002.610455 186.155071 
L 1007.683182 186.698442 
L 1012.755909 187.020592 
L 1022.901364 184.814836 
L 1027.974091 184.109794 
L 1033.046818 180.911721 
L 1038.119545 180.592042 
L 1043.192273 183.19242 
L 1048.265 179.424068 
L 1053.337727 174.851943 
L 1058.410455 173.775587 
L 1063.483182 177.36278 
L 1068.555909 181.353651 
L 1073.628636 185.201826 
L 1078.701364 184.52575 
L 1083.774091 185.961049 
L 1088.846818 185.815623 
L 1098.992273 185.114494 
L 1104.065 185.312477 
L 1104.065 185.312477 
" clip-path="url(#pf7c5077973)" style="fill: none; stroke-dasharray: 5.55,2.4; stroke-dashoffset: 0; stroke: #ff0000; stroke-width: 1.5"/>
   </g>
   <g id="patch_3">
    <path d="M 43.865 194.716875 
L 43.865 28.396875 
" style="fill: none; stroke: #000000; stroke-width: 0.8; stroke-linejoin: miter; stroke-linecap: square"/>
   </g>
   <g id="patch_4">
    <path d="M 1159.865 194.716875 
L 1159.865 28.396875 
" style="fill: none; stroke: #000000; stroke-width: 0.8; stroke-linejoin: miter; stroke-linecap: square"/>
   </g>
   <g id="patch_5">
    <path d="M 43.865 194.716875 
L 1159.865 194.716875 
" style="fill: none; stroke: #000000; stroke-width: 0.8; stroke-linejoin: miter; stroke-linecap: square"/>
   </g>
   <g id="patch_6">
    <path d="M 43.865 28.396875 
L 1159.865 28.396875 
" style="fill: none; stroke: #000000; stroke-width: 0.8; stroke-linejoin: miter; stroke-linecap: square"/>
   </g>
   <g id="text_16">
    <!-- Mean activity of Kick Neurons and Noise Integrating Populations -->
    <g transform="translate(280.915 22.396875) scale(0.2 -0.2)">
     <defs>
      <path id="DejaVuSans-6f" d="M 1959 3097 
Q 1497 3097 1228 2736 
Q 959 2375 959 1747 
Q 959 1119 1226 758 
Q 1494 397 1959 397 
Q 2419 397 2687 759 
Q 2956 1122 2956 1747 
Q 2956 2369 2687 2733 
Q 2419 3097 1959 3097 
z
M 1959 3584 
Q 2709 3584 3137 3096 
Q 3566 2609 3566 1747 
Q 3566 888 3137 398 
Q 2709 -91 1959 -91 
Q 1206 -91 779 398 
Q 353 888 353 1747 
Q 353 2609 779 3096 
Q 1206 3584 1959 3584 
z
" transform="scale(0.015625)"/>
      <path id="DejaVuSans-66" d="M 2375 4863 
L 2375 4384 
L 1825 4384 
Q 1516 4384 1395 4259 
Q 1275 4134 1275 3809 
L 1275 3500 
L 2222 3500 
L 2222 3053 
L 1275 3053 
L 1275 0 
L 697 0 
L 697 3053 
L 147 3053 
L 147 3500 
L 697 3500 
L 697 3744 
Q 697 4328 969 4595 
Q 1241 4863 1831 4863 
L 2375 4863 
z
" transform="scale(0.015625)"/>
      <path id="DejaVuSans-4b" d="M 628 4666 
L 1259 4666 
L 1259 2694 
L 3353 4666 
L 4166 4666 
L 1850 2491 
L 4331 0 
L 3500 0 
L 1259 2247 
L 1259 0 
L 628 0 
L 628 4666 
z
" transform="scale(0.015625)"/>
      <path id="DejaVuSans-6b" d="M 581 4863 
L 1159 4863 
L 1159 1991 
L 2875 3500 
L 3609 3500 
L 1753 1863 
L 3688 0 
L 2938 0 
L 1159 1709 
L 1159 0 
L 581 0 
L 581 4863 
z
" transform="scale(0.015625)"/>
      <path id="DejaVuSans-4e" d="M 628 4666 
L 1478 4666 
L 3547 763 
L 3547 4666 
L 4159 4666 
L 4159 0 
L 3309 0 
L 1241 3903 
L 1241 0 
L 628 0 
L 628 4666 
z
" transform="scale(0.015625)"/>
      <path id="DejaVuSans-75" d="M 544 1381 
L 544 3500 
L 1119 3500 
L 1119 1403 
Q 1119 906 1312 657 
Q 1506 409 1894 409 
Q 2359 409 2629 706 
Q 2900 1003 2900 1516 
L 2900 3500 
L 3475 3500 
L 3475 0 
L 2900 0 
L 2900 538 
Q 2691 219 2414 64 
Q 2138 -91 1772 -91 
Q 1169 -91 856 284 
Q 544 659 544 1381 
z
M 1991 3584 
L 1991 3584 
z
" transform="scale(0.015625)"/>
      <path id="DejaVuSans-72" d="M 2631 2963 
Q 2534 3019 2420 3045 
Q 2306 3072 2169 3072 
Q 1681 3072 1420 2755 
Q 1159 2438 1159 1844 
L 1159 0 
L 581 0 
L 581 3500 
L 1159 3500 
L 1159 2956 
Q 1341 3275 1631 3429 
Q 1922 3584 2338 3584 
Q 2397 3584 2469 3576 
Q 2541 3569 2628 3553 
L 2631 2963 
z
" transform="scale(0.015625)"/>
      <path id="DejaVuSans-73" d="M 2834 3397 
L 2834 2853 
Q 2591 2978 2328 3040 
Q 2066 3103 1784 3103 
Q 1356 3103 1142 2972 
Q 928 2841 928 2578 
Q 928 2378 1081 2264 
Q 1234 2150 1697 2047 
L 1894 2003 
Q 2506 1872 2764 1633 
Q 3022 1394 3022 966 
Q 3022 478 2636 193 
Q 2250 -91 1575 -91 
Q 1294 -91 989 -36 
Q 684 19 347 128 
L 347 722 
Q 666 556 975 473 
Q 1284 391 1588 391 
Q 1994 391 2212 530 
Q 2431 669 2431 922 
Q 2431 1156 2273 1281 
Q 2116 1406 1581 1522 
L 1381 1569 
Q 847 1681 609 1914 
Q 372 2147 372 2553 
Q 372 3047 722 3315 
Q 1072 3584 1716 3584 
Q 2034 3584 2315 3537 
Q 2597 3491 2834 3397 
z
" transform="scale(0.015625)"/>
      <path id="DejaVuSans-64" d="M 2906 2969 
L 2906 4863 
L 3481 4863 
L 3481 0 
L 2906 0 
L 2906 525 
Q 2725 213 2448 61 
Q 2172 -91 1784 -91 
Q 1150 -91 751 415 
Q 353 922 353 1747 
Q 353 2572 751 3078 
Q 1150 3584 1784 3584 
Q 2172 3584 2448 3432 
Q 2725 3281 2906 2969 
z
M 947 1747 
Q 947 1113 1208 752 
Q 1469 391 1925 391 
Q 2381 391 2643 752 
Q 2906 1113 2906 1747 
Q 2906 2381 2643 2742 
Q 2381 3103 1925 3103 
Q 1469 3103 1208 2742 
Q 947 2381 947 1747 
z
" transform="scale(0.015625)"/>
      <path id="DejaVuSans-49" d="M 628 4666 
L 1259 4666 
L 1259 0 
L 628 0 
L 628 4666 
z
" transform="scale(0.015625)"/>
      <path id="DejaVuSans-67" d="M 2906 1791 
Q 2906 2416 2648 2759 
Q 2391 3103 1925 3103 
Q 1463 3103 1205 2759 
Q 947 2416 947 1791 
Q 947 1169 1205 825 
Q 1463 481 1925 481 
Q 2391 481 2648 825 
Q 2906 1169 2906 1791 
z
M 3481 434 
Q 3481 -459 3084 -895 
Q 2688 -1331 1869 -1331 
Q 1566 -1331 1297 -1286 
Q 1028 -1241 775 -1147 
L 775 -588 
Q 1028 -725 1275 -790 
Q 1522 -856 1778 -856 
Q 2344 -856 2625 -561 
Q 2906 -266 2906 331 
L 2906 616 
Q 2728 306 2450 153 
Q 2172 0 1784 0 
Q 1141 0 747 490 
Q 353 981 353 1791 
Q 353 2603 747 3093 
Q 1141 3584 1784 3584 
Q 2172 3584 2450 3431 
Q 2728 3278 2906 2969 
L 2906 3500 
L 3481 3500 
L 3481 434 
z
" transform="scale(0.015625)"/>
      <path id="DejaVuSans-50" d="M 1259 4147 
L 1259 2394 
L 2053 2394 
Q 2494 2394 2734 2622 
Q 2975 2850 2975 3272 
Q 2975 3691 2734 3919 
Q 2494 4147 2053 4147 
L 1259 4147 
z
M 628 4666 
L 2053 4666 
Q 2838 4666 3239 4311 
Q 3641 3956 3641 3272 
Q 3641 2581 3239 2228 
Q 2838 1875 2053 1875 
L 1259 1875 
L 1259 0 
L 628 0 
L 628 4666 
z
" transform="scale(0.015625)"/>
      <path id="DejaVuSans-70" d="M 1159 525 
L 1159 -1331 
L 581 -1331 
L 581 3500 
L 1159 3500 
L 1159 2969 
Q 1341 3281 1617 3432 
Q 1894 3584 2278 3584 
Q 2916 3584 3314 3078 
Q 3713 2572 3713 1747 
Q 3713 922 3314 415 
Q 2916 -91 2278 -91 
Q 1894 -91 1617 61 
Q 1341 213 1159 525 
z
M 3116 1747 
Q 3116 2381 2855 2742 
Q 2594 3103 2138 3103 
Q 1681 3103 1420 2742 
Q 1159 2381 1159 1747 
Q 1159 1113 1420 752 
Q 1681 391 2138 391 
Q 2594 391 2855 752 
Q 3116 1113 3116 1747 
z
" transform="scale(0.015625)"/>
      <path id="DejaVuSans-6c" d="M 603 4863 
L 1178 4863 
L 1178 0 
L 603 0 
L 603 4863 
z
" transform="scale(0.015625)"/>
     </defs>
     <use xlink:href="#DejaVuSans-4d"/>
     <use xlink:href="#DejaVuSans-65" x="86.279297"/>
     <use xlink:href="#DejaVuSans-61" x="147.802734"/>
     <use xlink:href="#DejaVuSans-6e" x="209.082031"/>
     <use xlink:href="#DejaVuSans-20" x="272.460938"/>
     <use xlink:href="#DejaVuSans-61" x="304.248047"/>
     <use xlink:href="#DejaVuSans-63" x="365.527344"/>
     <use xlink:href="#DejaVuSans-74" x="420.507812"/>
     <use xlink:href="#DejaVuSans-69" x="459.716797"/>
     <use xlink:href="#DejaVuSans-76" x="487.5"/>
     <use xlink:href="#DejaVuSans-69" x="546.679688"/>
     <use xlink:href="#DejaVuSans-74" x="574.462891"/>
     <use xlink:href="#DejaVuSans-79" x="613.671875"/>
     <use xlink:href="#DejaVuSans-20" x="672.851562"/>
     <use xlink:href="#DejaVuSans-6f" x="704.638672"/>
     <use xlink:href="#DejaVuSans-66" x="765.820312"/>
     <use xlink:href="#DejaVuSans-20" x="801.025391"/>
     <use xlink:href="#DejaVuSans-4b" x="832.8125"/>
     <use xlink:href="#DejaVuSans-69" x="898.388672"/>
     <use xlink:href="#DejaVuSans-63" x="926.171875"/>
     <use xlink:href="#DejaVuSans-6b" x="981.152344"/>
     <use xlink:href="#DejaVuSans-20" x="1039.0625"/>
     <use xlink:href="#DejaVuSans-4e" x="1070.849609"/>
     <use xlink:href="#DejaVuSans-65" x="1145.654297"/>
     <use xlink:href="#DejaVuSans-75" x="1207.177734"/>
     <use xlink:href="#DejaVuSans-72" x="1270.556641"/>
     <use xlink:href="#DejaVuSans-6f" x="1309.419922"/>
     <use xlink:href="#DejaVuSans-6e" x="1370.601562"/>
     <use xlink:href="#DejaVuSans-73" x="1433.980469"/>
     <use xlink:href="#DejaVuSans-20" x="1486.080078"/>
     <use xlink:href="#DejaVuSans-61" x="1517.867188"/>
     <use xlink:href="#DejaVuSans-6e" x="1579.146484"/>
     <use xlink:href="#DejaVuSans-64" x="1642.525391"/>
     <use xlink:href="#DejaVuSans-20" x="1706.001953"/>
     <use xlink:href="#DejaVuSans-4e" x="1737.789062"/>
     <use xlink:href="#DejaVuSans-6f" x="1812.59375"/>
     <use xlink:href="#DejaVuSans-69" x="1873.775391"/>
     <use xlink:href="#DejaVuSans-73" x="1901.558594"/>
     <use xlink:href="#DejaVuSans-65" x="1953.658203"/>
     <use xlink:href="#DejaVuSans-20" x="2015.181641"/>
     <use xlink:href="#DejaVuSans-49" x="2046.96875"/>
     <use xlink:href="#DejaVuSans-6e" x="2076.460938"/>
     <use xlink:href="#DejaVuSans-74" x="2139.839844"/>
     <use xlink:href="#DejaVuSans-65" x="2179.048828"/>
     <use xlink:href="#DejaVuSans-67" x="2240.572266"/>
     <use xlink:href="#DejaVuSans-72" x="2304.048828"/>
     <use xlink:href="#DejaVuSans-61" x="2345.162109"/>
     <use xlink:href="#DejaVuSans-74" x="2406.441406"/>
     <use xlink:href="#DejaVuSans-69" x="2445.650391"/>
     <use xlink:href="#DejaVuSans-6e" x="2473.433594"/>
     <use xlink:href="#DejaVuSans-67" x="2536.8125"/>
     <use xlink:href="#DejaVuSans-20" x="2600.289062"/>
     <use xlink:href="#DejaVuSans-50" x="2632.076172"/>
     <use xlink:href="#DejaVuSans-6f" x="2688.753906"/>
     <use xlink:href="#DejaVuSans-70" x="2749.935547"/>
     <use xlink:href="#DejaVuSans-75" x="2813.412109"/>
     <use xlink:href="#DejaVuSans-6c" x="2876.791016"/>
     <use xlink:href="#DejaVuSans-61" x="2904.574219"/>
     <use xlink:href="#DejaVuSans-74" x="2965.853516"/>
     <use xlink:href="#DejaVuSans-69" x="3005.0625"/>
     <use xlink:href="#DejaVuSans-6f" x="3032.845703"/>
     <use xlink:href="#DejaVuSans-6e" x="3094.027344"/>
     <use xlink:href="#DejaVuSans-73" x="3157.40625"/>
    </g>
   </g>
   <g id="legend_1">
    <g id="patch_7">
     <path d="M 1009.641875 108.451875 
L 1151.465 108.451875 
Q 1153.865 108.451875 1153.865 106.051875 
L 1153.865 36.796875 
Q 1153.865 34.396875 1151.465 34.396875 
L 1009.641875 34.396875 
Q 1007.241875 34.396875 1007.241875 36.796875 
L 1007.241875 106.051875 
Q 1007.241875 108.451875 1009.641875 108.451875 
z
" style="fill: #ffffff; opacity: 0.8; stroke: #cccccc; stroke-linejoin: miter"/>
    </g>
    <g id="line2d_18">
     <path d="M 1012.041875 44.115 
L 1024.041875 44.115 
L 1036.041875 44.115 
" style="fill: none; stroke: #000080; stroke-width: 1.5; stroke-linecap: square"/>
    </g>
    <g id="text_17">
     <!-- Kick Group 1 -->
     <g transform="translate(1045.641875 48.315) scale(0.12 -0.12)">
      <defs>
       <path id="DejaVuSans-47" d="M 3809 666 
L 3809 1919 
L 2778 1919 
L 2778 2438 
L 4434 2438 
L 4434 434 
Q 4069 175 3628 42 
Q 3188 -91 2688 -91 
Q 1594 -91 976 548 
Q 359 1188 359 2328 
Q 359 3472 976 4111 
Q 1594 4750 2688 4750 
Q 3144 4750 3555 4637 
Q 3966 4525 4313 4306 
L 4313 3634 
Q 3963 3931 3569 4081 
Q 3175 4231 2741 4231 
Q 1884 4231 1454 3753 
Q 1025 3275 1025 2328 
Q 1025 1384 1454 906 
Q 1884 428 2741 428 
Q 3075 428 3337 486 
Q 3600 544 3809 666 
z
" transform="scale(0.015625)"/>
      </defs>
      <use xlink:href="#DejaVuSans-4b"/>
      <use xlink:href="#DejaVuSans-69" x="65.576172"/>
      <use xlink:href="#DejaVuSans-63" x="93.359375"/>
      <use xlink:href="#DejaVuSans-6b" x="148.339844"/>
      <use xlink:href="#DejaVuSans-20" x="206.25"/>
      <use xlink:href="#DejaVuSans-47" x="238.037109"/>
      <use xlink:href="#DejaVuSans-72" x="315.527344"/>
      <use xlink:href="#DejaVuSans-6f" x="354.390625"/>
      <use xlink:href="#DejaVuSans-75" x="415.572266"/>
      <use xlink:href="#DejaVuSans-70" x="478.951172"/>
      <use xlink:href="#DejaVuSans-20" x="542.427734"/>
      <use xlink:href="#DejaVuSans-31" x="574.214844"/>
     </g>
    </g>
    <g id="line2d_19">
     <path d="M 1012.041875 61.72875 
L 1024.041875 61.72875 
L 1036.041875 61.72875 
" style="fill: none; stroke: #8b0000; stroke-width: 1.5; stroke-linecap: square"/>
    </g>
    <g id="text_18">
     <!-- Kick Group 2 -->
     <g transform="translate(1045.641875 65.92875) scale(0.12 -0.12)">
      <use xlink:href="#DejaVuSans-4b"/>
      <use xlink:href="#DejaVuSans-69" x="65.576172"/>
      <use xlink:href="#DejaVuSans-63" x="93.359375"/>
      <use xlink:href="#DejaVuSans-6b" x="148.339844"/>
      <use xlink:href="#DejaVuSans-20" x="206.25"/>
      <use xlink:href="#DejaVuSans-47" x="238.037109"/>
      <use xlink:href="#DejaVuSans-72" x="315.527344"/>
      <use xlink:href="#DejaVuSans-6f" x="354.390625"/>
      <use xlink:href="#DejaVuSans-75" x="415.572266"/>
      <use xlink:href="#DejaVuSans-70" x="478.951172"/>
      <use xlink:href="#DejaVuSans-20" x="542.427734"/>
      <use xlink:href="#DejaVuSans-32" x="574.214844"/>
     </g>
    </g>
    <g id="line2d_20">
     <path d="M 1012.041875 79.3425 
L 1024.041875 79.3425 
L 1036.041875 79.3425 
" style="fill: none; stroke-dasharray: 5.55,2.4; stroke-dashoffset: 0; stroke: #0000ff; stroke-width: 1.5"/>
    </g>
    <g id="text_19">
     <!-- Integrating Pop 1 -->
     <g transform="translate(1045.641875 83.5425) scale(0.12 -0.12)">
      <use xlink:href="#DejaVuSans-49"/>
      <use xlink:href="#DejaVuSans-6e" x="29.492188"/>
      <use xlink:href="#DejaVuSans-74" x="92.871094"/>
      <use xlink:href="#DejaVuSans-65" x="132.080078"/>
      <use xlink:href="#DejaVuSans-67" x="193.603516"/>
      <use xlink:href="#DejaVuSans-72" x="257.080078"/>
      <use xlink:href="#DejaVuSans-61" x="298.193359"/>
      <use xlink:href="#DejaVuSans-74" x="359.472656"/>
      <use xlink:href="#DejaVuSans-69" x="398.681641"/>
      <use xlink:href="#DejaVuSans-6e" x="426.464844"/>
      <use xlink:href="#DejaVuSans-67" x="489.84375"/>
      <use xlink:href="#DejaVuSans-20" x="553.320312"/>
      <use xlink:href="#DejaVuSans-50" x="585.107422"/>
      <use xlink:href="#DejaVuSans-6f" x="641.785156"/>
      <use xlink:href="#DejaVuSans-70" x="702.966797"/>
      <use xlink:href="#DejaVuSans-20" x="766.443359"/>
      <use xlink:href="#DejaVuSans-31" x="798.230469"/>
     </g>
    </g>
    <g id="line2d_21">
     <path d="M 1012.041875 96.95625 
L 1024.041875 96.95625 
L 1036.041875 96.95625 
" style="fill: none; stroke-dasharray: 5.55,2.4; stroke-dashoffset: 0; stroke: #ff0000; stroke-width: 1.5"/>
    </g>
    <g id="text_20">
     <!-- Integrating Pop 2 -->
     <g transform="translate(1045.641875 101.15625) scale(0.12 -0.12)">
      <use xlink:href="#DejaVuSans-49"/>
      <use xlink:href="#DejaVuSans-6e" x="29.492188"/>
      <use xlink:href="#DejaVuSans-74" x="92.871094"/>
      <use xlink:href="#DejaVuSans-65" x="132.080078"/>
      <use xlink:href="#DejaVuSans-67" x="193.603516"/>
      <use xlink:href="#DejaVuSans-72" x="257.080078"/>
      <use xlink:href="#DejaVuSans-61" x="298.193359"/>
      <use xlink:href="#DejaVuSans-74" x="359.472656"/>
      <use xlink:href="#DejaVuSans-69" x="398.681641"/>
      <use xlink:href="#DejaVuSans-6e" x="426.464844"/>
      <use xlink:href="#DejaVuSans-67" x="489.84375"/>
      <use xlink:href="#DejaVuSans-20" x="553.320312"/>
      <use xlink:href="#DejaVuSans-50" x="585.107422"/>
      <use xlink:href="#DejaVuSans-6f" x="641.785156"/>
      <use xlink:href="#DejaVuSans-70" x="702.966797"/>
      <use xlink:href="#DejaVuSans-20" x="766.443359"/>
      <use xlink:href="#DejaVuSans-32" x="798.230469"/>
     </g>
    </g>
   </g>
  </g>
 </g>
 <defs>
  <clipPath id="pf7c5077973">
   <rect x="43.865" y="28.396875" width="1116" height="166.32"/>
  </clipPath>
 </defs>
</svg>
